G04 #@! TF.GenerationSoftware,KiCad,Pcbnew,5.0.0-rc2-dev-unknown-648803d~64~ubuntu16.04.1*
G04 #@! TF.CreationDate,2018-04-28T23:38:00-07:00*
G04 #@! TF.ProjectId,HICURRNT_Bridge,4849435552524E545F4272696467652E,rev?*
G04 #@! TF.SameCoordinates,Original*
G04 #@! TF.FileFunction,Soldermask,Bot*
G04 #@! TF.FilePolarity,Negative*
%FSLAX46Y46*%
G04 Gerber Fmt 4.6, Leading zero omitted, Abs format (unit mm)*
G04 Created by KiCad (PCBNEW 5.0.0-rc2-dev-unknown-648803d~64~ubuntu16.04.1) date Sat Apr 28 23:38:00 2018*
%MOMM*%
%LPD*%
G01*
G04 APERTURE LIST*
%ADD10C,4.900000*%
%ADD11C,5.400000*%
%ADD12C,4.400000*%
%ADD13R,2.800000X2.800000*%
%ADD14C,2.800000*%
%ADD15C,1.924000*%
%ADD16R,1.924000X1.924000*%
%ADD17R,4.400000X4.400000*%
%ADD18C,2.400000*%
%ADD19R,2.400000X2.400000*%
%ADD20R,1.290000X1.500000*%
G04 APERTURE END LIST*
D10*
X44950000Y56850000D03*
X14350000Y56850000D03*
D11*
X57750000Y4250000D03*
X4000000Y4050000D03*
D10*
X36200000Y56850000D03*
X21750000Y56850000D03*
D11*
X4000000Y112050000D03*
X57750000Y112850000D03*
D12*
X45735000Y40540000D03*
X13735000Y40540000D03*
X13735000Y72540000D03*
D13*
X15290000Y86710000D03*
D14*
X7790000Y86710000D03*
D15*
X57400000Y39410000D03*
X57400000Y36870000D03*
D16*
X57400000Y34330000D03*
X57400000Y31790000D03*
D15*
X57400000Y29250000D03*
X57400000Y26710000D03*
X57400000Y24170000D03*
X57400000Y21630000D03*
D17*
X43620000Y100760000D03*
D12*
X34120000Y100760000D03*
X24620000Y100760000D03*
X15120000Y100760000D03*
D18*
X29460000Y3652000D03*
X32000000Y3652000D03*
X34540000Y3652000D03*
X37080000Y3652000D03*
D19*
X26840000Y3652000D03*
X24300000Y3652000D03*
X21760000Y3652000D03*
X19220000Y3652000D03*
D18*
X4000000Y29230000D03*
X4000000Y26690000D03*
X4000000Y24150000D03*
X4000000Y21610000D03*
X4070000Y11370000D03*
X4070000Y13910000D03*
X4070000Y16450000D03*
X4070000Y18990000D03*
D13*
X50850000Y86710000D03*
D14*
X43350000Y86710000D03*
X25570000Y86710000D03*
D13*
X33070000Y86710000D03*
D20*
X37725000Y36387500D03*
X38575000Y36387500D03*
X40275000Y36387500D03*
X39425000Y36387500D03*
X39425000Y35331250D03*
X40275000Y35331250D03*
X38575000Y35331250D03*
X37725000Y35331250D03*
X37725000Y34275000D03*
X38575000Y34275000D03*
X40275000Y34275000D03*
X39425000Y34275000D03*
X39425000Y33218750D03*
X40275000Y33218750D03*
X38575000Y33218750D03*
X37725000Y33218750D03*
X37725000Y32162500D03*
X38575000Y32162500D03*
X40275000Y32162500D03*
X39425000Y32162500D03*
X39425000Y31106250D03*
X40275000Y31106250D03*
X38575000Y31106250D03*
X37725000Y31106250D03*
D15*
X23030000Y46959000D03*
X23030000Y49245000D03*
X23030000Y51531000D03*
X12616000Y46959000D03*
X12616000Y49245000D03*
X12616000Y51531000D03*
X16116000Y46959000D03*
X16116000Y49245000D03*
X16116000Y51531000D03*
X19616000Y46959000D03*
X19616000Y49245000D03*
X19616000Y51531000D03*
D16*
X19616000Y66136000D03*
D15*
X19616000Y63850000D03*
X19616000Y61564000D03*
D16*
X16116000Y66136000D03*
D15*
X16116000Y63850000D03*
X16116000Y61564000D03*
D16*
X12616000Y66136000D03*
D15*
X12616000Y63850000D03*
X12616000Y61564000D03*
D16*
X23030000Y66136000D03*
D15*
X23030000Y63850000D03*
X23030000Y61564000D03*
X42476000Y51531000D03*
X42476000Y49245000D03*
X42476000Y46959000D03*
X38976000Y51531000D03*
X38976000Y49245000D03*
X38976000Y46959000D03*
X35476000Y51531000D03*
X35476000Y49245000D03*
X35476000Y46959000D03*
X45890000Y51531000D03*
X45890000Y49245000D03*
X45890000Y46959000D03*
X45890000Y61564000D03*
X45890000Y63850000D03*
D16*
X45890000Y66136000D03*
D15*
X35476000Y61564000D03*
X35476000Y63850000D03*
D16*
X35476000Y66136000D03*
D15*
X38976000Y61564000D03*
X38976000Y63850000D03*
D16*
X38976000Y66136000D03*
D15*
X42476000Y61564000D03*
X42476000Y63850000D03*
D16*
X42476000Y66136000D03*
D12*
X45735000Y72540000D03*
M02*
