M48
;DRILL file {KiCad 5.0.0-rc2-dev-unknown-648803d~64~ubuntu16.04.1} date Sat Apr 28 23:36:15 2018
;FORMAT={-:-/ absolute / inch / decimal}
FMAT,2
INCH,TZ
T1C0.0118
T2C0.0157
T3C0.0394
T4C0.0400
T5C0.0472
T6C0.0591
T7C0.0787
T8C0.1378
T9C0.1575
%
G90
G05
M72
T1
X1.4852Y1.4326
X1.4852Y1.391
X1.4852Y1.3494
X1.4852Y1.3078
X1.4852Y1.2662
X1.4852Y1.2247
X1.5187Y1.4326
X1.5187Y1.391
X1.5187Y1.3494
X1.5187Y1.3078
X1.5187Y1.2662
X1.5187Y1.2247
X1.5522Y1.4326
X1.5522Y1.391
X1.5522Y1.3494
X1.5522Y1.3078
X1.5522Y1.2662
X1.5522Y1.2247
X1.5856Y1.4326
X1.5856Y1.391
X1.5856Y1.3494
X1.5856Y1.3078
X1.5856Y1.2662
X1.5856Y1.2247
T2
X0.2756Y3.3327
X0.2835Y1.0965
X0.2913Y1.0571
X0.315Y3.498
X0.315Y3.3327
X0.315Y1.1201
X0.3228Y1.0807
X0.3386Y3.2933
X0.3543Y3.498
X0.3543Y3.3484
X0.3543Y0.8287
X0.378Y3.5374
X0.378Y3.4193
X0.378Y3.3799
X0.378Y3.3091
X0.3858Y3.4587
X0.3937Y3.498
X0.3937Y3.3484
X0.4173Y3.5295
X0.4173Y3.4193
X0.4173Y3.3799
X0.4252Y3.4587
X0.4331Y3.498
X0.5512Y3.8458
X0.5512Y3.8064
X0.5591Y1.9547
X0.5591Y1.9232
X0.5669Y2.6038
X0.5669Y2.5295
X0.5669Y2.498
X0.5906Y3.8458
X0.5906Y3.8064
X0.5906Y0.8287
X0.5925Y0.3022
X0.6299Y3.8458
X0.6299Y3.8064
X0.7008Y2.5295
X0.7008Y2.498
X0.7008Y1.9547
X0.7008Y1.9232
X0.748Y4.0276
X0.748Y3.9882
X0.748Y3.9488
X0.748Y3.9094
X0.748Y3.8701
X0.748Y3.8307
X0.7805Y0.376
X0.7874Y4.0276
X0.7874Y3.9882
X0.7874Y3.9488
X0.7874Y3.9094
X0.7874Y3.8701
X0.7874Y3.8307
X0.8268Y4.0276
X0.8268Y3.9882
X0.8268Y3.9488
X0.8268Y3.9094
X0.8268Y3.8701
X0.8268Y3.8307
X0.8346Y2.6038
X0.8346Y2.5295
X0.8346Y2.498
X0.8346Y1.9547
X0.8346Y1.9232
X0.8661Y3.9094
X0.8661Y3.8701
X0.8661Y3.8307
X0.9055Y3.8701
X0.9055Y3.8307
X0.9449Y3.8701
X0.9449Y3.8307
X0.9528Y1.0807
X0.9843Y3.8701
X0.9843Y3.8307
X0.9921Y1.0965
X0.9921Y1.0571
X1.0138Y1.6752
X1.0157Y1.9717
X1.0157Y1.9311
X1.0157Y1.8917
X1.0157Y1.498
X1.0315Y1.0886
X1.0472Y1.948
X1.0472Y1.9075
X1.0472Y1.8681
X1.1024Y1.065
X1.1024Y0.8484
X1.1122Y1.6654
X1.1417Y0.3563
X1.1811Y4.0177
X1.1811Y3.9783
X1.1811Y3.939
X1.1811Y3.8996
X1.1811Y3.8602
X1.1811Y3.8209
X1.1969Y1.1909
X1.2106Y1.6752
X1.2205Y4.0177
X1.2205Y3.9783
X1.2205Y3.939
X1.2205Y3.8996
X1.2205Y3.8602
X1.2205Y3.8209
X1.2598Y4.0177
X1.2598Y3.9783
X1.2598Y3.939
X1.2598Y3.8996
X1.2598Y3.8602
X1.2598Y3.8209
X1.2598Y1.5925
X1.2756Y1.9795
X1.2756Y1.939
X1.2756Y1.8996
X1.2756Y1.8602
X1.2992Y3.8602
X1.2992Y3.8209
X1.2992Y1.6752
X1.2992Y1.5059
X1.315Y1.9469
X1.315Y1.9075
X1.3305Y1.4469
X1.3307Y1.3248
X1.3378Y1.2657
X1.3386Y3.8602
X1.3386Y3.8209
X1.3568Y1.3813
X1.3701Y1.5059
X1.372Y0.6732
X1.378Y3.8602
X1.378Y3.8209
X1.4646Y2.6038
X1.4646Y2.5295
X1.4646Y2.498
X1.4646Y1.9547
X1.4646Y1.9232
X1.6063Y2.5295
X1.6063Y2.498
X1.6063Y1.9547
X1.6063Y1.9232
X1.6122Y0.4075
X1.6693Y1.5217
X1.7323Y1.9547
X1.7323Y1.9232
X1.7402Y2.6038
X1.7402Y2.5295
X1.7402Y2.498
X1.8898Y1.3679
X1.8898Y0.9862
X1.8898Y0.75
X1.9685Y1.3799
X1.9685Y1.2618
X2.126Y0.6319
T3
X0.4967Y2.0288
X0.4967Y1.9388
X0.4967Y1.8488
X0.6345Y2.0288
X0.6345Y1.9388
X0.6345Y1.8488
X0.7723Y2.0288
X0.7723Y1.9388
X0.7723Y1.8488
X0.9067Y2.0288
X0.9067Y1.9388
X0.9067Y1.8488
X1.3967Y2.0288
X1.3967Y1.9388
X1.3967Y1.8488
X1.5345Y2.0288
X1.5345Y1.9388
X1.5345Y1.8488
X1.6723Y2.0288
X1.6723Y1.9388
X1.6723Y1.8488
X1.8067Y2.0288
X1.8067Y1.9388
X1.8067Y1.8488
X1.1598Y0.1438
X1.2598Y0.1438
X1.3598Y0.1438
X1.4598Y0.1438
X1.3967Y2.6038
X1.3967Y2.5138
X1.3967Y2.4238
X1.5345Y2.6038
X1.5345Y2.5138
X1.5345Y2.4238
X1.6723Y2.6038
X1.6723Y2.5138
X1.6723Y2.4238
X1.8067Y2.6038
X1.8067Y2.5138
X1.8067Y2.4238
X0.4967Y2.6038
X0.4967Y2.5138
X0.4967Y2.4238
X0.6345Y2.6038
X0.6345Y2.5138
X0.6345Y2.4238
X0.7723Y2.6038
X0.7723Y2.5138
X0.7723Y2.4238
X0.9067Y2.6038
X0.9067Y2.5138
X0.9067Y2.4238
X0.7567Y0.1438
X0.8567Y0.1438
X0.9567Y0.1438
X1.0567Y0.1438
T4
X2.2598Y1.5516
X2.2598Y1.4516
X2.2598Y1.3516
X2.2598Y1.2516
X2.2598Y1.1516
X2.2598Y1.0516
X2.2598Y0.9516
X2.2598Y0.8516
T5
X1.0067Y3.4138
X1.302Y3.4138
X0.3067Y3.4138
X0.602Y3.4138
X1.7067Y3.4138
X2.002Y3.4138
T6
X0.1602Y0.7476
X0.1602Y0.6476
X0.1602Y0.5476
X0.1602Y0.4476
X0.1575Y1.1508
X0.1575Y1.0508
X0.1575Y0.9508
X0.1575Y0.8508
T7
X0.5953Y3.9669
X0.9693Y3.9669
X1.3433Y3.9669
X1.7173Y3.9669
T8
X1.4252Y2.2382
X0.565Y2.2382
X0.8563Y2.2382
X1.7697Y2.2382
T9
X0.1575Y0.1594
X2.2736Y0.1673
X0.1575Y4.4114
X1.8006Y1.5961
X2.2736Y4.4429
X0.5407Y1.5961
X1.8006Y2.8559
X0.5407Y2.8559
T0
M30
