G04 #@! TF.GenerationSoftware,KiCad,Pcbnew,5.0.0-rc2-dev-unknown-648803d~64~ubuntu16.04.1*
G04 #@! TF.CreationDate,2018-04-28T23:38:00-07:00*
G04 #@! TF.ProjectId,HICURRNT_Bridge,4849435552524E545F4272696467652E,rev?*
G04 #@! TF.SameCoordinates,Original*
G04 #@! TF.FileFunction,Legend,Top*
G04 #@! TF.FilePolarity,Positive*
%FSLAX46Y46*%
G04 Gerber Fmt 4.6, Leading zero omitted, Abs format (unit mm)*
G04 Created by KiCad (PCBNEW 5.0.0-rc2-dev-unknown-648803d~64~ubuntu16.04.1) date Sat Apr 28 23:38:00 2018*
%MOMM*%
%LPD*%
G01*
G04 APERTURE LIST*
%ADD10C,0.300000*%
%ADD11C,0.200000*%
%ADD12C,0.150000*%
%ADD13C,0.100000*%
%ADD14C,0.175000*%
%ADD15C,0.120000*%
%ADD16C,0.500000*%
%ADD17C,0.050000*%
%ADD18C,0.010000*%
%ADD19C,0.304800*%
G04 APERTURE END LIST*
D10*
X3653571Y96321428D02*
X2153571Y96321428D01*
X3653571Y97178571D02*
X2796428Y96535714D01*
X2153571Y97178571D02*
X3010714Y96321428D01*
X3582142Y98392857D02*
X3653571Y98250000D01*
X3653571Y97964285D01*
X3582142Y97821428D01*
X3439285Y97750000D01*
X2867857Y97750000D01*
X2724999Y97821428D01*
X2653571Y97964285D01*
X2653571Y98250000D01*
X2725000Y98392857D01*
X2867857Y98464285D01*
X3010714Y98464285D01*
X3153571Y97750000D01*
X3653571Y99107142D02*
X2653571Y99107142D01*
X2153571Y99107142D02*
X2225000Y99035714D01*
X2296428Y99107142D01*
X2225000Y99178571D01*
X2153571Y99107142D01*
X2296428Y99107142D01*
X2653571Y99607142D02*
X2653571Y100178571D01*
X2153571Y99821428D02*
X3439285Y99821428D01*
X3582142Y99892857D01*
X3653571Y100035714D01*
X3653571Y100178571D01*
X3653571Y100678571D02*
X2153571Y100678571D01*
X3653571Y101321428D02*
X2867857Y101321428D01*
X2725000Y101250000D01*
X2653571Y101107142D01*
X2653571Y100892857D01*
X2725000Y100750000D01*
X2796428Y100678571D01*
X3653571Y103892857D02*
X3653571Y103178571D01*
X2153571Y103178571D01*
X3582142Y104964285D02*
X3653571Y104821428D01*
X3653571Y104535714D01*
X3582142Y104392857D01*
X3439285Y104321428D01*
X2867857Y104321428D01*
X2725000Y104392857D01*
X2653571Y104535714D01*
X2653571Y104821428D01*
X2725000Y104964285D01*
X2867857Y105035714D01*
X3010714Y105035714D01*
X3153571Y104321428D01*
X2653571Y106321428D02*
X3867857Y106321428D01*
X4010714Y106250000D01*
X4082142Y106178571D01*
X4153571Y106035714D01*
X4153571Y105821428D01*
X4082142Y105678571D01*
X3582142Y106321428D02*
X3653571Y106178571D01*
X3653571Y105892857D01*
X3582142Y105750000D01*
X3510714Y105678571D01*
X3367857Y105607142D01*
X2939285Y105607142D01*
X2796428Y105678571D01*
X2725000Y105750000D01*
X2653571Y105892857D01*
X2653571Y106178571D01*
X2725000Y106321428D01*
X2653571Y107678571D02*
X3867857Y107678571D01*
X4010714Y107607142D01*
X4082142Y107535714D01*
X4153571Y107392857D01*
X4153571Y107178571D01*
X4082142Y107035714D01*
X3582142Y107678571D02*
X3653571Y107535714D01*
X3653571Y107250000D01*
X3582142Y107107142D01*
X3510714Y107035714D01*
X3367857Y106964285D01*
X2939285Y106964285D01*
X2796428Y107035714D01*
X2725000Y107107142D01*
X2653571Y107250000D01*
X2653571Y107535714D01*
X2725000Y107678571D01*
X5775000Y96321428D02*
X5775000Y97035714D01*
X6203571Y96178571D02*
X4703571Y96678571D01*
X6203571Y97178571D01*
X5203571Y97678571D02*
X6703571Y97678571D01*
X5275000Y97678571D02*
X5203571Y97821428D01*
X5203571Y98107142D01*
X5275000Y98250000D01*
X5346428Y98321428D01*
X5489285Y98392857D01*
X5917857Y98392857D01*
X6060714Y98321428D01*
X6132142Y98250000D01*
X6203571Y98107142D01*
X6203571Y97821428D01*
X6132142Y97678571D01*
X6203571Y99035714D02*
X5203571Y99035714D01*
X5489285Y99035714D02*
X5346428Y99107142D01*
X5275000Y99178571D01*
X5203571Y99321428D01*
X5203571Y99464285D01*
X6203571Y99964285D02*
X5203571Y99964285D01*
X4703571Y99964285D02*
X4775000Y99892857D01*
X4846428Y99964285D01*
X4775000Y100035714D01*
X4703571Y99964285D01*
X4846428Y99964285D01*
X6203571Y100892857D02*
X6132142Y100750000D01*
X5989285Y100678571D01*
X4703571Y100678571D01*
X4846428Y102535714D02*
X4775000Y102607142D01*
X4703571Y102750000D01*
X4703571Y103107142D01*
X4775000Y103250000D01*
X4846428Y103321428D01*
X4989285Y103392857D01*
X5132142Y103392857D01*
X5346428Y103321428D01*
X6203571Y102464285D01*
X6203571Y103392857D01*
X4703571Y104321428D02*
X4703571Y104464285D01*
X4775000Y104607142D01*
X4846428Y104678571D01*
X4989285Y104750000D01*
X5275000Y104821428D01*
X5632142Y104821428D01*
X5917857Y104750000D01*
X6060714Y104678571D01*
X6132142Y104607142D01*
X6203571Y104464285D01*
X6203571Y104321428D01*
X6132142Y104178571D01*
X6060714Y104107142D01*
X5917857Y104035714D01*
X5632142Y103964285D01*
X5275000Y103964285D01*
X4989285Y104035714D01*
X4846428Y104107142D01*
X4775000Y104178571D01*
X4703571Y104321428D01*
X6203571Y106250000D02*
X6203571Y105392857D01*
X6203571Y105821428D02*
X4703571Y105821428D01*
X4917857Y105678571D01*
X5060714Y105535714D01*
X5132142Y105392857D01*
X5346428Y107107142D02*
X5275000Y106964285D01*
X5203571Y106892857D01*
X5060714Y106821428D01*
X4989285Y106821428D01*
X4846428Y106892857D01*
X4775000Y106964285D01*
X4703571Y107107142D01*
X4703571Y107392857D01*
X4775000Y107535714D01*
X4846428Y107607142D01*
X4989285Y107678571D01*
X5060714Y107678571D01*
X5203571Y107607142D01*
X5275000Y107535714D01*
X5346428Y107392857D01*
X5346428Y107107142D01*
X5417857Y106964285D01*
X5489285Y106892857D01*
X5632142Y106821428D01*
X5917857Y106821428D01*
X6060714Y106892857D01*
X6132142Y106964285D01*
X6203571Y107107142D01*
X6203571Y107392857D01*
X6132142Y107535714D01*
X6060714Y107607142D01*
X5917857Y107678571D01*
X5632142Y107678571D01*
X5489285Y107607142D01*
X5417857Y107535714D01*
X5346428Y107392857D01*
D11*
X45100000Y44100000D02*
X46850000Y44100000D01*
X44850000Y44150000D02*
X45350000Y43650000D01*
X45350000Y44600000D02*
X44850000Y44150000D01*
X42450000Y44250000D02*
X43750000Y44200000D01*
X40350000Y44200000D02*
X42450000Y44250000D01*
X39600000Y43850000D02*
X40350000Y44200000D01*
X38850000Y43000000D02*
X39600000Y43850000D01*
X38850000Y43000000D02*
X39550000Y42950000D01*
X38750000Y43850000D02*
X38850000Y43000000D01*
D10*
X26150000Y58221428D02*
X26150000Y59721428D01*
X26150000Y59007142D02*
X27007142Y59007142D01*
X27007142Y58221428D02*
X27007142Y59721428D01*
X27935714Y58221428D02*
X27792857Y58292857D01*
X27721428Y58364285D01*
X27650000Y58507142D01*
X27650000Y58935714D01*
X27721428Y59078571D01*
X27792857Y59150000D01*
X27935714Y59221428D01*
X28150000Y59221428D01*
X28292857Y59150000D01*
X28364285Y59078571D01*
X28435714Y58935714D01*
X28435714Y58507142D01*
X28364285Y58364285D01*
X28292857Y58292857D01*
X28150000Y58221428D01*
X27935714Y58221428D01*
X29292857Y58221428D02*
X29150000Y58292857D01*
X29078571Y58435714D01*
X29078571Y59721428D01*
X30435714Y58292857D02*
X30292857Y58221428D01*
X30007142Y58221428D01*
X29864285Y58292857D01*
X29792857Y58435714D01*
X29792857Y59007142D01*
X29864285Y59150000D01*
X30007142Y59221428D01*
X30292857Y59221428D01*
X30435714Y59150000D01*
X30507142Y59007142D01*
X30507142Y58864285D01*
X29792857Y58721428D01*
X31078571Y58292857D02*
X31221428Y58221428D01*
X31507142Y58221428D01*
X31650000Y58292857D01*
X31721428Y58435714D01*
X31721428Y58507142D01*
X31650000Y58650000D01*
X31507142Y58721428D01*
X31292857Y58721428D01*
X31150000Y58792857D01*
X31078571Y58935714D01*
X31078571Y59007142D01*
X31150000Y59150000D01*
X31292857Y59221428D01*
X31507142Y59221428D01*
X31650000Y59150000D01*
X28114285Y55671428D02*
X28114285Y56457142D01*
X28042857Y56600000D01*
X27900000Y56671428D01*
X27614285Y56671428D01*
X27471428Y56600000D01*
X28114285Y55742857D02*
X27971428Y55671428D01*
X27614285Y55671428D01*
X27471428Y55742857D01*
X27400000Y55885714D01*
X27400000Y56028571D01*
X27471428Y56171428D01*
X27614285Y56242857D01*
X27971428Y56242857D01*
X28114285Y56314285D01*
X28828571Y55671428D02*
X28828571Y56671428D01*
X28828571Y56385714D02*
X28900000Y56528571D01*
X28971428Y56600000D01*
X29114285Y56671428D01*
X29257142Y56671428D01*
X30328571Y55742857D02*
X30185714Y55671428D01*
X29900000Y55671428D01*
X29757142Y55742857D01*
X29685714Y55885714D01*
X29685714Y56457142D01*
X29757142Y56600000D01*
X29900000Y56671428D01*
X30185714Y56671428D01*
X30328571Y56600000D01*
X30400000Y56457142D01*
X30400000Y56314285D01*
X29685714Y56171428D01*
X27150000Y53121428D02*
X27007142Y53192857D01*
X26935714Y53335714D01*
X26935714Y54621428D01*
X27721428Y53121428D02*
X27721428Y54121428D01*
X27721428Y54621428D02*
X27650000Y54550000D01*
X27721428Y54478571D01*
X27792857Y54550000D01*
X27721428Y54621428D01*
X27721428Y54478571D01*
X28292857Y54121428D02*
X28650000Y53121428D01*
X29007142Y54121428D01*
X30150000Y53192857D02*
X30007142Y53121428D01*
X29721428Y53121428D01*
X29578571Y53192857D01*
X29507142Y53335714D01*
X29507142Y53907142D01*
X29578571Y54050000D01*
X29721428Y54121428D01*
X30007142Y54121428D01*
X30150000Y54050000D01*
X30221428Y53907142D01*
X30221428Y53764285D01*
X29507142Y53621428D01*
X30864285Y53264285D02*
X30935714Y53192857D01*
X30864285Y53121428D01*
X30792857Y53192857D01*
X30864285Y53264285D01*
X30864285Y53121428D01*
X30864285Y53692857D02*
X30792857Y54550000D01*
X30864285Y54621428D01*
X30935714Y54550000D01*
X30864285Y53692857D01*
X30864285Y54621428D01*
D12*
G36*
X24300000Y56600000D02*
X25650000Y54900000D01*
X25650000Y58200000D01*
X24300000Y56600000D01*
G37*
X24300000Y56600000D02*
X25650000Y54900000D01*
X25650000Y58200000D01*
X24300000Y56600000D01*
G36*
X33600000Y56550000D02*
X31900000Y55150000D01*
X31850000Y58150000D01*
X33600000Y56550000D01*
G37*
X33600000Y56550000D02*
X31900000Y55150000D01*
X31850000Y58150000D01*
X33600000Y56550000D01*
D11*
X24350000Y56650000D02*
X33550000Y56650000D01*
D10*
X25000000Y72771428D02*
X25000000Y71771428D01*
X24642857Y73342857D02*
X24285714Y72271428D01*
X25214285Y72271428D01*
X26071428Y73271428D02*
X26214285Y73271428D01*
X26357142Y73200000D01*
X26428571Y73128571D01*
X26500000Y72985714D01*
X26571428Y72700000D01*
X26571428Y72342857D01*
X26500000Y72057142D01*
X26428571Y71914285D01*
X26357142Y71842857D01*
X26214285Y71771428D01*
X26071428Y71771428D01*
X25928571Y71842857D01*
X25857142Y71914285D01*
X25785714Y72057142D01*
X25714285Y72342857D01*
X25714285Y72700000D01*
X25785714Y72985714D01*
X25857142Y73128571D01*
X25928571Y73200000D01*
X26071428Y73271428D01*
X27214285Y71771428D02*
X27214285Y72771428D01*
X27214285Y72628571D02*
X27285714Y72700000D01*
X27428571Y72771428D01*
X27642857Y72771428D01*
X27785714Y72700000D01*
X27857142Y72557142D01*
X27857142Y71771428D01*
X27857142Y72557142D02*
X27928571Y72700000D01*
X28071428Y72771428D01*
X28285714Y72771428D01*
X28428571Y72700000D01*
X28500000Y72557142D01*
X28500000Y71771428D01*
X29214285Y71771428D02*
X29214285Y72771428D01*
X29214285Y72628571D02*
X29285714Y72700000D01*
X29428571Y72771428D01*
X29642857Y72771428D01*
X29785714Y72700000D01*
X29857142Y72557142D01*
X29857142Y71771428D01*
X29857142Y72557142D02*
X29928571Y72700000D01*
X30071428Y72771428D01*
X30285714Y72771428D01*
X30428571Y72700000D01*
X30500000Y72557142D01*
X30500000Y71771428D01*
X32857142Y72557142D02*
X32357142Y72557142D01*
X32357142Y71771428D02*
X32357142Y73271428D01*
X33071428Y73271428D01*
X34285714Y71771428D02*
X34285714Y72557142D01*
X34214285Y72700000D01*
X34071428Y72771428D01*
X33785714Y72771428D01*
X33642857Y72700000D01*
X34285714Y71842857D02*
X34142857Y71771428D01*
X33785714Y71771428D01*
X33642857Y71842857D01*
X33571428Y71985714D01*
X33571428Y72128571D01*
X33642857Y72271428D01*
X33785714Y72342857D01*
X34142857Y72342857D01*
X34285714Y72414285D01*
X35000000Y72771428D02*
X35000000Y71771428D01*
X35000000Y72628571D02*
X35071428Y72700000D01*
X35214285Y72771428D01*
X35428571Y72771428D01*
X35571428Y72700000D01*
X35642857Y72557142D01*
X35642857Y71771428D01*
D11*
X50450000Y61800000D02*
X50450000Y51400000D01*
X50300000Y77050000D02*
X50350000Y67150000D01*
X9300000Y77050000D02*
X50300000Y77050000D01*
X9150000Y36550000D02*
X9300000Y77050000D01*
X38866666Y37507142D02*
X38866666Y37983333D01*
X39152380Y37411904D02*
X38152380Y37745238D01*
X39152380Y38078571D01*
X38485714Y38840476D02*
X39152380Y38840476D01*
X38104761Y38602380D02*
X38819047Y38364285D01*
X38819047Y38983333D01*
X39152380Y39411904D02*
X39152380Y39602380D01*
X39104761Y39697619D01*
X39057142Y39745238D01*
X38914285Y39840476D01*
X38723809Y39888095D01*
X38342857Y39888095D01*
X38247619Y39840476D01*
X38200000Y39792857D01*
X38152380Y39697619D01*
X38152380Y39507142D01*
X38200000Y39411904D01*
X38247619Y39364285D01*
X38342857Y39316666D01*
X38580952Y39316666D01*
X38676190Y39364285D01*
X38723809Y39411904D01*
X38771428Y39507142D01*
X38771428Y39697619D01*
X38723809Y39792857D01*
X38676190Y39840476D01*
X38580952Y39888095D01*
X38485714Y40745238D02*
X39152380Y40745238D01*
X38104761Y40507142D02*
X38819047Y40269047D01*
X38819047Y40888095D01*
X38152380Y41459523D02*
X38152380Y41554761D01*
X38200000Y41650000D01*
X38247619Y41697619D01*
X38342857Y41745238D01*
X38533333Y41792857D01*
X38771428Y41792857D01*
X38961904Y41745238D01*
X39057142Y41697619D01*
X39104761Y41650000D01*
X39152380Y41554761D01*
X39152380Y41459523D01*
X39104761Y41364285D01*
X39057142Y41316666D01*
X38961904Y41269047D01*
X38771428Y41221428D01*
X38533333Y41221428D01*
X38342857Y41269047D01*
X38247619Y41316666D01*
X38200000Y41364285D01*
X38152380Y41459523D01*
D10*
X46857142Y25871428D02*
X47357142Y24371428D01*
X47857142Y25871428D01*
X49142857Y24371428D02*
X48285714Y24371428D01*
X48714285Y24371428D02*
X48714285Y25871428D01*
X48571428Y25657142D01*
X48428571Y25514285D01*
X48285714Y25442857D01*
X50714285Y25871428D02*
X51214285Y24371428D01*
X51714285Y25871428D01*
X52142857Y25728571D02*
X52214285Y25800000D01*
X52357142Y25871428D01*
X52714285Y25871428D01*
X52857142Y25800000D01*
X52928571Y25728571D01*
X53000000Y25585714D01*
X53000000Y25442857D01*
X52928571Y25228571D01*
X52071428Y24371428D01*
X53000000Y24371428D01*
X678571Y12014285D02*
X1678571Y12371428D01*
X678571Y12728571D01*
X1678571Y13300000D02*
X178571Y13300000D01*
X749999Y13300000D02*
X678571Y13442857D01*
X678571Y13728571D01*
X750000Y13871428D01*
X821428Y13942857D01*
X964285Y14014285D01*
X1392857Y14014285D01*
X1535714Y13942857D01*
X1607142Y13871428D01*
X1678571Y13728571D01*
X1678571Y13442857D01*
X1607142Y13300000D01*
X678571Y15300000D02*
X1678571Y15300000D01*
X678571Y14657142D02*
X1464285Y14657142D01*
X1607142Y14728571D01*
X1678571Y14871428D01*
X1678571Y15085714D01*
X1607142Y15228571D01*
X1535714Y15300000D01*
X1607142Y15942857D02*
X1678571Y16085714D01*
X1678571Y16371428D01*
X1607142Y16514285D01*
X1464285Y16585714D01*
X1392857Y16585714D01*
X1250000Y16514285D01*
X1178571Y16371428D01*
X1178571Y16157142D01*
X1107142Y16014285D01*
X964285Y15942857D01*
X892857Y15942857D01*
X750000Y16014285D01*
X678571Y16157142D01*
X678571Y16371428D01*
X750000Y16514285D01*
X1678571Y18014285D02*
X1678571Y17157142D01*
X1678571Y17585714D02*
X178571Y17585714D01*
X392857Y17442857D01*
X535714Y17300000D01*
X607142Y17157142D01*
X678571Y22014285D02*
X1678571Y22371428D01*
X678571Y22728571D01*
X1678571Y23300000D02*
X178571Y23300000D01*
X749999Y23300000D02*
X678571Y23442857D01*
X678571Y23728571D01*
X750000Y23871428D01*
X821428Y23942857D01*
X964285Y24014285D01*
X1392857Y24014285D01*
X1535714Y23942857D01*
X1607142Y23871428D01*
X1678571Y23728571D01*
X1678571Y23442857D01*
X1607142Y23300000D01*
X678571Y25300000D02*
X1678571Y25300000D01*
X678571Y24657142D02*
X1464285Y24657142D01*
X1607142Y24728571D01*
X1678571Y24871428D01*
X1678571Y25085714D01*
X1607142Y25228571D01*
X1535714Y25300000D01*
X1607142Y25942857D02*
X1678571Y26085714D01*
X1678571Y26371428D01*
X1607142Y26514285D01*
X1464285Y26585714D01*
X1392857Y26585714D01*
X1250000Y26514285D01*
X1178571Y26371428D01*
X1178571Y26157142D01*
X1107142Y26014285D01*
X964285Y25942857D01*
X892857Y25942857D01*
X750000Y26014285D01*
X678571Y26157142D01*
X678571Y26371428D01*
X750000Y26514285D01*
X321428Y27157142D02*
X250000Y27228571D01*
X178571Y27371428D01*
X178571Y27728571D01*
X250000Y27871428D01*
X321428Y27942857D01*
X464285Y28014285D01*
X607142Y28014285D01*
X821428Y27942857D01*
X1678571Y27085714D01*
X1678571Y28014285D01*
D11*
X11000000Y19050000D02*
X6000000Y19050000D01*
X11000000Y13050000D02*
X11000000Y19050000D01*
X6000000Y13050000D02*
X11000000Y13050000D01*
X35000000Y13050000D02*
X29000000Y13050000D01*
X35000000Y18050000D02*
X35000000Y13050000D01*
X34000000Y18050000D02*
X35000000Y18050000D01*
X29000000Y18050000D02*
X34000000Y18050000D01*
X29000000Y13050000D02*
X29000000Y18050000D01*
X36950000Y21050000D02*
X37300000Y21050000D01*
X36250000Y21050000D02*
X35700000Y21100000D01*
X36900000Y20450000D02*
X36250000Y21050000D01*
X36850000Y21550000D02*
X36900000Y20450000D01*
X36250000Y21100000D02*
X36850000Y21550000D01*
X36200000Y20500000D02*
X36200000Y21550000D01*
X32550000Y22900000D02*
X33200000Y22900000D01*
X31150000Y22900000D02*
X31750000Y22900000D01*
X31800000Y22250000D02*
X32450000Y22850000D01*
X31800000Y23500000D02*
X31800000Y22250000D01*
X32550000Y22850000D02*
X31800000Y23500000D01*
X32550000Y22200000D02*
X32550000Y23400000D01*
X51350000Y44200000D02*
X51850000Y43700000D01*
X51350000Y44250000D02*
X51800000Y44750000D01*
X52950000Y44250000D02*
X51350000Y44250000D01*
X59150000Y47250000D02*
X58550000Y47100000D01*
X59150000Y47200000D02*
X59400000Y46550000D01*
X58200000Y45650000D02*
X59200000Y47150000D01*
D13*
X55307142Y45850000D02*
X55211904Y45897619D01*
X55069047Y45897619D01*
X54926190Y45850000D01*
X54830952Y45754761D01*
X54783333Y45659523D01*
X54735714Y45469047D01*
X54735714Y45326190D01*
X54783333Y45135714D01*
X54830952Y45040476D01*
X54926190Y44945238D01*
X55069047Y44897619D01*
X55164285Y44897619D01*
X55307142Y44945238D01*
X55354761Y44992857D01*
X55354761Y45326190D01*
X55164285Y45326190D01*
X55783333Y44897619D02*
X55783333Y45897619D01*
X56354761Y44897619D01*
X56354761Y45897619D01*
X56830952Y44897619D02*
X56830952Y45897619D01*
X57069047Y45897619D01*
X57211904Y45850000D01*
X57307142Y45754761D01*
X57354761Y45659523D01*
X57402380Y45469047D01*
X57402380Y45326190D01*
X57354761Y45135714D01*
X57307142Y45040476D01*
X57211904Y44945238D01*
X57069047Y44897619D01*
X56830952Y44897619D01*
X53973809Y43297619D02*
X53973809Y44297619D01*
X53973809Y43916666D02*
X54069047Y43964285D01*
X54259523Y43964285D01*
X54354761Y43916666D01*
X54402380Y43869047D01*
X54450000Y43773809D01*
X54450000Y43488095D01*
X54402380Y43392857D01*
X54354761Y43345238D01*
X54259523Y43297619D01*
X54069047Y43297619D01*
X53973809Y43345238D01*
X54878571Y43297619D02*
X54878571Y43964285D01*
X54878571Y43773809D02*
X54926190Y43869047D01*
X54973809Y43916666D01*
X55069047Y43964285D01*
X55164285Y43964285D01*
X55497619Y43297619D02*
X55497619Y43964285D01*
X55497619Y44297619D02*
X55450000Y44250000D01*
X55497619Y44202380D01*
X55545238Y44250000D01*
X55497619Y44297619D01*
X55497619Y44202380D01*
X56402380Y43297619D02*
X56402380Y44297619D01*
X56402380Y43345238D02*
X56307142Y43297619D01*
X56116666Y43297619D01*
X56021428Y43345238D01*
X55973809Y43392857D01*
X55926190Y43488095D01*
X55926190Y43773809D01*
X55973809Y43869047D01*
X56021428Y43916666D01*
X56116666Y43964285D01*
X56307142Y43964285D01*
X56402380Y43916666D01*
X57307142Y43964285D02*
X57307142Y43154761D01*
X57259523Y43059523D01*
X57211904Y43011904D01*
X57116666Y42964285D01*
X56973809Y42964285D01*
X56878571Y43011904D01*
X57307142Y43345238D02*
X57211904Y43297619D01*
X57021428Y43297619D01*
X56926190Y43345238D01*
X56878571Y43392857D01*
X56830952Y43488095D01*
X56830952Y43773809D01*
X56878571Y43869047D01*
X56926190Y43916666D01*
X57021428Y43964285D01*
X57211904Y43964285D01*
X57307142Y43916666D01*
X58164285Y43345238D02*
X58069047Y43297619D01*
X57878571Y43297619D01*
X57783333Y43345238D01*
X57735714Y43440476D01*
X57735714Y43821428D01*
X57783333Y43916666D01*
X57878571Y43964285D01*
X58069047Y43964285D01*
X58164285Y43916666D01*
X58211904Y43821428D01*
X58211904Y43726190D01*
X57735714Y43630952D01*
D11*
X33000000Y5550000D02*
X33000000Y50000D01*
X38500000Y5550000D02*
X38500000Y50000D01*
X28000000Y5550000D02*
X38500000Y5550000D01*
X17500000Y50000D02*
X17500000Y5550000D01*
X28000000Y50000D02*
X17500000Y50000D01*
X28000000Y5550000D02*
X28000000Y50000D01*
X17500000Y5550000D02*
X28000000Y5550000D01*
X61000000Y40550000D02*
X56000000Y40550000D01*
X56000000Y38050000D02*
X61000000Y38050000D01*
X56000000Y35550000D02*
X61000000Y35550000D01*
X56000000Y30550000D02*
X61000000Y30550000D01*
X56000000Y25550000D02*
X61000000Y25550000D01*
X56000000Y40550000D02*
X56000000Y20050000D01*
X61000000Y20050000D02*
X61000000Y40550000D01*
X56000000Y20050000D02*
X61000000Y20050000D01*
D14*
X59350000Y39500000D02*
X59116666Y39500000D01*
X59116666Y39133333D02*
X59116666Y39833333D01*
X59450000Y39833333D01*
X60050000Y39133333D02*
X59716666Y39133333D01*
X59716666Y39833333D01*
X60183333Y39833333D02*
X60583333Y39833333D01*
X60383333Y39133333D02*
X60383333Y39833333D01*
X59100000Y21945833D02*
X59433333Y21945833D01*
X59033333Y21745833D02*
X59266666Y22445833D01*
X59500000Y21745833D01*
X59733333Y21745833D02*
X59733333Y22445833D01*
X59733333Y22112500D02*
X60133333Y22112500D01*
X60133333Y21745833D02*
X60133333Y22445833D01*
X60466666Y21745833D02*
X60466666Y22445833D01*
X59200000Y24712500D02*
X59300000Y24679166D01*
X59333333Y24645833D01*
X59366666Y24579166D01*
X59366666Y24479166D01*
X59333333Y24412500D01*
X59300000Y24379166D01*
X59233333Y24345833D01*
X58966666Y24345833D01*
X58966666Y25045833D01*
X59200000Y25045833D01*
X59266666Y25012500D01*
X59300000Y24979166D01*
X59333333Y24912500D01*
X59333333Y24845833D01*
X59300000Y24779166D01*
X59266666Y24745833D01*
X59200000Y24712500D01*
X58966666Y24712500D01*
X60000000Y24345833D02*
X59666666Y24345833D01*
X59666666Y25045833D01*
X60366666Y25045833D02*
X60500000Y25045833D01*
X60566666Y25012500D01*
X60633333Y24945833D01*
X60666666Y24812500D01*
X60666666Y24579166D01*
X60633333Y24445833D01*
X60566666Y24379166D01*
X60500000Y24345833D01*
X60366666Y24345833D01*
X60300000Y24379166D01*
X60233333Y24445833D01*
X60200000Y24579166D01*
X60200000Y24812500D01*
X60233333Y24945833D01*
X60300000Y25012500D01*
X60366666Y25045833D01*
X59316666Y27312500D02*
X59416666Y27279166D01*
X59450000Y27245833D01*
X59483333Y27179166D01*
X59483333Y27079166D01*
X59450000Y27012500D01*
X59416666Y26979166D01*
X59350000Y26945833D01*
X59083333Y26945833D01*
X59083333Y27645833D01*
X59316666Y27645833D01*
X59383333Y27612500D01*
X59416666Y27579166D01*
X59450000Y27512500D01*
X59450000Y27445833D01*
X59416666Y27379166D01*
X59383333Y27345833D01*
X59316666Y27312500D01*
X59083333Y27312500D01*
X59783333Y26945833D02*
X59783333Y27645833D01*
X59783333Y27312500D02*
X60183333Y27312500D01*
X60183333Y26945833D02*
X60183333Y27645833D01*
X60516666Y26945833D02*
X60516666Y27645833D01*
X58983333Y29133333D02*
X59316666Y29133333D01*
X58916666Y28933333D02*
X59150000Y29633333D01*
X59383333Y28933333D01*
X59950000Y28933333D02*
X59616666Y28933333D01*
X59616666Y29633333D01*
X60316666Y29633333D02*
X60450000Y29633333D01*
X60516666Y29600000D01*
X60583333Y29533333D01*
X60616666Y29400000D01*
X60616666Y29166666D01*
X60583333Y29033333D01*
X60516666Y28966666D01*
X60450000Y28933333D01*
X60316666Y28933333D01*
X60250000Y28966666D01*
X60183333Y29033333D01*
X60150000Y29166666D01*
X60150000Y29400000D01*
X60183333Y29533333D01*
X60250000Y29600000D01*
X60316666Y29633333D01*
X59266666Y32200000D02*
X59200000Y32233333D01*
X59100000Y32233333D01*
X59000000Y32200000D01*
X58933333Y32133333D01*
X58900000Y32066666D01*
X58866666Y31933333D01*
X58866666Y31833333D01*
X58900000Y31700000D01*
X58933333Y31633333D01*
X59000000Y31566666D01*
X59100000Y31533333D01*
X59166666Y31533333D01*
X59266666Y31566666D01*
X59300000Y31600000D01*
X59300000Y31833333D01*
X59166666Y31833333D01*
X59600000Y31533333D02*
X59600000Y32233333D01*
X60000000Y31533333D01*
X60000000Y32233333D01*
X60333333Y31533333D02*
X60333333Y32233333D01*
X60500000Y32233333D01*
X60600000Y32200000D01*
X60666666Y32133333D01*
X60700000Y32066666D01*
X60733333Y31933333D01*
X60733333Y31833333D01*
X60700000Y31700000D01*
X60666666Y31633333D01*
X60600000Y31566666D01*
X60500000Y31533333D01*
X60333333Y31533333D01*
X59266666Y34600000D02*
X59200000Y34633333D01*
X59100000Y34633333D01*
X59000000Y34600000D01*
X58933333Y34533333D01*
X58900000Y34466666D01*
X58866666Y34333333D01*
X58866666Y34233333D01*
X58900000Y34100000D01*
X58933333Y34033333D01*
X59000000Y33966666D01*
X59100000Y33933333D01*
X59166666Y33933333D01*
X59266666Y33966666D01*
X59300000Y34000000D01*
X59300000Y34233333D01*
X59166666Y34233333D01*
X59600000Y33933333D02*
X59600000Y34633333D01*
X60000000Y33933333D01*
X60000000Y34633333D01*
X60333333Y33933333D02*
X60333333Y34633333D01*
X60500000Y34633333D01*
X60600000Y34600000D01*
X60666666Y34533333D01*
X60700000Y34466666D01*
X60733333Y34333333D01*
X60733333Y34233333D01*
X60700000Y34100000D01*
X60666666Y34033333D01*
X60600000Y33966666D01*
X60500000Y33933333D01*
X60333333Y33933333D01*
X59416666Y36333333D02*
X59183333Y36666666D01*
X59016666Y36333333D02*
X59016666Y37033333D01*
X59283333Y37033333D01*
X59350000Y37000000D01*
X59383333Y36966666D01*
X59416666Y36900000D01*
X59416666Y36800000D01*
X59383333Y36733333D01*
X59350000Y36700000D01*
X59283333Y36666666D01*
X59016666Y36666666D01*
X59683333Y36366666D02*
X59783333Y36333333D01*
X59950000Y36333333D01*
X60016666Y36366666D01*
X60050000Y36400000D01*
X60083333Y36466666D01*
X60083333Y36533333D01*
X60050000Y36600000D01*
X60016666Y36633333D01*
X59950000Y36666666D01*
X59816666Y36700000D01*
X59750000Y36733333D01*
X59716666Y36766666D01*
X59683333Y36833333D01*
X59683333Y36900000D01*
X59716666Y36966666D01*
X59750000Y37000000D01*
X59816666Y37033333D01*
X59983333Y37033333D01*
X60083333Y37000000D01*
X60283333Y37033333D02*
X60683333Y37033333D01*
X60483333Y36333333D02*
X60483333Y37033333D01*
D11*
X6000000Y31050000D02*
X6000000Y20050000D01*
X2000000Y31050000D02*
X6000000Y31050000D01*
X2000000Y20050000D02*
X2000000Y31050000D01*
X6000000Y20050000D02*
X6000000Y10050000D01*
X2000000Y20050000D02*
X6000000Y20050000D01*
X2000000Y10050000D02*
X2000000Y20050000D01*
X6000000Y10050000D02*
X2000000Y10050000D01*
X6400000Y31250000D02*
X6800000Y31250000D01*
X6400000Y30650000D02*
X6400000Y31250000D01*
X26800000Y30650000D02*
X6400000Y30650000D01*
X29400000Y27650000D02*
X26800000Y30650000D01*
X29800000Y27650000D02*
X29400000Y27650000D01*
X44600000Y27650000D02*
X29800000Y27650000D01*
X44800000Y35050000D02*
X44600000Y27650000D01*
X50000000Y35050000D02*
X44800000Y35050000D01*
X51400000Y36250000D02*
X50000000Y35050000D01*
X51400000Y41450000D02*
X51400000Y36250000D01*
X58800000Y41450000D02*
X51400000Y41450000D01*
X58800000Y42050000D02*
X58800000Y41450000D01*
X50600000Y42050000D02*
X58800000Y42050000D01*
X50600000Y36250000D02*
X50600000Y42050000D01*
X50000000Y35650000D02*
X50600000Y36250000D01*
X44200000Y35650000D02*
X50000000Y35650000D01*
X44200000Y28250000D02*
X44200000Y35650000D01*
X29800000Y28250000D02*
X44200000Y28250000D01*
X27200000Y31250000D02*
X29800000Y28250000D01*
X6600000Y31250000D02*
X27200000Y31250000D01*
D10*
X39750000Y69571428D02*
X39750000Y68357142D01*
X39678571Y68214285D01*
X39607142Y68142857D01*
X39464285Y68071428D01*
X39250000Y68071428D01*
X39107142Y68142857D01*
X39750000Y68642857D02*
X39607142Y68571428D01*
X39321428Y68571428D01*
X39178571Y68642857D01*
X39107142Y68714285D01*
X39035714Y68857142D01*
X39035714Y69285714D01*
X39107142Y69428571D01*
X39178571Y69500000D01*
X39321428Y69571428D01*
X39607142Y69571428D01*
X39750000Y69500000D01*
X40678571Y68571428D02*
X40535714Y68642857D01*
X40464285Y68785714D01*
X40464285Y70071428D01*
X41250000Y68571428D02*
X41250000Y70071428D01*
X41250000Y69500000D02*
X41392857Y69571428D01*
X41678571Y69571428D01*
X41821428Y69500000D01*
X41892857Y69428571D01*
X41964285Y69285714D01*
X41964285Y68857142D01*
X41892857Y68714285D01*
X41821428Y68642857D01*
X41678571Y68571428D01*
X41392857Y68571428D01*
X41250000Y68642857D01*
X18050000Y69571428D02*
X18050000Y68357142D01*
X17978571Y68214285D01*
X17907142Y68142857D01*
X17764285Y68071428D01*
X17550000Y68071428D01*
X17407142Y68142857D01*
X18050000Y68642857D02*
X17907142Y68571428D01*
X17621428Y68571428D01*
X17478571Y68642857D01*
X17407142Y68714285D01*
X17335714Y68857142D01*
X17335714Y69285714D01*
X17407142Y69428571D01*
X17478571Y69500000D01*
X17621428Y69571428D01*
X17907142Y69571428D01*
X18050000Y69500000D01*
X18978571Y68571428D02*
X18835714Y68642857D01*
X18764285Y68785714D01*
X18764285Y70071428D01*
X20192857Y68571428D02*
X20192857Y69357142D01*
X20121428Y69500000D01*
X19978571Y69571428D01*
X19692857Y69571428D01*
X19550000Y69500000D01*
X20192857Y68642857D02*
X20050000Y68571428D01*
X19692857Y68571428D01*
X19550000Y68642857D01*
X19478571Y68785714D01*
X19478571Y68928571D01*
X19550000Y69071428D01*
X19692857Y69142857D01*
X20050000Y69142857D01*
X20192857Y69214285D01*
X39564285Y54771428D02*
X39564285Y53557142D01*
X39492857Y53414285D01*
X39421428Y53342857D01*
X39278571Y53271428D01*
X39064285Y53271428D01*
X38921428Y53342857D01*
X39564285Y53842857D02*
X39421428Y53771428D01*
X39135714Y53771428D01*
X38992857Y53842857D01*
X38921428Y53914285D01*
X38850000Y54057142D01*
X38850000Y54485714D01*
X38921428Y54628571D01*
X38992857Y54700000D01*
X39135714Y54771428D01*
X39421428Y54771428D01*
X39564285Y54700000D01*
X40278571Y53771428D02*
X40278571Y55271428D01*
X40921428Y53771428D02*
X40921428Y54557142D01*
X40850000Y54700000D01*
X40707142Y54771428D01*
X40492857Y54771428D01*
X40350000Y54700000D01*
X40278571Y54628571D01*
X41635714Y53771428D02*
X41635714Y55271428D01*
X41635714Y54700000D02*
X41778571Y54771428D01*
X42064285Y54771428D01*
X42207142Y54700000D01*
X42278571Y54628571D01*
X42350000Y54485714D01*
X42350000Y54057142D01*
X42278571Y53914285D01*
X42207142Y53842857D01*
X42064285Y53771428D01*
X41778571Y53771428D01*
X41635714Y53842857D01*
X16964285Y54971428D02*
X16964285Y53757142D01*
X16892857Y53614285D01*
X16821428Y53542857D01*
X16678571Y53471428D01*
X16464285Y53471428D01*
X16321428Y53542857D01*
X16964285Y54042857D02*
X16821428Y53971428D01*
X16535714Y53971428D01*
X16392857Y54042857D01*
X16321428Y54114285D01*
X16250000Y54257142D01*
X16250000Y54685714D01*
X16321428Y54828571D01*
X16392857Y54900000D01*
X16535714Y54971428D01*
X16821428Y54971428D01*
X16964285Y54900000D01*
X17678571Y53971428D02*
X17678571Y55471428D01*
X18321428Y53971428D02*
X18321428Y54757142D01*
X18250000Y54900000D01*
X18107142Y54971428D01*
X17892857Y54971428D01*
X17750000Y54900000D01*
X17678571Y54828571D01*
X19678571Y53971428D02*
X19678571Y54757142D01*
X19607142Y54900000D01*
X19464285Y54971428D01*
X19178571Y54971428D01*
X19035714Y54900000D01*
X19678571Y54042857D02*
X19535714Y53971428D01*
X19178571Y53971428D01*
X19035714Y54042857D01*
X18964285Y54185714D01*
X18964285Y54328571D01*
X19035714Y54471428D01*
X19178571Y54542857D01*
X19535714Y54542857D01*
X19678571Y54614285D01*
D11*
X7287868Y63958578D02*
X8087868Y65458579D01*
X6387868Y65458578D02*
X7187868Y64058578D01*
X8087868Y65458579D02*
X6387868Y65458578D01*
X8087868Y63858579D02*
X6287868Y63858579D01*
X7908724Y48461078D02*
X6108724Y48461077D01*
X7108724Y48561077D02*
X7908723Y50061077D01*
X6208724Y50061077D02*
X7008724Y48661077D01*
X7908723Y50061077D02*
X6208724Y50061077D01*
X49627201Y50847542D02*
X47927201Y50847542D01*
X48827201Y49347542D02*
X49627201Y50847542D01*
X49627201Y49247542D02*
X47827201Y49247541D01*
X47927201Y50847542D02*
X48727201Y49447542D01*
X48106949Y65552529D02*
X48906949Y64152530D01*
X49806949Y65552530D02*
X48106949Y65552529D01*
X49006949Y64052530D02*
X49806949Y65552530D01*
X49806949Y63952530D02*
X48006949Y63952530D01*
D10*
X25150000Y47035714D02*
X25078571Y46892857D01*
X25078571Y46678571D01*
X25150000Y46464285D01*
X25292857Y46321428D01*
X25435714Y46250000D01*
X25721428Y46178571D01*
X25935714Y46178571D01*
X26221428Y46250000D01*
X26364285Y46321428D01*
X26507142Y46464285D01*
X26578571Y46678571D01*
X26578571Y46821428D01*
X26507142Y47035714D01*
X26435714Y47107142D01*
X25935714Y47107142D01*
X25935714Y46821428D01*
X26578571Y48892857D02*
X25078571Y48892857D01*
X25078571Y49250000D01*
X25150000Y49464285D01*
X25292857Y49607142D01*
X25435714Y49678571D01*
X25721428Y49750000D01*
X25935714Y49750000D01*
X26221428Y49678571D01*
X26364285Y49607142D01*
X26507142Y49464285D01*
X26578571Y49250000D01*
X26578571Y48892857D01*
X26507142Y51464285D02*
X26578571Y51678571D01*
X26578571Y52035714D01*
X26507142Y52178571D01*
X26435714Y52250000D01*
X26292857Y52321428D01*
X26150000Y52321428D01*
X26007142Y52250000D01*
X25935714Y52178571D01*
X25864285Y52035714D01*
X25792857Y51750000D01*
X25721428Y51607142D01*
X25650000Y51535714D01*
X25507142Y51464285D01*
X25364285Y51464285D01*
X25221428Y51535714D01*
X25150000Y51607142D01*
X25078571Y51750000D01*
X25078571Y52107142D01*
X25150000Y52321428D01*
X31850000Y47135714D02*
X31778571Y46992857D01*
X31778571Y46778571D01*
X31850000Y46564285D01*
X31992857Y46421428D01*
X32135714Y46350000D01*
X32421428Y46278571D01*
X32635714Y46278571D01*
X32921428Y46350000D01*
X33064285Y46421428D01*
X33207142Y46564285D01*
X33278571Y46778571D01*
X33278571Y46921428D01*
X33207142Y47135714D01*
X33135714Y47207142D01*
X32635714Y47207142D01*
X32635714Y46921428D01*
X33278571Y48992857D02*
X31778571Y48992857D01*
X31778571Y49350000D01*
X31850000Y49564285D01*
X31992857Y49707142D01*
X32135714Y49778571D01*
X32421428Y49850000D01*
X32635714Y49850000D01*
X32921428Y49778571D01*
X33064285Y49707142D01*
X33207142Y49564285D01*
X33278571Y49350000D01*
X33278571Y48992857D01*
X33207142Y51564285D02*
X33278571Y51778571D01*
X33278571Y52135714D01*
X33207142Y52278571D01*
X33135714Y52350000D01*
X32992857Y52421428D01*
X32850000Y52421428D01*
X32707142Y52350000D01*
X32635714Y52278571D01*
X32564285Y52135714D01*
X32492857Y51850000D01*
X32421428Y51707142D01*
X32350000Y51635714D01*
X32207142Y51564285D01*
X32064285Y51564285D01*
X31921428Y51635714D01*
X31850000Y51707142D01*
X31778571Y51850000D01*
X31778571Y52207142D01*
X31850000Y52421428D01*
X31950000Y61535714D02*
X31878571Y61392857D01*
X31878571Y61178571D01*
X31950000Y60964285D01*
X32092857Y60821428D01*
X32235714Y60750000D01*
X32521428Y60678571D01*
X32735714Y60678571D01*
X33021428Y60750000D01*
X33164285Y60821428D01*
X33307142Y60964285D01*
X33378571Y61178571D01*
X33378571Y61321428D01*
X33307142Y61535714D01*
X33235714Y61607142D01*
X32735714Y61607142D01*
X32735714Y61321428D01*
X33378571Y63392857D02*
X31878571Y63392857D01*
X31878571Y63750000D01*
X31950000Y63964285D01*
X32092857Y64107142D01*
X32235714Y64178571D01*
X32521428Y64250000D01*
X32735714Y64250000D01*
X33021428Y64178571D01*
X33164285Y64107142D01*
X33307142Y63964285D01*
X33378571Y63750000D01*
X33378571Y63392857D01*
X33307142Y65964285D02*
X33378571Y66178571D01*
X33378571Y66535714D01*
X33307142Y66678571D01*
X33235714Y66750000D01*
X33092857Y66821428D01*
X32950000Y66821428D01*
X32807142Y66750000D01*
X32735714Y66678571D01*
X32664285Y66535714D01*
X32592857Y66250000D01*
X32521428Y66107142D01*
X32450000Y66035714D01*
X32307142Y65964285D01*
X32164285Y65964285D01*
X32021428Y66035714D01*
X31950000Y66107142D01*
X31878571Y66250000D01*
X31878571Y66607142D01*
X31950000Y66821428D01*
X25250000Y61535714D02*
X25178571Y61392857D01*
X25178571Y61178571D01*
X25250000Y60964285D01*
X25392857Y60821428D01*
X25535714Y60750000D01*
X25821428Y60678571D01*
X26035714Y60678571D01*
X26321428Y60750000D01*
X26464285Y60821428D01*
X26607142Y60964285D01*
X26678571Y61178571D01*
X26678571Y61321428D01*
X26607142Y61535714D01*
X26535714Y61607142D01*
X26035714Y61607142D01*
X26035714Y61321428D01*
X26678571Y63392857D02*
X25178571Y63392857D01*
X25178571Y63750000D01*
X25250000Y63964285D01*
X25392857Y64107142D01*
X25535714Y64178571D01*
X25821428Y64250000D01*
X26035714Y64250000D01*
X26321428Y64178571D01*
X26464285Y64107142D01*
X26607142Y63964285D01*
X26678571Y63750000D01*
X26678571Y63392857D01*
X26607142Y65964285D02*
X26678571Y66178571D01*
X26678571Y66535714D01*
X26607142Y66678571D01*
X26535714Y66750000D01*
X26392857Y66821428D01*
X26250000Y66821428D01*
X26107142Y66750000D01*
X26035714Y66678571D01*
X25964285Y66535714D01*
X25892857Y66250000D01*
X25821428Y66107142D01*
X25750000Y66035714D01*
X25607142Y65964285D01*
X25464285Y65964285D01*
X25321428Y66035714D01*
X25250000Y66107142D01*
X25178571Y66250000D01*
X25178571Y66607142D01*
X25250000Y66821428D01*
D11*
X9695000Y36545000D02*
X49700000Y36545000D01*
X49700000Y76550000D02*
X49700000Y36545000D01*
X9695000Y76550000D02*
X9695000Y36550000D01*
X9695000Y76550000D02*
X49695000Y76550000D01*
D10*
X45127857Y114300000D02*
X45270714Y114228571D01*
X45485000Y114228571D01*
X45699285Y114300000D01*
X45842142Y114442857D01*
X45913571Y114585714D01*
X45985000Y114871428D01*
X45985000Y115085714D01*
X45913571Y115371428D01*
X45842142Y115514285D01*
X45699285Y115657142D01*
X45485000Y115728571D01*
X45342142Y115728571D01*
X45127857Y115657142D01*
X45056428Y115585714D01*
X45056428Y115085714D01*
X45342142Y115085714D01*
X44413571Y115728571D02*
X44413571Y114228571D01*
X43556428Y115728571D01*
X43556428Y114228571D01*
X42842142Y115728571D02*
X42842142Y114228571D01*
X42485000Y114228571D01*
X42270714Y114300000D01*
X42127857Y114442857D01*
X42056428Y114585714D01*
X41985000Y114871428D01*
X41985000Y115085714D01*
X42056428Y115371428D01*
X42127857Y115514285D01*
X42270714Y115657142D01*
X42485000Y115728571D01*
X42842142Y115728571D01*
X35674285Y115728571D02*
X35674285Y114228571D01*
X35174285Y115300000D01*
X34674285Y114228571D01*
X34674285Y115728571D01*
X34031428Y114371428D02*
X33960000Y114300000D01*
X33817142Y114228571D01*
X33460000Y114228571D01*
X33317142Y114300000D01*
X33245714Y114371428D01*
X33174285Y114514285D01*
X33174285Y114657142D01*
X33245714Y114871428D01*
X34102857Y115728571D01*
X33174285Y115728571D01*
X25514285Y115728571D02*
X25514285Y114228571D01*
X25014285Y115300000D01*
X24514285Y114228571D01*
X24514285Y115728571D01*
X23014285Y115728571D02*
X23871428Y115728571D01*
X23442857Y115728571D02*
X23442857Y114228571D01*
X23585714Y114442857D01*
X23728571Y114585714D01*
X23871428Y114657142D01*
X16642857Y114228571D02*
X16142857Y115728571D01*
X15642857Y114228571D01*
X15142857Y115728571D02*
X15142857Y114228571D01*
X14428571Y115728571D02*
X14428571Y114228571D01*
X13571428Y115728571D01*
X13571428Y114228571D01*
D15*
X3375000Y67215000D02*
X3375000Y62265000D01*
X5855000Y67215000D02*
X5855000Y62265000D01*
X5855000Y67215000D02*
X3375000Y67215000D01*
X120000Y50300000D02*
X120000Y48300000D01*
X3080000Y48300000D02*
X3080000Y50300000D01*
X120000Y65450000D02*
X120000Y63450000D01*
X3080000Y63450000D02*
X3080000Y65450000D01*
X53320000Y65800000D02*
X53320000Y63800000D01*
X56280000Y63800000D02*
X56280000Y65800000D01*
X53720000Y51000000D02*
X53720000Y49000000D01*
X56680000Y49000000D02*
X56680000Y51000000D01*
X53250000Y38730000D02*
X54250000Y38730000D01*
X54250000Y37370000D02*
X53250000Y37370000D01*
X5490000Y87610000D02*
X5490000Y85810000D01*
X4590000Y86710000D02*
X6390000Y86710000D01*
X19621000Y87073000D02*
X19621000Y86347000D01*
X19581000Y87569000D02*
X19581000Y85851000D01*
X19541000Y87874000D02*
X19541000Y85546000D01*
X19501000Y88115000D02*
X19501000Y85305000D01*
X19461000Y88320000D02*
X19461000Y85100000D01*
X19421000Y88502000D02*
X19421000Y84918000D01*
X19381000Y88666000D02*
X19381000Y84754000D01*
X19341000Y88817000D02*
X19341000Y84603000D01*
X19301000Y88958000D02*
X19301000Y84462000D01*
X19261000Y89089000D02*
X19261000Y84331000D01*
X19221000Y89213000D02*
X19221000Y84207000D01*
X19181000Y89331000D02*
X19181000Y84089000D01*
X19141000Y89443000D02*
X19141000Y83977000D01*
X19101000Y89551000D02*
X19101000Y83869000D01*
X19061000Y89653000D02*
X19061000Y83767000D01*
X19021000Y89752000D02*
X19021000Y83668000D01*
X18981000Y89848000D02*
X18981000Y83572000D01*
X18941000Y89940000D02*
X18941000Y83480000D01*
X18901000Y90029000D02*
X18901000Y83391000D01*
X18861000Y90115000D02*
X18861000Y83305000D01*
X18821000Y90199000D02*
X18821000Y83221000D01*
X18781000Y90280000D02*
X18781000Y83140000D01*
X18741000Y90359000D02*
X18741000Y83061000D01*
X18701000Y90436000D02*
X18701000Y82984000D01*
X18661000Y90512000D02*
X18661000Y82908000D01*
X18621000Y90585000D02*
X18621000Y82835000D01*
X18581000Y90656000D02*
X18581000Y82764000D01*
X18541000Y90726000D02*
X18541000Y82694000D01*
X18501000Y90794000D02*
X18501000Y82626000D01*
X18461000Y90861000D02*
X18461000Y82559000D01*
X18421000Y90927000D02*
X18421000Y82493000D01*
X18381000Y90991000D02*
X18381000Y82429000D01*
X18341000Y91053000D02*
X18341000Y82367000D01*
X18301000Y91115000D02*
X18301000Y82305000D01*
X18261000Y91175000D02*
X18261000Y82245000D01*
X18221000Y91234000D02*
X18221000Y82186000D01*
X18181000Y91292000D02*
X18181000Y82128000D01*
X18141000Y91349000D02*
X18141000Y82071000D01*
X18101000Y91405000D02*
X18101000Y82015000D01*
X18061000Y91460000D02*
X18061000Y81960000D01*
X18021000Y91514000D02*
X18021000Y81906000D01*
X17981000Y91567000D02*
X17981000Y81853000D01*
X17941000Y91619000D02*
X17941000Y81801000D01*
X17901000Y91670000D02*
X17901000Y81750000D01*
X17861000Y91721000D02*
X17861000Y81699000D01*
X17821000Y91770000D02*
X17821000Y81650000D01*
X17781000Y91819000D02*
X17781000Y81601000D01*
X17741000Y91867000D02*
X17741000Y81553000D01*
X17701000Y91915000D02*
X17701000Y81505000D01*
X17661000Y91961000D02*
X17661000Y81459000D01*
X17621000Y92007000D02*
X17621000Y81413000D01*
X17581000Y92053000D02*
X17581000Y81367000D01*
X17541000Y92097000D02*
X17541000Y81323000D01*
X17501000Y92141000D02*
X17501000Y81279000D01*
X17461000Y92184000D02*
X17461000Y81236000D01*
X17421000Y92227000D02*
X17421000Y81193000D01*
X17381000Y92269000D02*
X17381000Y81151000D01*
X17341000Y92310000D02*
X17341000Y81110000D01*
X17301000Y92351000D02*
X17301000Y81069000D01*
X17261000Y92391000D02*
X17261000Y81029000D01*
X17221000Y92431000D02*
X17221000Y80989000D01*
X17181000Y92470000D02*
X17181000Y80950000D01*
X17141000Y92509000D02*
X17141000Y80911000D01*
X17101000Y92547000D02*
X17101000Y80873000D01*
X17061000Y92585000D02*
X17061000Y80835000D01*
X17021000Y92622000D02*
X17021000Y80798000D01*
X16981000Y92658000D02*
X16981000Y80762000D01*
X16941000Y92694000D02*
X16941000Y80726000D01*
X16901000Y92730000D02*
X16901000Y80690000D01*
X16861000Y92765000D02*
X16861000Y80655000D01*
X16821000Y92800000D02*
X16821000Y80620000D01*
X16781000Y92834000D02*
X16781000Y80586000D01*
X16741000Y92868000D02*
X16741000Y80552000D01*
X16701000Y92901000D02*
X16701000Y80519000D01*
X16661000Y85330000D02*
X16661000Y80486000D01*
X16661000Y92934000D02*
X16661000Y88090000D01*
X16621000Y85330000D02*
X16621000Y80453000D01*
X16621000Y92967000D02*
X16621000Y88090000D01*
X16581000Y85330000D02*
X16581000Y80421000D01*
X16581000Y92999000D02*
X16581000Y88090000D01*
X16541000Y85330000D02*
X16541000Y80390000D01*
X16541000Y93030000D02*
X16541000Y88090000D01*
X16501000Y85330000D02*
X16501000Y80358000D01*
X16501000Y93062000D02*
X16501000Y88090000D01*
X16461000Y85330000D02*
X16461000Y80328000D01*
X16461000Y93092000D02*
X16461000Y88090000D01*
X16421000Y85330000D02*
X16421000Y80297000D01*
X16421000Y93123000D02*
X16421000Y88090000D01*
X16381000Y85330000D02*
X16381000Y80267000D01*
X16381000Y93153000D02*
X16381000Y88090000D01*
X16341000Y85330000D02*
X16341000Y80237000D01*
X16341000Y93183000D02*
X16341000Y88090000D01*
X16301000Y85330000D02*
X16301000Y80208000D01*
X16301000Y93212000D02*
X16301000Y88090000D01*
X16261000Y85330000D02*
X16261000Y80179000D01*
X16261000Y93241000D02*
X16261000Y88090000D01*
X16221000Y85330000D02*
X16221000Y80151000D01*
X16221000Y93269000D02*
X16221000Y88090000D01*
X16181000Y85330000D02*
X16181000Y80122000D01*
X16181000Y93298000D02*
X16181000Y88090000D01*
X16141000Y85330000D02*
X16141000Y80095000D01*
X16141000Y93325000D02*
X16141000Y88090000D01*
X16101000Y85330000D02*
X16101000Y80067000D01*
X16101000Y93353000D02*
X16101000Y88090000D01*
X16061000Y85330000D02*
X16061000Y80040000D01*
X16061000Y93380000D02*
X16061000Y88090000D01*
X16021000Y85330000D02*
X16021000Y80013000D01*
X16021000Y93407000D02*
X16021000Y88090000D01*
X15981000Y85330000D02*
X15981000Y79987000D01*
X15981000Y93433000D02*
X15981000Y88090000D01*
X15941000Y85330000D02*
X15941000Y79961000D01*
X15941000Y93459000D02*
X15941000Y88090000D01*
X15901000Y85330000D02*
X15901000Y79935000D01*
X15901000Y93485000D02*
X15901000Y88090000D01*
X15861000Y85330000D02*
X15861000Y79909000D01*
X15861000Y93511000D02*
X15861000Y88090000D01*
X15821000Y85330000D02*
X15821000Y79884000D01*
X15821000Y93536000D02*
X15821000Y88090000D01*
X15781000Y85330000D02*
X15781000Y79860000D01*
X15781000Y93560000D02*
X15781000Y88090000D01*
X15741000Y85330000D02*
X15741000Y79835000D01*
X15741000Y93585000D02*
X15741000Y88090000D01*
X15701000Y85330000D02*
X15701000Y79811000D01*
X15701000Y93609000D02*
X15701000Y88090000D01*
X15661000Y85330000D02*
X15661000Y79787000D01*
X15661000Y93633000D02*
X15661000Y88090000D01*
X15621000Y85330000D02*
X15621000Y79764000D01*
X15621000Y93656000D02*
X15621000Y88090000D01*
X15581000Y85330000D02*
X15581000Y79740000D01*
X15581000Y93680000D02*
X15581000Y88090000D01*
X15541000Y85330000D02*
X15541000Y79718000D01*
X15541000Y93702000D02*
X15541000Y88090000D01*
X15501000Y85330000D02*
X15501000Y79695000D01*
X15501000Y93725000D02*
X15501000Y88090000D01*
X15461000Y85330000D02*
X15461000Y79673000D01*
X15461000Y93747000D02*
X15461000Y88090000D01*
X15421000Y85330000D02*
X15421000Y79651000D01*
X15421000Y93769000D02*
X15421000Y88090000D01*
X15381000Y85330000D02*
X15381000Y79629000D01*
X15381000Y93791000D02*
X15381000Y88090000D01*
X15341000Y85330000D02*
X15341000Y79608000D01*
X15341000Y93812000D02*
X15341000Y88090000D01*
X15301000Y85330000D02*
X15301000Y79586000D01*
X15301000Y93834000D02*
X15301000Y88090000D01*
X15261000Y85330000D02*
X15261000Y79566000D01*
X15261000Y93854000D02*
X15261000Y88090000D01*
X15221000Y85330000D02*
X15221000Y79545000D01*
X15221000Y93875000D02*
X15221000Y88090000D01*
X15181000Y85330000D02*
X15181000Y79525000D01*
X15181000Y93895000D02*
X15181000Y88090000D01*
X15141000Y85330000D02*
X15141000Y79505000D01*
X15141000Y93915000D02*
X15141000Y88090000D01*
X15101000Y85330000D02*
X15101000Y79485000D01*
X15101000Y93935000D02*
X15101000Y88090000D01*
X15061000Y85330000D02*
X15061000Y79465000D01*
X15061000Y93955000D02*
X15061000Y88090000D01*
X15021000Y85330000D02*
X15021000Y79446000D01*
X15021000Y93974000D02*
X15021000Y88090000D01*
X14981000Y85330000D02*
X14981000Y79427000D01*
X14981000Y93993000D02*
X14981000Y88090000D01*
X14941000Y85330000D02*
X14941000Y79409000D01*
X14941000Y94011000D02*
X14941000Y88090000D01*
X14901000Y85330000D02*
X14901000Y79390000D01*
X14901000Y94030000D02*
X14901000Y88090000D01*
X14861000Y85330000D02*
X14861000Y79372000D01*
X14861000Y94048000D02*
X14861000Y88090000D01*
X14821000Y85330000D02*
X14821000Y79354000D01*
X14821000Y94066000D02*
X14821000Y88090000D01*
X14781000Y85330000D02*
X14781000Y79337000D01*
X14781000Y94083000D02*
X14781000Y88090000D01*
X14741000Y85330000D02*
X14741000Y79319000D01*
X14741000Y94101000D02*
X14741000Y88090000D01*
X14701000Y85330000D02*
X14701000Y79302000D01*
X14701000Y94118000D02*
X14701000Y88090000D01*
X14661000Y85330000D02*
X14661000Y79285000D01*
X14661000Y94135000D02*
X14661000Y88090000D01*
X14621000Y85330000D02*
X14621000Y79269000D01*
X14621000Y94151000D02*
X14621000Y88090000D01*
X14581000Y85330000D02*
X14581000Y79252000D01*
X14581000Y94168000D02*
X14581000Y88090000D01*
X14541000Y85330000D02*
X14541000Y79236000D01*
X14541000Y94184000D02*
X14541000Y88090000D01*
X14501000Y85330000D02*
X14501000Y79220000D01*
X14501000Y94200000D02*
X14501000Y88090000D01*
X14461000Y85330000D02*
X14461000Y79205000D01*
X14461000Y94215000D02*
X14461000Y88090000D01*
X14421000Y85330000D02*
X14421000Y79189000D01*
X14421000Y94231000D02*
X14421000Y88090000D01*
X14381000Y85330000D02*
X14381000Y79174000D01*
X14381000Y94246000D02*
X14381000Y88090000D01*
X14341000Y85330000D02*
X14341000Y79160000D01*
X14341000Y94260000D02*
X14341000Y88090000D01*
X14301000Y85330000D02*
X14301000Y79145000D01*
X14301000Y94275000D02*
X14301000Y88090000D01*
X14261000Y85330000D02*
X14261000Y79130000D01*
X14261000Y94290000D02*
X14261000Y88090000D01*
X14221000Y85330000D02*
X14221000Y79116000D01*
X14221000Y94304000D02*
X14221000Y88090000D01*
X14181000Y85330000D02*
X14181000Y79102000D01*
X14181000Y94318000D02*
X14181000Y88090000D01*
X14141000Y85330000D02*
X14141000Y79089000D01*
X14141000Y94331000D02*
X14141000Y88090000D01*
X14101000Y85330000D02*
X14101000Y79075000D01*
X14101000Y94345000D02*
X14101000Y88090000D01*
X14061000Y85330000D02*
X14061000Y79062000D01*
X14061000Y94358000D02*
X14061000Y88090000D01*
X14021000Y85330000D02*
X14021000Y79049000D01*
X14021000Y94371000D02*
X14021000Y88090000D01*
X13981000Y85330000D02*
X13981000Y79036000D01*
X13981000Y94384000D02*
X13981000Y88090000D01*
X13941000Y85330000D02*
X13941000Y79024000D01*
X13941000Y94396000D02*
X13941000Y88090000D01*
X13901000Y94409000D02*
X13901000Y79011000D01*
X13861000Y94421000D02*
X13861000Y78999000D01*
X13821000Y94433000D02*
X13821000Y78987000D01*
X13781000Y94444000D02*
X13781000Y78976000D01*
X13741000Y94456000D02*
X13741000Y78964000D01*
X13701000Y94467000D02*
X13701000Y78953000D01*
X13661000Y94478000D02*
X13661000Y78942000D01*
X13621000Y94489000D02*
X13621000Y78931000D01*
X13581000Y94499000D02*
X13581000Y78921000D01*
X13541000Y94509000D02*
X13541000Y78911000D01*
X13501000Y94519000D02*
X13501000Y78901000D01*
X13461000Y94529000D02*
X13461000Y78891000D01*
X13421000Y94539000D02*
X13421000Y78881000D01*
X13381000Y94548000D02*
X13381000Y78872000D01*
X13341000Y94558000D02*
X13341000Y78862000D01*
X13301000Y94567000D02*
X13301000Y78853000D01*
X13261000Y94576000D02*
X13261000Y78844000D01*
X13221000Y94584000D02*
X13221000Y78836000D01*
X13181000Y94593000D02*
X13181000Y78827000D01*
X13141000Y94601000D02*
X13141000Y78819000D01*
X13101000Y94609000D02*
X13101000Y78811000D01*
X13061000Y94616000D02*
X13061000Y78804000D01*
X13021000Y94624000D02*
X13021000Y78796000D01*
X12981000Y94631000D02*
X12981000Y78789000D01*
X12941000Y94638000D02*
X12941000Y78782000D01*
X12901000Y94645000D02*
X12901000Y78775000D01*
X12861000Y94652000D02*
X12861000Y78768000D01*
X12821000Y94659000D02*
X12821000Y78761000D01*
X12781000Y94665000D02*
X12781000Y78755000D01*
X12741000Y94671000D02*
X12741000Y78749000D01*
X12701000Y94677000D02*
X12701000Y78743000D01*
X12661000Y94683000D02*
X12661000Y78737000D01*
X12621000Y94688000D02*
X12621000Y78732000D01*
X12581000Y94693000D02*
X12581000Y78727000D01*
X12541000Y94698000D02*
X12541000Y78722000D01*
X12501000Y94703000D02*
X12501000Y78717000D01*
X12461000Y94708000D02*
X12461000Y78712000D01*
X12421000Y94712000D02*
X12421000Y78708000D01*
X12381000Y94717000D02*
X12381000Y78703000D01*
X12341000Y94721000D02*
X12341000Y78699000D01*
X12301000Y94725000D02*
X12301000Y78695000D01*
X12261000Y94728000D02*
X12261000Y78692000D01*
X12220000Y94732000D02*
X12220000Y78688000D01*
X12180000Y94735000D02*
X12180000Y78685000D01*
X12140000Y94738000D02*
X12140000Y78682000D01*
X12100000Y94741000D02*
X12100000Y78679000D01*
X12060000Y94744000D02*
X12060000Y78676000D01*
X12020000Y94746000D02*
X12020000Y78674000D01*
X11980000Y94749000D02*
X11980000Y78671000D01*
X11940000Y94751000D02*
X11940000Y78669000D01*
X11900000Y94752000D02*
X11900000Y78668000D01*
X11860000Y94754000D02*
X11860000Y78666000D01*
X11820000Y94756000D02*
X11820000Y78664000D01*
X11780000Y94757000D02*
X11780000Y78663000D01*
X11740000Y94758000D02*
X11740000Y78662000D01*
X11700000Y94759000D02*
X11700000Y78661000D01*
X11660000Y94760000D02*
X11660000Y78660000D01*
X11620000Y94760000D02*
X11620000Y78660000D01*
X11580000Y94760000D02*
X11580000Y78660000D01*
X11540000Y94761000D02*
X11540000Y78659000D01*
X19630000Y86710000D02*
G75*
G03X19630000Y86710000I-8090000J0D01*
G01*
X25590000Y34490000D02*
X25590000Y26870000D01*
X24830000Y35250000D02*
X25590000Y34490000D01*
X17210000Y34490000D02*
X17970000Y35250000D01*
X17210000Y26870000D02*
X17210000Y34490000D01*
X25590000Y26870000D02*
X22960000Y26870000D01*
X17210000Y26870000D02*
X19840000Y26870000D01*
X17970000Y35250000D02*
X19840000Y35250000D01*
X24830000Y35250000D02*
X22960000Y35250000D01*
X32800000Y30750000D02*
X32800000Y30050000D01*
X31600000Y30050000D02*
X31600000Y30750000D01*
X32600000Y34650000D02*
X32600000Y33950000D01*
X31400000Y33950000D02*
X31400000Y34650000D01*
X36600000Y40350000D02*
X36600000Y39650000D01*
X35400000Y39650000D02*
X35400000Y40350000D01*
X49970000Y17240000D02*
X57590000Y17240000D01*
X49210000Y16480000D02*
X49970000Y17240000D01*
X49970000Y8860000D02*
X49210000Y9620000D01*
X57590000Y8860000D02*
X49970000Y8860000D01*
X57590000Y17240000D02*
X57590000Y14610000D01*
X57590000Y8860000D02*
X57590000Y11490000D01*
X49210000Y9620000D02*
X49210000Y11490000D01*
X49210000Y16480000D02*
X49210000Y14610000D01*
X14380000Y35390000D02*
X12510000Y35390000D01*
X7520000Y35390000D02*
X9390000Y35390000D01*
X6760000Y27010000D02*
X9390000Y27010000D01*
X15140000Y27010000D02*
X12510000Y27010000D01*
X6760000Y27010000D02*
X6760000Y34630000D01*
X6760000Y34630000D02*
X7520000Y35390000D01*
X14380000Y35390000D02*
X15140000Y34630000D01*
X15140000Y34630000D02*
X15140000Y27010000D01*
X36810000Y16480000D02*
X36810000Y14610000D01*
X36810000Y9620000D02*
X36810000Y11490000D01*
X45190000Y8860000D02*
X45190000Y11490000D01*
X45190000Y17240000D02*
X45190000Y14610000D01*
X45190000Y8860000D02*
X37570000Y8860000D01*
X37570000Y8860000D02*
X36810000Y9620000D01*
X36810000Y16480000D02*
X37570000Y17240000D01*
X37570000Y17240000D02*
X45190000Y17240000D01*
X36600000Y25650000D02*
X37300000Y25650000D01*
X37300000Y24450000D02*
X36600000Y24450000D01*
X44000000Y27530000D02*
X42000000Y27530000D01*
X42000000Y24570000D02*
X44000000Y24570000D01*
X3375000Y51975000D02*
X3375000Y47025000D01*
X5855000Y51975000D02*
X5855000Y47025000D01*
X5855000Y51975000D02*
X3375000Y51975000D01*
X53440000Y52685000D02*
X50960000Y52685000D01*
X53440000Y52685000D02*
X53440000Y47735000D01*
X50960000Y52685000D02*
X50960000Y47735000D01*
X50760000Y67150000D02*
X50760000Y62200000D01*
X53240000Y67150000D02*
X53240000Y62200000D01*
X53240000Y67150000D02*
X50760000Y67150000D01*
X29300000Y23790000D02*
X32500000Y23790000D01*
X32500000Y25910000D02*
X29300000Y25910000D01*
X29300000Y25910000D02*
X29300000Y23790000D01*
X38550000Y20250000D02*
X35950000Y20250000D01*
X38550000Y21850000D02*
X35950000Y21850000D01*
X38550000Y20250000D02*
X38550000Y21850000D01*
D16*
X49380000Y113840000D02*
X49380000Y95840000D01*
X8380000Y113840000D02*
X8380000Y95840000D01*
X49380000Y95840000D02*
X8380000Y95840000D01*
X49380000Y113840000D02*
X8380000Y113840000D01*
D17*
X27463250Y107817698D02*
G75*
G03X27463250Y107817698I-2977699J0D01*
G01*
X49380000Y107840000D02*
X8380000Y107840000D01*
X37357699Y107817698D02*
G75*
G03X37357699Y107817698I-2977699J0D01*
G01*
X46357699Y107817698D02*
G75*
G03X46357699Y107817698I-2977699J0D01*
G01*
X18357699Y107840000D02*
G75*
G03X18357699Y107840000I-2977699J0D01*
G01*
X43380000Y109840000D02*
X43380000Y105840000D01*
X34380000Y109840000D02*
X34380000Y105840000D01*
X24380000Y109840000D02*
X24380000Y105840000D01*
X15380000Y109840000D02*
X15380000Y105840000D01*
X16880000Y107840000D02*
X16880000Y107340000D01*
X16880000Y107340000D02*
X15880000Y107340000D01*
X15880000Y107340000D02*
X15880000Y105840000D01*
X15880000Y105840000D02*
X14880000Y105840000D01*
X14880000Y105840000D02*
X14880000Y107340000D01*
X14880000Y107340000D02*
X13880000Y107340000D01*
X13880000Y107340000D02*
X13880000Y108340000D01*
X13880000Y108340000D02*
X14880000Y108340000D01*
X14880000Y108340000D02*
X14880000Y109840000D01*
X14880000Y109840000D02*
X15880000Y109840000D01*
X15880000Y109840000D02*
X15880000Y108340000D01*
X15880000Y108340000D02*
X16880000Y108340000D01*
X16880000Y108340000D02*
X16880000Y107340000D01*
X26380000Y107340000D02*
X26380000Y108340000D01*
X26380000Y108340000D02*
X24880000Y108340000D01*
X24880000Y108340000D02*
X24880000Y109840000D01*
X24880000Y109840000D02*
X23880000Y109840000D01*
X23880000Y109840000D02*
X23880000Y108340000D01*
X23880000Y108340000D02*
X22380000Y108340000D01*
X22380000Y108340000D02*
X22380000Y107340000D01*
X22380000Y107340000D02*
X23880000Y107340000D01*
X23880000Y107340000D02*
X23880000Y105840000D01*
X23880000Y105840000D02*
X24880000Y105840000D01*
X24880000Y105840000D02*
X24880000Y107340000D01*
X24880000Y107340000D02*
X26380000Y107340000D01*
X36380000Y107840000D02*
X36380000Y107340000D01*
X36380000Y107340000D02*
X34880000Y107340000D01*
X34880000Y107340000D02*
X34880000Y105840000D01*
X34880000Y105840000D02*
X33880000Y105840000D01*
X33880000Y105840000D02*
X33880000Y107340000D01*
X33880000Y107340000D02*
X32380000Y107340000D01*
X32380000Y107340000D02*
X32380000Y108340000D01*
X32380000Y108340000D02*
X33880000Y108340000D01*
X33880000Y108340000D02*
X33880000Y109840000D01*
X33880000Y109840000D02*
X34880000Y109840000D01*
X34880000Y109840000D02*
X34880000Y108340000D01*
X34880000Y108340000D02*
X36380000Y108340000D01*
X36380000Y108340000D02*
X36380000Y107840000D01*
X45380000Y107840000D02*
X45380000Y107340000D01*
X45380000Y107340000D02*
X43880000Y107340000D01*
X43880000Y107340000D02*
X43880000Y105840000D01*
X43880000Y105840000D02*
X42880000Y105840000D01*
X42880000Y105840000D02*
X42880000Y107340000D01*
X42880000Y107340000D02*
X41380000Y107340000D01*
X41380000Y107340000D02*
X41380000Y108340000D01*
X41380000Y108340000D02*
X42880000Y108340000D01*
X42880000Y108340000D02*
X42880000Y109840000D01*
X42880000Y109840000D02*
X43880000Y109840000D01*
X43880000Y109840000D02*
X43880000Y108340000D01*
X43880000Y108340000D02*
X45380000Y108340000D01*
X45380000Y108340000D02*
X45380000Y107840000D01*
X46899799Y107817698D02*
G75*
G03X46899799Y107817698I-3519799J0D01*
G01*
X37899799Y107859799D02*
G75*
G03X37899799Y107859799I-3519799J0D01*
G01*
X27899799Y107859799D02*
G75*
G03X27899799Y107859799I-3519799J0D01*
G01*
X18899799Y107859799D02*
G75*
G03X18899799Y107859799I-3519799J0D01*
G01*
D12*
G36*
X47380000Y112840000D02*
X47380000Y103840000D01*
X39880000Y103840000D01*
X39880000Y112840000D01*
X38380000Y112840000D01*
X38380000Y103840000D01*
X30380000Y103840000D01*
X30380000Y112840000D01*
X27880000Y112840000D01*
X27880000Y103840000D01*
X20880000Y103840000D01*
X20880000Y112840000D01*
X18880000Y112840000D01*
X18880000Y103840000D01*
X11880000Y103840000D01*
X11880000Y112840000D01*
X10380000Y112840000D01*
X10380000Y102340000D01*
X48380000Y102340000D01*
X48380000Y112840000D01*
X47380000Y112840000D01*
G37*
X47380000Y112840000D02*
X47380000Y103840000D01*
X39880000Y103840000D01*
X39880000Y112840000D01*
X38380000Y112840000D01*
X38380000Y103840000D01*
X30380000Y103840000D01*
X30380000Y112840000D01*
X27880000Y112840000D01*
X27880000Y103840000D01*
X20880000Y103840000D01*
X20880000Y112840000D01*
X18880000Y112840000D01*
X18880000Y103840000D01*
X11880000Y103840000D01*
X11880000Y112840000D01*
X10380000Y112840000D01*
X10380000Y102340000D01*
X48380000Y102340000D01*
X48380000Y112840000D01*
X47380000Y112840000D01*
D15*
X41050000Y87610000D02*
X41050000Y85810000D01*
X40150000Y86710000D02*
X41950000Y86710000D01*
X55181000Y87073000D02*
X55181000Y86347000D01*
X55141000Y87569000D02*
X55141000Y85851000D01*
X55101000Y87874000D02*
X55101000Y85546000D01*
X55061000Y88115000D02*
X55061000Y85305000D01*
X55021000Y88320000D02*
X55021000Y85100000D01*
X54981000Y88502000D02*
X54981000Y84918000D01*
X54941000Y88666000D02*
X54941000Y84754000D01*
X54901000Y88817000D02*
X54901000Y84603000D01*
X54861000Y88958000D02*
X54861000Y84462000D01*
X54821000Y89089000D02*
X54821000Y84331000D01*
X54781000Y89213000D02*
X54781000Y84207000D01*
X54741000Y89331000D02*
X54741000Y84089000D01*
X54701000Y89443000D02*
X54701000Y83977000D01*
X54661000Y89551000D02*
X54661000Y83869000D01*
X54621000Y89653000D02*
X54621000Y83767000D01*
X54581000Y89752000D02*
X54581000Y83668000D01*
X54541000Y89848000D02*
X54541000Y83572000D01*
X54501000Y89940000D02*
X54501000Y83480000D01*
X54461000Y90029000D02*
X54461000Y83391000D01*
X54421000Y90115000D02*
X54421000Y83305000D01*
X54381000Y90199000D02*
X54381000Y83221000D01*
X54341000Y90280000D02*
X54341000Y83140000D01*
X54301000Y90359000D02*
X54301000Y83061000D01*
X54261000Y90436000D02*
X54261000Y82984000D01*
X54221000Y90512000D02*
X54221000Y82908000D01*
X54181000Y90585000D02*
X54181000Y82835000D01*
X54141000Y90656000D02*
X54141000Y82764000D01*
X54101000Y90726000D02*
X54101000Y82694000D01*
X54061000Y90794000D02*
X54061000Y82626000D01*
X54021000Y90861000D02*
X54021000Y82559000D01*
X53981000Y90927000D02*
X53981000Y82493000D01*
X53941000Y90991000D02*
X53941000Y82429000D01*
X53901000Y91053000D02*
X53901000Y82367000D01*
X53861000Y91115000D02*
X53861000Y82305000D01*
X53821000Y91175000D02*
X53821000Y82245000D01*
X53781000Y91234000D02*
X53781000Y82186000D01*
X53741000Y91292000D02*
X53741000Y82128000D01*
X53701000Y91349000D02*
X53701000Y82071000D01*
X53661000Y91405000D02*
X53661000Y82015000D01*
X53621000Y91460000D02*
X53621000Y81960000D01*
X53581000Y91514000D02*
X53581000Y81906000D01*
X53541000Y91567000D02*
X53541000Y81853000D01*
X53501000Y91619000D02*
X53501000Y81801000D01*
X53461000Y91670000D02*
X53461000Y81750000D01*
X53421000Y91721000D02*
X53421000Y81699000D01*
X53381000Y91770000D02*
X53381000Y81650000D01*
X53341000Y91819000D02*
X53341000Y81601000D01*
X53301000Y91867000D02*
X53301000Y81553000D01*
X53261000Y91915000D02*
X53261000Y81505000D01*
X53221000Y91961000D02*
X53221000Y81459000D01*
X53181000Y92007000D02*
X53181000Y81413000D01*
X53141000Y92053000D02*
X53141000Y81367000D01*
X53101000Y92097000D02*
X53101000Y81323000D01*
X53061000Y92141000D02*
X53061000Y81279000D01*
X53021000Y92184000D02*
X53021000Y81236000D01*
X52981000Y92227000D02*
X52981000Y81193000D01*
X52941000Y92269000D02*
X52941000Y81151000D01*
X52901000Y92310000D02*
X52901000Y81110000D01*
X52861000Y92351000D02*
X52861000Y81069000D01*
X52821000Y92391000D02*
X52821000Y81029000D01*
X52781000Y92431000D02*
X52781000Y80989000D01*
X52741000Y92470000D02*
X52741000Y80950000D01*
X52701000Y92509000D02*
X52701000Y80911000D01*
X52661000Y92547000D02*
X52661000Y80873000D01*
X52621000Y92585000D02*
X52621000Y80835000D01*
X52581000Y92622000D02*
X52581000Y80798000D01*
X52541000Y92658000D02*
X52541000Y80762000D01*
X52501000Y92694000D02*
X52501000Y80726000D01*
X52461000Y92730000D02*
X52461000Y80690000D01*
X52421000Y92765000D02*
X52421000Y80655000D01*
X52381000Y92800000D02*
X52381000Y80620000D01*
X52341000Y92834000D02*
X52341000Y80586000D01*
X52301000Y92868000D02*
X52301000Y80552000D01*
X52261000Y92901000D02*
X52261000Y80519000D01*
X52221000Y85330000D02*
X52221000Y80486000D01*
X52221000Y92934000D02*
X52221000Y88090000D01*
X52181000Y85330000D02*
X52181000Y80453000D01*
X52181000Y92967000D02*
X52181000Y88090000D01*
X52141000Y85330000D02*
X52141000Y80421000D01*
X52141000Y92999000D02*
X52141000Y88090000D01*
X52101000Y85330000D02*
X52101000Y80390000D01*
X52101000Y93030000D02*
X52101000Y88090000D01*
X52061000Y85330000D02*
X52061000Y80358000D01*
X52061000Y93062000D02*
X52061000Y88090000D01*
X52021000Y85330000D02*
X52021000Y80328000D01*
X52021000Y93092000D02*
X52021000Y88090000D01*
X51981000Y85330000D02*
X51981000Y80297000D01*
X51981000Y93123000D02*
X51981000Y88090000D01*
X51941000Y85330000D02*
X51941000Y80267000D01*
X51941000Y93153000D02*
X51941000Y88090000D01*
X51901000Y85330000D02*
X51901000Y80237000D01*
X51901000Y93183000D02*
X51901000Y88090000D01*
X51861000Y85330000D02*
X51861000Y80208000D01*
X51861000Y93212000D02*
X51861000Y88090000D01*
X51821000Y85330000D02*
X51821000Y80179000D01*
X51821000Y93241000D02*
X51821000Y88090000D01*
X51781000Y85330000D02*
X51781000Y80151000D01*
X51781000Y93269000D02*
X51781000Y88090000D01*
X51741000Y85330000D02*
X51741000Y80122000D01*
X51741000Y93298000D02*
X51741000Y88090000D01*
X51701000Y85330000D02*
X51701000Y80095000D01*
X51701000Y93325000D02*
X51701000Y88090000D01*
X51661000Y85330000D02*
X51661000Y80067000D01*
X51661000Y93353000D02*
X51661000Y88090000D01*
X51621000Y85330000D02*
X51621000Y80040000D01*
X51621000Y93380000D02*
X51621000Y88090000D01*
X51581000Y85330000D02*
X51581000Y80013000D01*
X51581000Y93407000D02*
X51581000Y88090000D01*
X51541000Y85330000D02*
X51541000Y79987000D01*
X51541000Y93433000D02*
X51541000Y88090000D01*
X51501000Y85330000D02*
X51501000Y79961000D01*
X51501000Y93459000D02*
X51501000Y88090000D01*
X51461000Y85330000D02*
X51461000Y79935000D01*
X51461000Y93485000D02*
X51461000Y88090000D01*
X51421000Y85330000D02*
X51421000Y79909000D01*
X51421000Y93511000D02*
X51421000Y88090000D01*
X51381000Y85330000D02*
X51381000Y79884000D01*
X51381000Y93536000D02*
X51381000Y88090000D01*
X51341000Y85330000D02*
X51341000Y79860000D01*
X51341000Y93560000D02*
X51341000Y88090000D01*
X51301000Y85330000D02*
X51301000Y79835000D01*
X51301000Y93585000D02*
X51301000Y88090000D01*
X51261000Y85330000D02*
X51261000Y79811000D01*
X51261000Y93609000D02*
X51261000Y88090000D01*
X51221000Y85330000D02*
X51221000Y79787000D01*
X51221000Y93633000D02*
X51221000Y88090000D01*
X51181000Y85330000D02*
X51181000Y79764000D01*
X51181000Y93656000D02*
X51181000Y88090000D01*
X51141000Y85330000D02*
X51141000Y79740000D01*
X51141000Y93680000D02*
X51141000Y88090000D01*
X51101000Y85330000D02*
X51101000Y79718000D01*
X51101000Y93702000D02*
X51101000Y88090000D01*
X51061000Y85330000D02*
X51061000Y79695000D01*
X51061000Y93725000D02*
X51061000Y88090000D01*
X51021000Y85330000D02*
X51021000Y79673000D01*
X51021000Y93747000D02*
X51021000Y88090000D01*
X50981000Y85330000D02*
X50981000Y79651000D01*
X50981000Y93769000D02*
X50981000Y88090000D01*
X50941000Y85330000D02*
X50941000Y79629000D01*
X50941000Y93791000D02*
X50941000Y88090000D01*
X50901000Y85330000D02*
X50901000Y79608000D01*
X50901000Y93812000D02*
X50901000Y88090000D01*
X50861000Y85330000D02*
X50861000Y79586000D01*
X50861000Y93834000D02*
X50861000Y88090000D01*
X50821000Y85330000D02*
X50821000Y79566000D01*
X50821000Y93854000D02*
X50821000Y88090000D01*
X50781000Y85330000D02*
X50781000Y79545000D01*
X50781000Y93875000D02*
X50781000Y88090000D01*
X50741000Y85330000D02*
X50741000Y79525000D01*
X50741000Y93895000D02*
X50741000Y88090000D01*
X50701000Y85330000D02*
X50701000Y79505000D01*
X50701000Y93915000D02*
X50701000Y88090000D01*
X50661000Y85330000D02*
X50661000Y79485000D01*
X50661000Y93935000D02*
X50661000Y88090000D01*
X50621000Y85330000D02*
X50621000Y79465000D01*
X50621000Y93955000D02*
X50621000Y88090000D01*
X50581000Y85330000D02*
X50581000Y79446000D01*
X50581000Y93974000D02*
X50581000Y88090000D01*
X50541000Y85330000D02*
X50541000Y79427000D01*
X50541000Y93993000D02*
X50541000Y88090000D01*
X50501000Y85330000D02*
X50501000Y79409000D01*
X50501000Y94011000D02*
X50501000Y88090000D01*
X50461000Y85330000D02*
X50461000Y79390000D01*
X50461000Y94030000D02*
X50461000Y88090000D01*
X50421000Y85330000D02*
X50421000Y79372000D01*
X50421000Y94048000D02*
X50421000Y88090000D01*
X50381000Y85330000D02*
X50381000Y79354000D01*
X50381000Y94066000D02*
X50381000Y88090000D01*
X50341000Y85330000D02*
X50341000Y79337000D01*
X50341000Y94083000D02*
X50341000Y88090000D01*
X50301000Y85330000D02*
X50301000Y79319000D01*
X50301000Y94101000D02*
X50301000Y88090000D01*
X50261000Y85330000D02*
X50261000Y79302000D01*
X50261000Y94118000D02*
X50261000Y88090000D01*
X50221000Y85330000D02*
X50221000Y79285000D01*
X50221000Y94135000D02*
X50221000Y88090000D01*
X50181000Y85330000D02*
X50181000Y79269000D01*
X50181000Y94151000D02*
X50181000Y88090000D01*
X50141000Y85330000D02*
X50141000Y79252000D01*
X50141000Y94168000D02*
X50141000Y88090000D01*
X50101000Y85330000D02*
X50101000Y79236000D01*
X50101000Y94184000D02*
X50101000Y88090000D01*
X50061000Y85330000D02*
X50061000Y79220000D01*
X50061000Y94200000D02*
X50061000Y88090000D01*
X50021000Y85330000D02*
X50021000Y79205000D01*
X50021000Y94215000D02*
X50021000Y88090000D01*
X49981000Y85330000D02*
X49981000Y79189000D01*
X49981000Y94231000D02*
X49981000Y88090000D01*
X49941000Y85330000D02*
X49941000Y79174000D01*
X49941000Y94246000D02*
X49941000Y88090000D01*
X49901000Y85330000D02*
X49901000Y79160000D01*
X49901000Y94260000D02*
X49901000Y88090000D01*
X49861000Y85330000D02*
X49861000Y79145000D01*
X49861000Y94275000D02*
X49861000Y88090000D01*
X49821000Y85330000D02*
X49821000Y79130000D01*
X49821000Y94290000D02*
X49821000Y88090000D01*
X49781000Y85330000D02*
X49781000Y79116000D01*
X49781000Y94304000D02*
X49781000Y88090000D01*
X49741000Y85330000D02*
X49741000Y79102000D01*
X49741000Y94318000D02*
X49741000Y88090000D01*
X49701000Y85330000D02*
X49701000Y79089000D01*
X49701000Y94331000D02*
X49701000Y88090000D01*
X49661000Y85330000D02*
X49661000Y79075000D01*
X49661000Y94345000D02*
X49661000Y88090000D01*
X49621000Y85330000D02*
X49621000Y79062000D01*
X49621000Y94358000D02*
X49621000Y88090000D01*
X49581000Y85330000D02*
X49581000Y79049000D01*
X49581000Y94371000D02*
X49581000Y88090000D01*
X49541000Y85330000D02*
X49541000Y79036000D01*
X49541000Y94384000D02*
X49541000Y88090000D01*
X49501000Y85330000D02*
X49501000Y79024000D01*
X49501000Y94396000D02*
X49501000Y88090000D01*
X49461000Y94409000D02*
X49461000Y79011000D01*
X49421000Y94421000D02*
X49421000Y78999000D01*
X49381000Y94433000D02*
X49381000Y78987000D01*
X49341000Y94444000D02*
X49341000Y78976000D01*
X49301000Y94456000D02*
X49301000Y78964000D01*
X49261000Y94467000D02*
X49261000Y78953000D01*
X49221000Y94478000D02*
X49221000Y78942000D01*
X49181000Y94489000D02*
X49181000Y78931000D01*
X49141000Y94499000D02*
X49141000Y78921000D01*
X49101000Y94509000D02*
X49101000Y78911000D01*
X49061000Y94519000D02*
X49061000Y78901000D01*
X49021000Y94529000D02*
X49021000Y78891000D01*
X48981000Y94539000D02*
X48981000Y78881000D01*
X48941000Y94548000D02*
X48941000Y78872000D01*
X48901000Y94558000D02*
X48901000Y78862000D01*
X48861000Y94567000D02*
X48861000Y78853000D01*
X48821000Y94576000D02*
X48821000Y78844000D01*
X48781000Y94584000D02*
X48781000Y78836000D01*
X48741000Y94593000D02*
X48741000Y78827000D01*
X48701000Y94601000D02*
X48701000Y78819000D01*
X48661000Y94609000D02*
X48661000Y78811000D01*
X48621000Y94616000D02*
X48621000Y78804000D01*
X48581000Y94624000D02*
X48581000Y78796000D01*
X48541000Y94631000D02*
X48541000Y78789000D01*
X48501000Y94638000D02*
X48501000Y78782000D01*
X48461000Y94645000D02*
X48461000Y78775000D01*
X48421000Y94652000D02*
X48421000Y78768000D01*
X48381000Y94659000D02*
X48381000Y78761000D01*
X48341000Y94665000D02*
X48341000Y78755000D01*
X48301000Y94671000D02*
X48301000Y78749000D01*
X48261000Y94677000D02*
X48261000Y78743000D01*
X48221000Y94683000D02*
X48221000Y78737000D01*
X48181000Y94688000D02*
X48181000Y78732000D01*
X48141000Y94693000D02*
X48141000Y78727000D01*
X48101000Y94698000D02*
X48101000Y78722000D01*
X48061000Y94703000D02*
X48061000Y78717000D01*
X48021000Y94708000D02*
X48021000Y78712000D01*
X47981000Y94712000D02*
X47981000Y78708000D01*
X47941000Y94717000D02*
X47941000Y78703000D01*
X47901000Y94721000D02*
X47901000Y78699000D01*
X47861000Y94725000D02*
X47861000Y78695000D01*
X47821000Y94728000D02*
X47821000Y78692000D01*
X47780000Y94732000D02*
X47780000Y78688000D01*
X47740000Y94735000D02*
X47740000Y78685000D01*
X47700000Y94738000D02*
X47700000Y78682000D01*
X47660000Y94741000D02*
X47660000Y78679000D01*
X47620000Y94744000D02*
X47620000Y78676000D01*
X47580000Y94746000D02*
X47580000Y78674000D01*
X47540000Y94749000D02*
X47540000Y78671000D01*
X47500000Y94751000D02*
X47500000Y78669000D01*
X47460000Y94752000D02*
X47460000Y78668000D01*
X47420000Y94754000D02*
X47420000Y78666000D01*
X47380000Y94756000D02*
X47380000Y78664000D01*
X47340000Y94757000D02*
X47340000Y78663000D01*
X47300000Y94758000D02*
X47300000Y78662000D01*
X47260000Y94759000D02*
X47260000Y78661000D01*
X47220000Y94760000D02*
X47220000Y78660000D01*
X47180000Y94760000D02*
X47180000Y78660000D01*
X47140000Y94760000D02*
X47140000Y78660000D01*
X47100000Y94761000D02*
X47100000Y78659000D01*
X55190000Y86710000D02*
G75*
G03X55190000Y86710000I-8090000J0D01*
G01*
X37410000Y86710000D02*
G75*
G03X37410000Y86710000I-8090000J0D01*
G01*
X29320000Y94761000D02*
X29320000Y78659000D01*
X29360000Y94760000D02*
X29360000Y78660000D01*
X29400000Y94760000D02*
X29400000Y78660000D01*
X29440000Y94760000D02*
X29440000Y78660000D01*
X29480000Y94759000D02*
X29480000Y78661000D01*
X29520000Y94758000D02*
X29520000Y78662000D01*
X29560000Y94757000D02*
X29560000Y78663000D01*
X29600000Y94756000D02*
X29600000Y78664000D01*
X29640000Y94754000D02*
X29640000Y78666000D01*
X29680000Y94752000D02*
X29680000Y78668000D01*
X29720000Y94751000D02*
X29720000Y78669000D01*
X29760000Y94749000D02*
X29760000Y78671000D01*
X29800000Y94746000D02*
X29800000Y78674000D01*
X29840000Y94744000D02*
X29840000Y78676000D01*
X29880000Y94741000D02*
X29880000Y78679000D01*
X29920000Y94738000D02*
X29920000Y78682000D01*
X29960000Y94735000D02*
X29960000Y78685000D01*
X30000000Y94732000D02*
X30000000Y78688000D01*
X30041000Y94728000D02*
X30041000Y78692000D01*
X30081000Y94725000D02*
X30081000Y78695000D01*
X30121000Y94721000D02*
X30121000Y78699000D01*
X30161000Y94717000D02*
X30161000Y78703000D01*
X30201000Y94712000D02*
X30201000Y78708000D01*
X30241000Y94708000D02*
X30241000Y78712000D01*
X30281000Y94703000D02*
X30281000Y78717000D01*
X30321000Y94698000D02*
X30321000Y78722000D01*
X30361000Y94693000D02*
X30361000Y78727000D01*
X30401000Y94688000D02*
X30401000Y78732000D01*
X30441000Y94683000D02*
X30441000Y78737000D01*
X30481000Y94677000D02*
X30481000Y78743000D01*
X30521000Y94671000D02*
X30521000Y78749000D01*
X30561000Y94665000D02*
X30561000Y78755000D01*
X30601000Y94659000D02*
X30601000Y78761000D01*
X30641000Y94652000D02*
X30641000Y78768000D01*
X30681000Y94645000D02*
X30681000Y78775000D01*
X30721000Y94638000D02*
X30721000Y78782000D01*
X30761000Y94631000D02*
X30761000Y78789000D01*
X30801000Y94624000D02*
X30801000Y78796000D01*
X30841000Y94616000D02*
X30841000Y78804000D01*
X30881000Y94609000D02*
X30881000Y78811000D01*
X30921000Y94601000D02*
X30921000Y78819000D01*
X30961000Y94593000D02*
X30961000Y78827000D01*
X31001000Y94584000D02*
X31001000Y78836000D01*
X31041000Y94576000D02*
X31041000Y78844000D01*
X31081000Y94567000D02*
X31081000Y78853000D01*
X31121000Y94558000D02*
X31121000Y78862000D01*
X31161000Y94548000D02*
X31161000Y78872000D01*
X31201000Y94539000D02*
X31201000Y78881000D01*
X31241000Y94529000D02*
X31241000Y78891000D01*
X31281000Y94519000D02*
X31281000Y78901000D01*
X31321000Y94509000D02*
X31321000Y78911000D01*
X31361000Y94499000D02*
X31361000Y78921000D01*
X31401000Y94489000D02*
X31401000Y78931000D01*
X31441000Y94478000D02*
X31441000Y78942000D01*
X31481000Y94467000D02*
X31481000Y78953000D01*
X31521000Y94456000D02*
X31521000Y78964000D01*
X31561000Y94444000D02*
X31561000Y78976000D01*
X31601000Y94433000D02*
X31601000Y78987000D01*
X31641000Y94421000D02*
X31641000Y78999000D01*
X31681000Y94409000D02*
X31681000Y79011000D01*
X31721000Y94396000D02*
X31721000Y88090000D01*
X31721000Y85330000D02*
X31721000Y79024000D01*
X31761000Y94384000D02*
X31761000Y88090000D01*
X31761000Y85330000D02*
X31761000Y79036000D01*
X31801000Y94371000D02*
X31801000Y88090000D01*
X31801000Y85330000D02*
X31801000Y79049000D01*
X31841000Y94358000D02*
X31841000Y88090000D01*
X31841000Y85330000D02*
X31841000Y79062000D01*
X31881000Y94345000D02*
X31881000Y88090000D01*
X31881000Y85330000D02*
X31881000Y79075000D01*
X31921000Y94331000D02*
X31921000Y88090000D01*
X31921000Y85330000D02*
X31921000Y79089000D01*
X31961000Y94318000D02*
X31961000Y88090000D01*
X31961000Y85330000D02*
X31961000Y79102000D01*
X32001000Y94304000D02*
X32001000Y88090000D01*
X32001000Y85330000D02*
X32001000Y79116000D01*
X32041000Y94290000D02*
X32041000Y88090000D01*
X32041000Y85330000D02*
X32041000Y79130000D01*
X32081000Y94275000D02*
X32081000Y88090000D01*
X32081000Y85330000D02*
X32081000Y79145000D01*
X32121000Y94260000D02*
X32121000Y88090000D01*
X32121000Y85330000D02*
X32121000Y79160000D01*
X32161000Y94246000D02*
X32161000Y88090000D01*
X32161000Y85330000D02*
X32161000Y79174000D01*
X32201000Y94231000D02*
X32201000Y88090000D01*
X32201000Y85330000D02*
X32201000Y79189000D01*
X32241000Y94215000D02*
X32241000Y88090000D01*
X32241000Y85330000D02*
X32241000Y79205000D01*
X32281000Y94200000D02*
X32281000Y88090000D01*
X32281000Y85330000D02*
X32281000Y79220000D01*
X32321000Y94184000D02*
X32321000Y88090000D01*
X32321000Y85330000D02*
X32321000Y79236000D01*
X32361000Y94168000D02*
X32361000Y88090000D01*
X32361000Y85330000D02*
X32361000Y79252000D01*
X32401000Y94151000D02*
X32401000Y88090000D01*
X32401000Y85330000D02*
X32401000Y79269000D01*
X32441000Y94135000D02*
X32441000Y88090000D01*
X32441000Y85330000D02*
X32441000Y79285000D01*
X32481000Y94118000D02*
X32481000Y88090000D01*
X32481000Y85330000D02*
X32481000Y79302000D01*
X32521000Y94101000D02*
X32521000Y88090000D01*
X32521000Y85330000D02*
X32521000Y79319000D01*
X32561000Y94083000D02*
X32561000Y88090000D01*
X32561000Y85330000D02*
X32561000Y79337000D01*
X32601000Y94066000D02*
X32601000Y88090000D01*
X32601000Y85330000D02*
X32601000Y79354000D01*
X32641000Y94048000D02*
X32641000Y88090000D01*
X32641000Y85330000D02*
X32641000Y79372000D01*
X32681000Y94030000D02*
X32681000Y88090000D01*
X32681000Y85330000D02*
X32681000Y79390000D01*
X32721000Y94011000D02*
X32721000Y88090000D01*
X32721000Y85330000D02*
X32721000Y79409000D01*
X32761000Y93993000D02*
X32761000Y88090000D01*
X32761000Y85330000D02*
X32761000Y79427000D01*
X32801000Y93974000D02*
X32801000Y88090000D01*
X32801000Y85330000D02*
X32801000Y79446000D01*
X32841000Y93955000D02*
X32841000Y88090000D01*
X32841000Y85330000D02*
X32841000Y79465000D01*
X32881000Y93935000D02*
X32881000Y88090000D01*
X32881000Y85330000D02*
X32881000Y79485000D01*
X32921000Y93915000D02*
X32921000Y88090000D01*
X32921000Y85330000D02*
X32921000Y79505000D01*
X32961000Y93895000D02*
X32961000Y88090000D01*
X32961000Y85330000D02*
X32961000Y79525000D01*
X33001000Y93875000D02*
X33001000Y88090000D01*
X33001000Y85330000D02*
X33001000Y79545000D01*
X33041000Y93854000D02*
X33041000Y88090000D01*
X33041000Y85330000D02*
X33041000Y79566000D01*
X33081000Y93834000D02*
X33081000Y88090000D01*
X33081000Y85330000D02*
X33081000Y79586000D01*
X33121000Y93812000D02*
X33121000Y88090000D01*
X33121000Y85330000D02*
X33121000Y79608000D01*
X33161000Y93791000D02*
X33161000Y88090000D01*
X33161000Y85330000D02*
X33161000Y79629000D01*
X33201000Y93769000D02*
X33201000Y88090000D01*
X33201000Y85330000D02*
X33201000Y79651000D01*
X33241000Y93747000D02*
X33241000Y88090000D01*
X33241000Y85330000D02*
X33241000Y79673000D01*
X33281000Y93725000D02*
X33281000Y88090000D01*
X33281000Y85330000D02*
X33281000Y79695000D01*
X33321000Y93702000D02*
X33321000Y88090000D01*
X33321000Y85330000D02*
X33321000Y79718000D01*
X33361000Y93680000D02*
X33361000Y88090000D01*
X33361000Y85330000D02*
X33361000Y79740000D01*
X33401000Y93656000D02*
X33401000Y88090000D01*
X33401000Y85330000D02*
X33401000Y79764000D01*
X33441000Y93633000D02*
X33441000Y88090000D01*
X33441000Y85330000D02*
X33441000Y79787000D01*
X33481000Y93609000D02*
X33481000Y88090000D01*
X33481000Y85330000D02*
X33481000Y79811000D01*
X33521000Y93585000D02*
X33521000Y88090000D01*
X33521000Y85330000D02*
X33521000Y79835000D01*
X33561000Y93560000D02*
X33561000Y88090000D01*
X33561000Y85330000D02*
X33561000Y79860000D01*
X33601000Y93536000D02*
X33601000Y88090000D01*
X33601000Y85330000D02*
X33601000Y79884000D01*
X33641000Y93511000D02*
X33641000Y88090000D01*
X33641000Y85330000D02*
X33641000Y79909000D01*
X33681000Y93485000D02*
X33681000Y88090000D01*
X33681000Y85330000D02*
X33681000Y79935000D01*
X33721000Y93459000D02*
X33721000Y88090000D01*
X33721000Y85330000D02*
X33721000Y79961000D01*
X33761000Y93433000D02*
X33761000Y88090000D01*
X33761000Y85330000D02*
X33761000Y79987000D01*
X33801000Y93407000D02*
X33801000Y88090000D01*
X33801000Y85330000D02*
X33801000Y80013000D01*
X33841000Y93380000D02*
X33841000Y88090000D01*
X33841000Y85330000D02*
X33841000Y80040000D01*
X33881000Y93353000D02*
X33881000Y88090000D01*
X33881000Y85330000D02*
X33881000Y80067000D01*
X33921000Y93325000D02*
X33921000Y88090000D01*
X33921000Y85330000D02*
X33921000Y80095000D01*
X33961000Y93298000D02*
X33961000Y88090000D01*
X33961000Y85330000D02*
X33961000Y80122000D01*
X34001000Y93269000D02*
X34001000Y88090000D01*
X34001000Y85330000D02*
X34001000Y80151000D01*
X34041000Y93241000D02*
X34041000Y88090000D01*
X34041000Y85330000D02*
X34041000Y80179000D01*
X34081000Y93212000D02*
X34081000Y88090000D01*
X34081000Y85330000D02*
X34081000Y80208000D01*
X34121000Y93183000D02*
X34121000Y88090000D01*
X34121000Y85330000D02*
X34121000Y80237000D01*
X34161000Y93153000D02*
X34161000Y88090000D01*
X34161000Y85330000D02*
X34161000Y80267000D01*
X34201000Y93123000D02*
X34201000Y88090000D01*
X34201000Y85330000D02*
X34201000Y80297000D01*
X34241000Y93092000D02*
X34241000Y88090000D01*
X34241000Y85330000D02*
X34241000Y80328000D01*
X34281000Y93062000D02*
X34281000Y88090000D01*
X34281000Y85330000D02*
X34281000Y80358000D01*
X34321000Y93030000D02*
X34321000Y88090000D01*
X34321000Y85330000D02*
X34321000Y80390000D01*
X34361000Y92999000D02*
X34361000Y88090000D01*
X34361000Y85330000D02*
X34361000Y80421000D01*
X34401000Y92967000D02*
X34401000Y88090000D01*
X34401000Y85330000D02*
X34401000Y80453000D01*
X34441000Y92934000D02*
X34441000Y88090000D01*
X34441000Y85330000D02*
X34441000Y80486000D01*
X34481000Y92901000D02*
X34481000Y80519000D01*
X34521000Y92868000D02*
X34521000Y80552000D01*
X34561000Y92834000D02*
X34561000Y80586000D01*
X34601000Y92800000D02*
X34601000Y80620000D01*
X34641000Y92765000D02*
X34641000Y80655000D01*
X34681000Y92730000D02*
X34681000Y80690000D01*
X34721000Y92694000D02*
X34721000Y80726000D01*
X34761000Y92658000D02*
X34761000Y80762000D01*
X34801000Y92622000D02*
X34801000Y80798000D01*
X34841000Y92585000D02*
X34841000Y80835000D01*
X34881000Y92547000D02*
X34881000Y80873000D01*
X34921000Y92509000D02*
X34921000Y80911000D01*
X34961000Y92470000D02*
X34961000Y80950000D01*
X35001000Y92431000D02*
X35001000Y80989000D01*
X35041000Y92391000D02*
X35041000Y81029000D01*
X35081000Y92351000D02*
X35081000Y81069000D01*
X35121000Y92310000D02*
X35121000Y81110000D01*
X35161000Y92269000D02*
X35161000Y81151000D01*
X35201000Y92227000D02*
X35201000Y81193000D01*
X35241000Y92184000D02*
X35241000Y81236000D01*
X35281000Y92141000D02*
X35281000Y81279000D01*
X35321000Y92097000D02*
X35321000Y81323000D01*
X35361000Y92053000D02*
X35361000Y81367000D01*
X35401000Y92007000D02*
X35401000Y81413000D01*
X35441000Y91961000D02*
X35441000Y81459000D01*
X35481000Y91915000D02*
X35481000Y81505000D01*
X35521000Y91867000D02*
X35521000Y81553000D01*
X35561000Y91819000D02*
X35561000Y81601000D01*
X35601000Y91770000D02*
X35601000Y81650000D01*
X35641000Y91721000D02*
X35641000Y81699000D01*
X35681000Y91670000D02*
X35681000Y81750000D01*
X35721000Y91619000D02*
X35721000Y81801000D01*
X35761000Y91567000D02*
X35761000Y81853000D01*
X35801000Y91514000D02*
X35801000Y81906000D01*
X35841000Y91460000D02*
X35841000Y81960000D01*
X35881000Y91405000D02*
X35881000Y82015000D01*
X35921000Y91349000D02*
X35921000Y82071000D01*
X35961000Y91292000D02*
X35961000Y82128000D01*
X36001000Y91234000D02*
X36001000Y82186000D01*
X36041000Y91175000D02*
X36041000Y82245000D01*
X36081000Y91115000D02*
X36081000Y82305000D01*
X36121000Y91053000D02*
X36121000Y82367000D01*
X36161000Y90991000D02*
X36161000Y82429000D01*
X36201000Y90927000D02*
X36201000Y82493000D01*
X36241000Y90861000D02*
X36241000Y82559000D01*
X36281000Y90794000D02*
X36281000Y82626000D01*
X36321000Y90726000D02*
X36321000Y82694000D01*
X36361000Y90656000D02*
X36361000Y82764000D01*
X36401000Y90585000D02*
X36401000Y82835000D01*
X36441000Y90512000D02*
X36441000Y82908000D01*
X36481000Y90436000D02*
X36481000Y82984000D01*
X36521000Y90359000D02*
X36521000Y83061000D01*
X36561000Y90280000D02*
X36561000Y83140000D01*
X36601000Y90199000D02*
X36601000Y83221000D01*
X36641000Y90115000D02*
X36641000Y83305000D01*
X36681000Y90029000D02*
X36681000Y83391000D01*
X36721000Y89940000D02*
X36721000Y83480000D01*
X36761000Y89848000D02*
X36761000Y83572000D01*
X36801000Y89752000D02*
X36801000Y83668000D01*
X36841000Y89653000D02*
X36841000Y83767000D01*
X36881000Y89551000D02*
X36881000Y83869000D01*
X36921000Y89443000D02*
X36921000Y83977000D01*
X36961000Y89331000D02*
X36961000Y84089000D01*
X37001000Y89213000D02*
X37001000Y84207000D01*
X37041000Y89089000D02*
X37041000Y84331000D01*
X37081000Y88958000D02*
X37081000Y84462000D01*
X37121000Y88817000D02*
X37121000Y84603000D01*
X37161000Y88666000D02*
X37161000Y84754000D01*
X37201000Y88502000D02*
X37201000Y84918000D01*
X37241000Y88320000D02*
X37241000Y85100000D01*
X37281000Y88115000D02*
X37281000Y85305000D01*
X37321000Y87874000D02*
X37321000Y85546000D01*
X37361000Y87569000D02*
X37361000Y85851000D01*
X37401000Y87073000D02*
X37401000Y86347000D01*
X22370000Y86710000D02*
X24170000Y86710000D01*
X23270000Y87610000D02*
X23270000Y85810000D01*
X29900000Y17730000D02*
X30900000Y17730000D01*
X30900000Y16370000D02*
X29900000Y16370000D01*
X25120000Y39900000D02*
X25120000Y40900000D01*
X26480000Y40900000D02*
X26480000Y39900000D01*
X28930000Y40925000D02*
X28930000Y39925000D01*
X27570000Y39925000D02*
X27570000Y40925000D01*
X32320000Y39950000D02*
X32320000Y40950000D01*
X33680000Y40950000D02*
X33680000Y39950000D01*
X30070000Y39975000D02*
X30070000Y40975000D01*
X31430000Y40975000D02*
X31430000Y39975000D01*
X41880000Y40600000D02*
X41880000Y39600000D01*
X40520000Y39600000D02*
X40520000Y40600000D01*
X29950000Y15330000D02*
X30950000Y15330000D01*
X30950000Y13970000D02*
X29950000Y13970000D01*
X9750000Y16370000D02*
X8750000Y16370000D01*
X8750000Y17730000D02*
X9750000Y17730000D01*
X8750000Y14930000D02*
X9750000Y14930000D01*
X9750000Y13570000D02*
X8750000Y13570000D01*
X41750000Y20370000D02*
X40750000Y20370000D01*
X40750000Y21730000D02*
X41750000Y21730000D01*
X54250000Y40370000D02*
X53250000Y40370000D01*
X53250000Y41730000D02*
X54250000Y41730000D01*
D17*
X36400000Y38118750D02*
X41600000Y38118750D01*
X41600000Y38118750D02*
X41600000Y29318750D01*
X41600000Y29318750D02*
X36400000Y29318750D01*
X36400000Y29318750D02*
X36400000Y38118750D01*
X37524264Y37218750D02*
G75*
G03X37524264Y37218750I-424264J0D01*
G01*
X37382843Y37218750D02*
G75*
G03X37382843Y37218750I-282843J0D01*
G01*
D12*
X11600000Y53055000D02*
X11600000Y45435000D01*
X11092000Y45435000D02*
X11092000Y53055000D01*
X11130000Y45445000D02*
X24554000Y45435000D01*
X24554000Y45435000D02*
X24554000Y53055000D01*
X24554000Y53055000D02*
X11130000Y53045000D01*
X21506000Y53055000D02*
X21506000Y45435000D01*
X21506000Y45435000D02*
X22014000Y45435000D01*
X22014000Y45435000D02*
X22014000Y53055000D01*
X13830000Y53055000D02*
X13830000Y45435000D01*
D17*
X17530000Y42645000D02*
X17530000Y55945000D01*
X6530000Y55945000D02*
X27180000Y55945000D01*
X27180000Y42645000D02*
X6530000Y42645000D01*
X6530000Y42645000D02*
X6530000Y55945000D01*
X27180000Y42645000D02*
X27180000Y55945000D01*
X27180000Y57250000D02*
X27180000Y70550000D01*
X6530000Y57250000D02*
X6530000Y70550000D01*
X27180000Y57250000D02*
X6530000Y57250000D01*
X6530000Y70550000D02*
X27180000Y70550000D01*
X17530000Y57250000D02*
X17530000Y70550000D01*
D12*
X13830000Y67660000D02*
X13830000Y60040000D01*
X22014000Y60040000D02*
X22014000Y67660000D01*
X21506000Y60040000D02*
X22014000Y60040000D01*
X21506000Y67660000D02*
X21506000Y60040000D01*
X24554000Y67660000D02*
X11130000Y67650000D01*
X24554000Y60040000D02*
X24554000Y67660000D01*
X11130000Y60050000D02*
X24554000Y60040000D01*
X11092000Y60040000D02*
X11092000Y67660000D01*
X11600000Y67660000D02*
X11600000Y60040000D01*
D17*
X50040000Y42645000D02*
X50040000Y55945000D01*
X29390000Y42645000D02*
X29390000Y55945000D01*
X50040000Y42645000D02*
X29390000Y42645000D01*
X29390000Y55945000D02*
X50040000Y55945000D01*
X40390000Y42645000D02*
X40390000Y55945000D01*
D12*
X36690000Y53055000D02*
X36690000Y45435000D01*
X44874000Y45435000D02*
X44874000Y53055000D01*
X44366000Y45435000D02*
X44874000Y45435000D01*
X44366000Y53055000D02*
X44366000Y45435000D01*
X47414000Y53055000D02*
X33990000Y53045000D01*
X47414000Y45435000D02*
X47414000Y53055000D01*
X33990000Y45445000D02*
X47414000Y45435000D01*
X33952000Y45435000D02*
X33952000Y53055000D01*
X34460000Y53055000D02*
X34460000Y45435000D01*
X34460000Y67660000D02*
X34460000Y60040000D01*
X33952000Y60040000D02*
X33952000Y67660000D01*
X33990000Y60050000D02*
X47414000Y60040000D01*
X47414000Y60040000D02*
X47414000Y67660000D01*
X47414000Y67660000D02*
X33990000Y67650000D01*
X44366000Y67660000D02*
X44366000Y60040000D01*
X44366000Y60040000D02*
X44874000Y60040000D01*
X44874000Y60040000D02*
X44874000Y67660000D01*
X36690000Y67660000D02*
X36690000Y60040000D01*
D17*
X40390000Y57250000D02*
X40390000Y70550000D01*
X29390000Y70550000D02*
X50040000Y70550000D01*
X50040000Y57250000D02*
X29390000Y57250000D01*
X29390000Y57250000D02*
X29390000Y70550000D01*
X50040000Y57250000D02*
X50040000Y70550000D01*
D12*
X47390000Y26490000D02*
X52470000Y26490000D01*
X52470000Y26490000D02*
X52470000Y31570000D01*
X52470000Y31570000D02*
X47390000Y31570000D01*
X47390000Y31570000D02*
X47390000Y26490000D01*
X49930000Y26490000D02*
X49930000Y31570000D01*
D18*
G36*
X56370324Y105696789D02*
X56466757Y105616764D01*
X56637850Y105503423D01*
X56756234Y105469333D01*
X56863227Y105391451D01*
X56952641Y105184537D01*
X56961234Y105151833D01*
X57033308Y104938707D01*
X57143483Y104840833D01*
X57314833Y104807802D01*
X57525800Y104737814D01*
X57591970Y104593252D01*
X57511414Y104390436D01*
X57382182Y104237818D01*
X57253821Y104129066D01*
X57107411Y104066291D01*
X56893577Y104037328D01*
X56562944Y104030016D01*
X56538567Y104030000D01*
X55902771Y104030000D01*
X55688052Y103714012D01*
X55530575Y103445907D01*
X55475462Y103263310D01*
X55527709Y103184947D01*
X55546454Y103183333D01*
X55649085Y103128554D01*
X55808649Y102993441D01*
X55842788Y102960121D01*
X55983949Y102840784D01*
X56061108Y102817996D01*
X56066000Y102833121D01*
X56134386Y102918403D01*
X56193000Y102929333D01*
X56306714Y102978004D01*
X56293944Y103071918D01*
X56218447Y103118406D01*
X56185248Y103166162D01*
X56255377Y103205398D01*
X56420531Y103192094D01*
X56626076Y103075876D01*
X56793241Y102965143D01*
X56877948Y102971831D01*
X56896063Y103006524D01*
X56982184Y103150576D01*
X57092583Y103278583D01*
X57211755Y103422760D01*
X57251333Y103510631D01*
X57325047Y103541510D01*
X57510866Y103533587D01*
X57610434Y103518263D01*
X57842248Y103484794D01*
X57996832Y103478924D01*
X58021949Y103484991D01*
X58084414Y103435862D01*
X58181216Y103274177D01*
X58227201Y103178452D01*
X58317525Y102962020D01*
X58331553Y102822489D01*
X58263436Y102682777D01*
X58180797Y102566926D01*
X57875791Y102228135D01*
X57525227Y102009327D01*
X57378391Y101951537D01*
X57196054Y101848869D01*
X57160987Y101739871D01*
X57184816Y101592447D01*
X57208544Y101338172D01*
X57222887Y101109000D01*
X57259308Y100456816D01*
X57297703Y99956570D01*
X57341192Y99590867D01*
X57392895Y99342316D01*
X57455932Y99193524D01*
X57533423Y99127098D01*
X57579794Y99119333D01*
X57777032Y99053687D01*
X57908892Y98898201D01*
X57928667Y98806066D01*
X57860769Y98707991D01*
X57804645Y98696000D01*
X57667506Y98623364D01*
X57552706Y98450508D01*
X57050000Y97950000D01*
X57554471Y98127353D01*
X57687925Y97905104D01*
X57884755Y97611242D01*
X58124022Y97276281D01*
X58384784Y96930739D01*
X58562854Y96706333D01*
X58745416Y96477920D01*
X58910360Y96265911D01*
X58920433Y96252648D01*
X59075933Y96054712D01*
X59266846Y95820861D01*
X59304500Y95775804D01*
X59447969Y95593253D01*
X59529935Y95466156D01*
X59537333Y95443603D01*
X59568974Y95337979D01*
X59647866Y95142081D01*
X59677774Y95073780D01*
X59928867Y94397372D01*
X60050745Y93759200D01*
X60053280Y93100917D01*
X60038290Y92942955D01*
X59997399Y92600788D01*
X59958196Y92318183D01*
X59927304Y92141464D01*
X59919668Y92113166D01*
X59802702Y92032843D01*
X59542757Y92021887D01*
X59150829Y92079201D01*
X58637912Y92203684D01*
X58436667Y92261484D01*
X57982155Y92401452D01*
X57621945Y92528157D01*
X57286120Y92669641D01*
X56904763Y92853946D01*
X56701000Y92957643D01*
X56131323Y93286544D01*
X55509230Y93707551D01*
X55267935Y93891898D01*
X56905043Y93891898D01*
X56913194Y93874451D01*
X57011993Y93979611D01*
X57135564Y94124000D01*
X57380206Y94397676D01*
X57674015Y94704554D01*
X57875676Y94903346D01*
X57995778Y95004651D01*
X58879803Y95004651D01*
X58883597Y94860066D01*
X58928736Y94604715D01*
X59010766Y94264067D01*
X59119537Y93882248D01*
X59205752Y93562079D01*
X59265089Y93271083D01*
X59283333Y93099081D01*
X59299305Y92924514D01*
X59336603Y92854000D01*
X59355803Y92930489D01*
X59353378Y93130113D01*
X59332444Y93383166D01*
X59278877Y93757851D01*
X59201825Y94149425D01*
X59112241Y94514410D01*
X59021081Y94809329D01*
X58939298Y94990704D01*
X58921808Y95013000D01*
X58879803Y95004651D01*
X57995778Y95004651D01*
X58131000Y95118708D01*
X58382016Y95285152D01*
X58555735Y95360550D01*
X58703558Y95409198D01*
X58722786Y95451345D01*
X58712571Y95455847D01*
X58488660Y95450986D01*
X58203168Y95322962D01*
X57882325Y95093398D01*
X57552363Y94783919D01*
X57239512Y94416147D01*
X56978444Y94026295D01*
X56905043Y93891898D01*
X55267935Y93891898D01*
X54889075Y94181343D01*
X54325212Y94668596D01*
X54288000Y94703371D01*
X53977731Y94990943D01*
X53765826Y95173675D01*
X53630358Y95265905D01*
X53549401Y95281974D01*
X53501026Y95236221D01*
X53494099Y95222552D01*
X53351293Y95048335D01*
X53176924Y95033458D01*
X53051913Y95118182D01*
X52985099Y95211652D01*
X52949491Y95350044D01*
X52941453Y95571221D01*
X52957348Y95913046D01*
X52964840Y96024752D01*
X52985374Y96391263D01*
X52984774Y96494666D01*
X54923000Y96494666D01*
X54949814Y96436013D01*
X55089848Y96411172D01*
X55290910Y96417731D01*
X55500806Y96453281D01*
X55667343Y96515412D01*
X55689851Y96530077D01*
X55798218Y96650259D01*
X55767713Y96721101D01*
X55626844Y96718927D01*
X55512040Y96677753D01*
X55291052Y96602857D01*
X55135679Y96579333D01*
X54975261Y96539534D01*
X54923000Y96494666D01*
X52984774Y96494666D01*
X52984145Y96602828D01*
X52960374Y96672524D01*
X52928215Y96641125D01*
X52876984Y96440916D01*
X52890312Y96302458D01*
X52917864Y96183392D01*
X52886387Y96186713D01*
X52772363Y96316718D01*
X52765150Y96325333D01*
X52595820Y96532947D01*
X52400192Y96779763D01*
X52358509Y96833333D01*
X52175744Y97053899D01*
X56108215Y97053899D01*
X56136280Y96857077D01*
X56192977Y96748320D01*
X56262445Y96751130D01*
X56328824Y96889009D01*
X56349900Y96981500D01*
X56420562Y97385181D01*
X56454465Y97651462D01*
X56453477Y97807810D01*
X56419466Y97881694D01*
X56411512Y97887436D01*
X56311685Y97867700D01*
X56217670Y97700776D01*
X56140528Y97408724D01*
X56124642Y97315284D01*
X56108215Y97053899D01*
X52175744Y97053899D01*
X52163394Y97068803D01*
X51918264Y97343285D01*
X51780307Y97489500D01*
X51431614Y97849333D01*
X50135844Y97849333D01*
X49862422Y98245328D01*
X49658983Y98527524D01*
X49448555Y98800634D01*
X49356166Y98912672D01*
X49211406Y99097662D01*
X49129905Y99233399D01*
X49123333Y99258641D01*
X49079198Y99363654D01*
X49073948Y99372690D01*
X50906879Y99372690D01*
X50927904Y99328846D01*
X50975200Y99267500D01*
X51098780Y99135870D01*
X51153943Y99136443D01*
X51155333Y99151300D01*
X51097474Y99221974D01*
X51007167Y99299466D01*
X50906879Y99372690D01*
X49073948Y99372690D01*
X48964551Y99560944D01*
X48896014Y99666960D01*
X50454355Y99666960D01*
X50560425Y99557341D01*
X50574453Y99545483D01*
X50747912Y99410803D01*
X50807328Y99387877D01*
X50747313Y99476837D01*
X50689667Y99542666D01*
X50548094Y99669041D01*
X50455498Y99712000D01*
X50454355Y99666960D01*
X48896014Y99666960D01*
X48833796Y99763199D01*
X48649163Y100065429D01*
X49986054Y100065429D01*
X50103047Y99929714D01*
X50245344Y99810454D01*
X50304881Y99826009D01*
X50308667Y99860967D01*
X50245197Y99950697D01*
X50227324Y99964258D01*
X50704337Y99964258D01*
X50724231Y99913313D01*
X50834639Y99785424D01*
X50999429Y99616051D01*
X51182464Y99440648D01*
X51347611Y99294674D01*
X51458734Y99213585D01*
X51475812Y99207253D01*
X51461560Y99266957D01*
X51414221Y99364201D01*
X51288576Y99530312D01*
X51099014Y99714294D01*
X50897950Y99871841D01*
X50737801Y99958645D01*
X50704337Y99964258D01*
X50227324Y99964258D01*
X50139333Y100031018D01*
X49999034Y100101756D01*
X49986054Y100065429D01*
X48649163Y100065429D01*
X48620816Y100111830D01*
X48541118Y100306216D01*
X50224000Y100306216D01*
X50288424Y100204601D01*
X50372167Y100142115D01*
X50511051Y100066292D01*
X50541002Y100083707D01*
X50511130Y100171120D01*
X50486958Y100203135D01*
X51197667Y100203135D01*
X51488997Y99959074D01*
X51674302Y99813342D01*
X51788193Y99768515D01*
X51885048Y99812139D01*
X51936710Y99856536D01*
X52033013Y99959261D01*
X51850000Y99950000D01*
X51850000Y100050000D01*
X51750000Y100150000D01*
X51650000Y100250000D01*
X51450000Y100350000D01*
X51250000Y100250000D01*
X51197667Y100203135D01*
X50486958Y100203135D01*
X50427186Y100282297D01*
X50313087Y100347622D01*
X50232552Y100337115D01*
X50224000Y100306216D01*
X48541118Y100306216D01*
X48521303Y100354543D01*
X48050000Y100950000D01*
X48150000Y100950000D01*
X48550000Y100650000D01*
X49018909Y100474947D01*
X49347792Y100446722D01*
X49435450Y100439096D01*
X49776280Y100412179D01*
X49985552Y100408436D01*
X50100156Y100433755D01*
X50156983Y100494024D01*
X50181508Y100558166D01*
X50274224Y100701662D01*
X50284524Y100711873D01*
X50687651Y100711873D01*
X50701514Y100623673D01*
X50780381Y100522381D01*
X50906285Y100431470D01*
X50969873Y100429651D01*
X50956009Y100517851D01*
X50877143Y100619143D01*
X50751238Y100710054D01*
X50687651Y100711873D01*
X50284524Y100711873D01*
X50446691Y100872629D01*
X50549380Y100953772D01*
X50926514Y100953772D01*
X50964246Y100885806D01*
X51025036Y100816310D01*
X51166587Y100672883D01*
X51215770Y100662195D01*
X51188463Y100763787D01*
X51074032Y100898664D01*
X51005367Y100936764D01*
X50926514Y100953772D01*
X50549380Y100953772D01*
X50652592Y101035327D01*
X50845614Y101154017D01*
X50979441Y101192959D01*
X50996577Y101187130D01*
X51044170Y101225908D01*
X51150000Y101350000D01*
X51150000Y101650000D01*
X51050000Y101950000D01*
X50960527Y102333225D01*
X50950948Y102379000D01*
X50898683Y102664169D01*
X50750000Y102950000D01*
X50550000Y103450000D01*
X50650000Y103550000D01*
X51159207Y103126372D01*
X51421164Y103019561D01*
X51774412Y102790292D01*
X52226677Y102435147D01*
X52340667Y102339413D01*
X52649902Y102085983D01*
X52979970Y101828955D01*
X53210926Y101658826D01*
X53452784Y101471243D01*
X53596834Y101294840D01*
X53672988Y101072097D01*
X53711156Y100745494D01*
X53715099Y100689267D01*
X53736725Y100511506D01*
X53794692Y100381846D01*
X53921932Y100262834D01*
X54151376Y100117014D01*
X54288000Y100037698D01*
X54646929Y99840564D01*
X54877915Y99738065D01*
X54991725Y99727716D01*
X54999129Y99807029D01*
X54965333Y99881333D01*
X54922073Y100085989D01*
X54985656Y100264670D01*
X55125756Y100363070D01*
X55233270Y100361156D01*
X55351922Y100352258D01*
X55343400Y100441369D01*
X55335397Y100459011D01*
X55296772Y100600533D01*
X55279395Y100831682D01*
X55282664Y101178387D01*
X55305979Y101666573D01*
X55307019Y101684305D01*
X55308007Y101945506D01*
X55252448Y102130908D01*
X55110065Y102319489D01*
X55031144Y102403972D01*
X54729011Y102754766D01*
X54569740Y103044382D01*
X54552876Y103301823D01*
X54677960Y103556093D01*
X54944535Y103836195D01*
X55007667Y103891731D01*
X55235521Y104099723D01*
X55401470Y104272709D01*
X55472686Y104376170D01*
X55473333Y104381358D01*
X55425018Y104503901D01*
X55308342Y104678682D01*
X55304000Y104684230D01*
X55177623Y104928487D01*
X55138582Y105192311D01*
X55180334Y105429127D01*
X55296339Y105592359D01*
X55438058Y105638666D01*
X55538772Y105568082D01*
X55581099Y105474812D01*
X55677035Y105364706D01*
X55845828Y105366101D01*
X56041449Y105469917D01*
X56162370Y105589478D01*
X56276081Y105707886D01*
X56370324Y105696789D01*
X56370324Y105696789D01*
G37*
X56370324Y105696789D02*
X56466757Y105616764D01*
X56637850Y105503423D01*
X56756234Y105469333D01*
X56863227Y105391451D01*
X56952641Y105184537D01*
X56961234Y105151833D01*
X57033308Y104938707D01*
X57143483Y104840833D01*
X57314833Y104807802D01*
X57525800Y104737814D01*
X57591970Y104593252D01*
X57511414Y104390436D01*
X57382182Y104237818D01*
X57253821Y104129066D01*
X57107411Y104066291D01*
X56893577Y104037328D01*
X56562944Y104030016D01*
X56538567Y104030000D01*
X55902771Y104030000D01*
X55688052Y103714012D01*
X55530575Y103445907D01*
X55475462Y103263310D01*
X55527709Y103184947D01*
X55546454Y103183333D01*
X55649085Y103128554D01*
X55808649Y102993441D01*
X55842788Y102960121D01*
X55983949Y102840784D01*
X56061108Y102817996D01*
X56066000Y102833121D01*
X56134386Y102918403D01*
X56193000Y102929333D01*
X56306714Y102978004D01*
X56293944Y103071918D01*
X56218447Y103118406D01*
X56185248Y103166162D01*
X56255377Y103205398D01*
X56420531Y103192094D01*
X56626076Y103075876D01*
X56793241Y102965143D01*
X56877948Y102971831D01*
X56896063Y103006524D01*
X56982184Y103150576D01*
X57092583Y103278583D01*
X57211755Y103422760D01*
X57251333Y103510631D01*
X57325047Y103541510D01*
X57510866Y103533587D01*
X57610434Y103518263D01*
X57842248Y103484794D01*
X57996832Y103478924D01*
X58021949Y103484991D01*
X58084414Y103435862D01*
X58181216Y103274177D01*
X58227201Y103178452D01*
X58317525Y102962020D01*
X58331553Y102822489D01*
X58263436Y102682777D01*
X58180797Y102566926D01*
X57875791Y102228135D01*
X57525227Y102009327D01*
X57378391Y101951537D01*
X57196054Y101848869D01*
X57160987Y101739871D01*
X57184816Y101592447D01*
X57208544Y101338172D01*
X57222887Y101109000D01*
X57259308Y100456816D01*
X57297703Y99956570D01*
X57341192Y99590867D01*
X57392895Y99342316D01*
X57455932Y99193524D01*
X57533423Y99127098D01*
X57579794Y99119333D01*
X57777032Y99053687D01*
X57908892Y98898201D01*
X57928667Y98806066D01*
X57860769Y98707991D01*
X57804645Y98696000D01*
X57667506Y98623364D01*
X57552706Y98450508D01*
X57050000Y97950000D01*
X57554471Y98127353D01*
X57687925Y97905104D01*
X57884755Y97611242D01*
X58124022Y97276281D01*
X58384784Y96930739D01*
X58562854Y96706333D01*
X58745416Y96477920D01*
X58910360Y96265911D01*
X58920433Y96252648D01*
X59075933Y96054712D01*
X59266846Y95820861D01*
X59304500Y95775804D01*
X59447969Y95593253D01*
X59529935Y95466156D01*
X59537333Y95443603D01*
X59568974Y95337979D01*
X59647866Y95142081D01*
X59677774Y95073780D01*
X59928867Y94397372D01*
X60050745Y93759200D01*
X60053280Y93100917D01*
X60038290Y92942955D01*
X59997399Y92600788D01*
X59958196Y92318183D01*
X59927304Y92141464D01*
X59919668Y92113166D01*
X59802702Y92032843D01*
X59542757Y92021887D01*
X59150829Y92079201D01*
X58637912Y92203684D01*
X58436667Y92261484D01*
X57982155Y92401452D01*
X57621945Y92528157D01*
X57286120Y92669641D01*
X56904763Y92853946D01*
X56701000Y92957643D01*
X56131323Y93286544D01*
X55509230Y93707551D01*
X55267935Y93891898D01*
X56905043Y93891898D01*
X56913194Y93874451D01*
X57011993Y93979611D01*
X57135564Y94124000D01*
X57380206Y94397676D01*
X57674015Y94704554D01*
X57875676Y94903346D01*
X57995778Y95004651D01*
X58879803Y95004651D01*
X58883597Y94860066D01*
X58928736Y94604715D01*
X59010766Y94264067D01*
X59119537Y93882248D01*
X59205752Y93562079D01*
X59265089Y93271083D01*
X59283333Y93099081D01*
X59299305Y92924514D01*
X59336603Y92854000D01*
X59355803Y92930489D01*
X59353378Y93130113D01*
X59332444Y93383166D01*
X59278877Y93757851D01*
X59201825Y94149425D01*
X59112241Y94514410D01*
X59021081Y94809329D01*
X58939298Y94990704D01*
X58921808Y95013000D01*
X58879803Y95004651D01*
X57995778Y95004651D01*
X58131000Y95118708D01*
X58382016Y95285152D01*
X58555735Y95360550D01*
X58703558Y95409198D01*
X58722786Y95451345D01*
X58712571Y95455847D01*
X58488660Y95450986D01*
X58203168Y95322962D01*
X57882325Y95093398D01*
X57552363Y94783919D01*
X57239512Y94416147D01*
X56978444Y94026295D01*
X56905043Y93891898D01*
X55267935Y93891898D01*
X54889075Y94181343D01*
X54325212Y94668596D01*
X54288000Y94703371D01*
X53977731Y94990943D01*
X53765826Y95173675D01*
X53630358Y95265905D01*
X53549401Y95281974D01*
X53501026Y95236221D01*
X53494099Y95222552D01*
X53351293Y95048335D01*
X53176924Y95033458D01*
X53051913Y95118182D01*
X52985099Y95211652D01*
X52949491Y95350044D01*
X52941453Y95571221D01*
X52957348Y95913046D01*
X52964840Y96024752D01*
X52985374Y96391263D01*
X52984774Y96494666D01*
X54923000Y96494666D01*
X54949814Y96436013D01*
X55089848Y96411172D01*
X55290910Y96417731D01*
X55500806Y96453281D01*
X55667343Y96515412D01*
X55689851Y96530077D01*
X55798218Y96650259D01*
X55767713Y96721101D01*
X55626844Y96718927D01*
X55512040Y96677753D01*
X55291052Y96602857D01*
X55135679Y96579333D01*
X54975261Y96539534D01*
X54923000Y96494666D01*
X52984774Y96494666D01*
X52984145Y96602828D01*
X52960374Y96672524D01*
X52928215Y96641125D01*
X52876984Y96440916D01*
X52890312Y96302458D01*
X52917864Y96183392D01*
X52886387Y96186713D01*
X52772363Y96316718D01*
X52765150Y96325333D01*
X52595820Y96532947D01*
X52400192Y96779763D01*
X52358509Y96833333D01*
X52175744Y97053899D01*
X56108215Y97053899D01*
X56136280Y96857077D01*
X56192977Y96748320D01*
X56262445Y96751130D01*
X56328824Y96889009D01*
X56349900Y96981500D01*
X56420562Y97385181D01*
X56454465Y97651462D01*
X56453477Y97807810D01*
X56419466Y97881694D01*
X56411512Y97887436D01*
X56311685Y97867700D01*
X56217670Y97700776D01*
X56140528Y97408724D01*
X56124642Y97315284D01*
X56108215Y97053899D01*
X52175744Y97053899D01*
X52163394Y97068803D01*
X51918264Y97343285D01*
X51780307Y97489500D01*
X51431614Y97849333D01*
X50135844Y97849333D01*
X49862422Y98245328D01*
X49658983Y98527524D01*
X49448555Y98800634D01*
X49356166Y98912672D01*
X49211406Y99097662D01*
X49129905Y99233399D01*
X49123333Y99258641D01*
X49079198Y99363654D01*
X49073948Y99372690D01*
X50906879Y99372690D01*
X50927904Y99328846D01*
X50975200Y99267500D01*
X51098780Y99135870D01*
X51153943Y99136443D01*
X51155333Y99151300D01*
X51097474Y99221974D01*
X51007167Y99299466D01*
X50906879Y99372690D01*
X49073948Y99372690D01*
X48964551Y99560944D01*
X48896014Y99666960D01*
X50454355Y99666960D01*
X50560425Y99557341D01*
X50574453Y99545483D01*
X50747912Y99410803D01*
X50807328Y99387877D01*
X50747313Y99476837D01*
X50689667Y99542666D01*
X50548094Y99669041D01*
X50455498Y99712000D01*
X50454355Y99666960D01*
X48896014Y99666960D01*
X48833796Y99763199D01*
X48649163Y100065429D01*
X49986054Y100065429D01*
X50103047Y99929714D01*
X50245344Y99810454D01*
X50304881Y99826009D01*
X50308667Y99860967D01*
X50245197Y99950697D01*
X50227324Y99964258D01*
X50704337Y99964258D01*
X50724231Y99913313D01*
X50834639Y99785424D01*
X50999429Y99616051D01*
X51182464Y99440648D01*
X51347611Y99294674D01*
X51458734Y99213585D01*
X51475812Y99207253D01*
X51461560Y99266957D01*
X51414221Y99364201D01*
X51288576Y99530312D01*
X51099014Y99714294D01*
X50897950Y99871841D01*
X50737801Y99958645D01*
X50704337Y99964258D01*
X50227324Y99964258D01*
X50139333Y100031018D01*
X49999034Y100101756D01*
X49986054Y100065429D01*
X48649163Y100065429D01*
X48620816Y100111830D01*
X48541118Y100306216D01*
X50224000Y100306216D01*
X50288424Y100204601D01*
X50372167Y100142115D01*
X50511051Y100066292D01*
X50541002Y100083707D01*
X50511130Y100171120D01*
X50486958Y100203135D01*
X51197667Y100203135D01*
X51488997Y99959074D01*
X51674302Y99813342D01*
X51788193Y99768515D01*
X51885048Y99812139D01*
X51936710Y99856536D01*
X52033013Y99959261D01*
X51850000Y99950000D01*
X51850000Y100050000D01*
X51750000Y100150000D01*
X51650000Y100250000D01*
X51450000Y100350000D01*
X51250000Y100250000D01*
X51197667Y100203135D01*
X50486958Y100203135D01*
X50427186Y100282297D01*
X50313087Y100347622D01*
X50232552Y100337115D01*
X50224000Y100306216D01*
X48541118Y100306216D01*
X48521303Y100354543D01*
X48050000Y100950000D01*
X48150000Y100950000D01*
X48550000Y100650000D01*
X49018909Y100474947D01*
X49347792Y100446722D01*
X49435450Y100439096D01*
X49776280Y100412179D01*
X49985552Y100408436D01*
X50100156Y100433755D01*
X50156983Y100494024D01*
X50181508Y100558166D01*
X50274224Y100701662D01*
X50284524Y100711873D01*
X50687651Y100711873D01*
X50701514Y100623673D01*
X50780381Y100522381D01*
X50906285Y100431470D01*
X50969873Y100429651D01*
X50956009Y100517851D01*
X50877143Y100619143D01*
X50751238Y100710054D01*
X50687651Y100711873D01*
X50284524Y100711873D01*
X50446691Y100872629D01*
X50549380Y100953772D01*
X50926514Y100953772D01*
X50964246Y100885806D01*
X51025036Y100816310D01*
X51166587Y100672883D01*
X51215770Y100662195D01*
X51188463Y100763787D01*
X51074032Y100898664D01*
X51005367Y100936764D01*
X50926514Y100953772D01*
X50549380Y100953772D01*
X50652592Y101035327D01*
X50845614Y101154017D01*
X50979441Y101192959D01*
X50996577Y101187130D01*
X51044170Y101225908D01*
X51150000Y101350000D01*
X51150000Y101650000D01*
X51050000Y101950000D01*
X50960527Y102333225D01*
X50950948Y102379000D01*
X50898683Y102664169D01*
X50750000Y102950000D01*
X50550000Y103450000D01*
X50650000Y103550000D01*
X51159207Y103126372D01*
X51421164Y103019561D01*
X51774412Y102790292D01*
X52226677Y102435147D01*
X52340667Y102339413D01*
X52649902Y102085983D01*
X52979970Y101828955D01*
X53210926Y101658826D01*
X53452784Y101471243D01*
X53596834Y101294840D01*
X53672988Y101072097D01*
X53711156Y100745494D01*
X53715099Y100689267D01*
X53736725Y100511506D01*
X53794692Y100381846D01*
X53921932Y100262834D01*
X54151376Y100117014D01*
X54288000Y100037698D01*
X54646929Y99840564D01*
X54877915Y99738065D01*
X54991725Y99727716D01*
X54999129Y99807029D01*
X54965333Y99881333D01*
X54922073Y100085989D01*
X54985656Y100264670D01*
X55125756Y100363070D01*
X55233270Y100361156D01*
X55351922Y100352258D01*
X55343400Y100441369D01*
X55335397Y100459011D01*
X55296772Y100600533D01*
X55279395Y100831682D01*
X55282664Y101178387D01*
X55305979Y101666573D01*
X55307019Y101684305D01*
X55308007Y101945506D01*
X55252448Y102130908D01*
X55110065Y102319489D01*
X55031144Y102403972D01*
X54729011Y102754766D01*
X54569740Y103044382D01*
X54552876Y103301823D01*
X54677960Y103556093D01*
X54944535Y103836195D01*
X55007667Y103891731D01*
X55235521Y104099723D01*
X55401470Y104272709D01*
X55472686Y104376170D01*
X55473333Y104381358D01*
X55425018Y104503901D01*
X55308342Y104678682D01*
X55304000Y104684230D01*
X55177623Y104928487D01*
X55138582Y105192311D01*
X55180334Y105429127D01*
X55296339Y105592359D01*
X55438058Y105638666D01*
X55538772Y105568082D01*
X55581099Y105474812D01*
X55677035Y105364706D01*
X55845828Y105366101D01*
X56041449Y105469917D01*
X56162370Y105589478D01*
X56276081Y105707886D01*
X56370324Y105696789D01*
D12*
X5052380Y67511904D02*
X4052380Y67511904D01*
X4052380Y67750000D01*
X4100000Y67892857D01*
X4195238Y67988095D01*
X4290476Y68035714D01*
X4480952Y68083333D01*
X4623809Y68083333D01*
X4814285Y68035714D01*
X4909523Y67988095D01*
X5004761Y67892857D01*
X5052380Y67750000D01*
X5052380Y67511904D01*
X4147619Y68464285D02*
X4100000Y68511904D01*
X4052380Y68607142D01*
X4052380Y68845238D01*
X4100000Y68940476D01*
X4147619Y68988095D01*
X4242857Y69035714D01*
X4338095Y69035714D01*
X4480952Y68988095D01*
X5052380Y68416666D01*
X5052380Y69035714D01*
X-292857Y49133333D02*
X-245238Y49085714D01*
X-197619Y48942857D01*
X-197619Y48847619D01*
X-245238Y48704761D01*
X-340476Y48609523D01*
X-435714Y48561904D01*
X-626190Y48514285D01*
X-769047Y48514285D01*
X-959523Y48561904D01*
X-1054761Y48609523D01*
X-1150000Y48704761D01*
X-1197619Y48847619D01*
X-1197619Y48942857D01*
X-1150000Y49085714D01*
X-1102380Y49133333D01*
X-1197619Y50038095D02*
X-1197619Y49561904D01*
X-721428Y49514285D01*
X-769047Y49561904D01*
X-816666Y49657142D01*
X-816666Y49895238D01*
X-769047Y49990476D01*
X-721428Y50038095D01*
X-626190Y50085714D01*
X-388095Y50085714D01*
X-292857Y50038095D01*
X-245238Y49990476D01*
X-197619Y49895238D01*
X-197619Y49657142D01*
X-245238Y49561904D01*
X-292857Y49514285D01*
X-292857Y64283333D02*
X-245238Y64235714D01*
X-197619Y64092857D01*
X-197619Y63997619D01*
X-245238Y63854761D01*
X-340476Y63759523D01*
X-435714Y63711904D01*
X-626190Y63664285D01*
X-769047Y63664285D01*
X-959523Y63711904D01*
X-1054761Y63759523D01*
X-1150000Y63854761D01*
X-1197619Y63997619D01*
X-1197619Y64092857D01*
X-1150000Y64235714D01*
X-1102380Y64283333D01*
X-1197619Y65140476D02*
X-1197619Y64950000D01*
X-1150000Y64854761D01*
X-1102380Y64807142D01*
X-959523Y64711904D01*
X-769047Y64664285D01*
X-388095Y64664285D01*
X-292857Y64711904D01*
X-245238Y64759523D01*
X-197619Y64854761D01*
X-197619Y65045238D01*
X-245238Y65140476D01*
X-292857Y65188095D01*
X-388095Y65235714D01*
X-626190Y65235714D01*
X-721428Y65188095D01*
X-769047Y65140476D01*
X-816666Y65045238D01*
X-816666Y64854761D01*
X-769047Y64759523D01*
X-721428Y64711904D01*
X-626190Y64664285D01*
X52907142Y64633333D02*
X52954761Y64585714D01*
X53002380Y64442857D01*
X53002380Y64347619D01*
X52954761Y64204761D01*
X52859523Y64109523D01*
X52764285Y64061904D01*
X52573809Y64014285D01*
X52430952Y64014285D01*
X52240476Y64061904D01*
X52145238Y64109523D01*
X52050000Y64204761D01*
X52002380Y64347619D01*
X52002380Y64442857D01*
X52050000Y64585714D01*
X52097619Y64633333D01*
X52430952Y65204761D02*
X52383333Y65109523D01*
X52335714Y65061904D01*
X52240476Y65014285D01*
X52192857Y65014285D01*
X52097619Y65061904D01*
X52050000Y65109523D01*
X52002380Y65204761D01*
X52002380Y65395238D01*
X52050000Y65490476D01*
X52097619Y65538095D01*
X52192857Y65585714D01*
X52240476Y65585714D01*
X52335714Y65538095D01*
X52383333Y65490476D01*
X52430952Y65395238D01*
X52430952Y65204761D01*
X52478571Y65109523D01*
X52526190Y65061904D01*
X52621428Y65014285D01*
X52811904Y65014285D01*
X52907142Y65061904D01*
X52954761Y65109523D01*
X53002380Y65204761D01*
X53002380Y65395238D01*
X52954761Y65490476D01*
X52907142Y65538095D01*
X52811904Y65585714D01*
X52621428Y65585714D01*
X52526190Y65538095D01*
X52478571Y65490476D01*
X52430952Y65395238D01*
X53307142Y49833333D02*
X53354761Y49785714D01*
X53402380Y49642857D01*
X53402380Y49547619D01*
X53354761Y49404761D01*
X53259523Y49309523D01*
X53164285Y49261904D01*
X52973809Y49214285D01*
X52830952Y49214285D01*
X52640476Y49261904D01*
X52545238Y49309523D01*
X52450000Y49404761D01*
X52402380Y49547619D01*
X52402380Y49642857D01*
X52450000Y49785714D01*
X52497619Y49833333D01*
X52402380Y50166666D02*
X52402380Y50833333D01*
X53402380Y50404761D01*
X53107142Y36147619D02*
X52773809Y36623809D01*
X52535714Y36147619D02*
X52535714Y37147619D01*
X52916666Y37147619D01*
X53011904Y37100000D01*
X53059523Y37052380D01*
X53107142Y36957142D01*
X53107142Y36814285D01*
X53059523Y36719047D01*
X53011904Y36671428D01*
X52916666Y36623809D01*
X52535714Y36623809D01*
X54059523Y36147619D02*
X53488095Y36147619D01*
X53773809Y36147619D02*
X53773809Y37147619D01*
X53678571Y37004761D01*
X53583333Y36909523D01*
X53488095Y36861904D01*
X55011904Y36147619D02*
X54440476Y36147619D01*
X54726190Y36147619D02*
X54726190Y37147619D01*
X54630952Y37004761D01*
X54535714Y36909523D01*
X54440476Y36861904D01*
X18957142Y32883333D02*
X19004761Y32835714D01*
X19052380Y32692857D01*
X19052380Y32597619D01*
X19004761Y32454761D01*
X18909523Y32359523D01*
X18814285Y32311904D01*
X18623809Y32264285D01*
X18480952Y32264285D01*
X18290476Y32311904D01*
X18195238Y32359523D01*
X18100000Y32454761D01*
X18052380Y32597619D01*
X18052380Y32692857D01*
X18100000Y32835714D01*
X18147619Y32883333D01*
X19052380Y33835714D02*
X19052380Y33264285D01*
X19052380Y33550000D02*
X18052380Y33550000D01*
X18195238Y33454761D01*
X18290476Y33359523D01*
X18338095Y33264285D01*
X17621428Y35399047D02*
X17621428Y36160952D01*
X18002380Y35780000D02*
X17240476Y35780000D01*
X30957142Y30283333D02*
X31004761Y30235714D01*
X31052380Y30092857D01*
X31052380Y29997619D01*
X31004761Y29854761D01*
X30909523Y29759523D01*
X30814285Y29711904D01*
X30623809Y29664285D01*
X30480952Y29664285D01*
X30290476Y29711904D01*
X30195238Y29759523D01*
X30100000Y29854761D01*
X30052380Y29997619D01*
X30052380Y30092857D01*
X30100000Y30235714D01*
X30147619Y30283333D01*
X30147619Y30664285D02*
X30100000Y30711904D01*
X30052380Y30807142D01*
X30052380Y31045238D01*
X30100000Y31140476D01*
X30147619Y31188095D01*
X30242857Y31235714D01*
X30338095Y31235714D01*
X30480952Y31188095D01*
X31052380Y30616666D01*
X31052380Y31235714D01*
X30857142Y34133333D02*
X30904761Y34085714D01*
X30952380Y33942857D01*
X30952380Y33847619D01*
X30904761Y33704761D01*
X30809523Y33609523D01*
X30714285Y33561904D01*
X30523809Y33514285D01*
X30380952Y33514285D01*
X30190476Y33561904D01*
X30095238Y33609523D01*
X30000000Y33704761D01*
X29952380Y33847619D01*
X29952380Y33942857D01*
X30000000Y34085714D01*
X30047619Y34133333D01*
X29952380Y34466666D02*
X29952380Y35085714D01*
X30333333Y34752380D01*
X30333333Y34895238D01*
X30380952Y34990476D01*
X30428571Y35038095D01*
X30523809Y35085714D01*
X30761904Y35085714D01*
X30857142Y35038095D01*
X30904761Y34990476D01*
X30952380Y34895238D01*
X30952380Y34609523D01*
X30904761Y34514285D01*
X30857142Y34466666D01*
X35883333Y41842857D02*
X35835714Y41795238D01*
X35692857Y41747619D01*
X35597619Y41747619D01*
X35454761Y41795238D01*
X35359523Y41890476D01*
X35311904Y41985714D01*
X35264285Y42176190D01*
X35264285Y42319047D01*
X35311904Y42509523D01*
X35359523Y42604761D01*
X35454761Y42700000D01*
X35597619Y42747619D01*
X35692857Y42747619D01*
X35835714Y42700000D01*
X35883333Y42652380D01*
X36740476Y42414285D02*
X36740476Y41747619D01*
X36502380Y42795238D02*
X36264285Y42080952D01*
X36883333Y42080952D01*
X55833333Y15692857D02*
X55785714Y15645238D01*
X55642857Y15597619D01*
X55547619Y15597619D01*
X55404761Y15645238D01*
X55309523Y15740476D01*
X55261904Y15835714D01*
X55214285Y16026190D01*
X55214285Y16169047D01*
X55261904Y16359523D01*
X55309523Y16454761D01*
X55404761Y16550000D01*
X55547619Y16597619D01*
X55642857Y16597619D01*
X55785714Y16550000D01*
X55833333Y16502380D01*
X56309523Y15597619D02*
X56500000Y15597619D01*
X56595238Y15645238D01*
X56642857Y15692857D01*
X56738095Y15835714D01*
X56785714Y16026190D01*
X56785714Y16407142D01*
X56738095Y16502380D01*
X56690476Y16550000D01*
X56595238Y16597619D01*
X56404761Y16597619D01*
X56309523Y16550000D01*
X56261904Y16502380D01*
X56214285Y16407142D01*
X56214285Y16169047D01*
X56261904Y16073809D01*
X56309523Y16026190D01*
X56404761Y15978571D01*
X56595238Y15978571D01*
X56690476Y16026190D01*
X56738095Y16073809D01*
X56785714Y16169047D01*
X48299047Y9128571D02*
X49060952Y9128571D01*
X48680000Y8747619D02*
X48680000Y9509523D01*
X8757142Y32807142D02*
X8804761Y32759523D01*
X8852380Y32616666D01*
X8852380Y32521428D01*
X8804761Y32378571D01*
X8709523Y32283333D01*
X8614285Y32235714D01*
X8423809Y32188095D01*
X8280952Y32188095D01*
X8090476Y32235714D01*
X7995238Y32283333D01*
X7900000Y32378571D01*
X7852380Y32521428D01*
X7852380Y32616666D01*
X7900000Y32759523D01*
X7947619Y32807142D01*
X8852380Y33759523D02*
X8852380Y33188095D01*
X8852380Y33473809D02*
X7852380Y33473809D01*
X7995238Y33378571D01*
X8090476Y33283333D01*
X8138095Y33188095D01*
X7852380Y34378571D02*
X7852380Y34473809D01*
X7900000Y34569047D01*
X7947619Y34616666D01*
X8042857Y34664285D01*
X8233333Y34711904D01*
X8471428Y34711904D01*
X8661904Y34664285D01*
X8757142Y34616666D01*
X8804761Y34569047D01*
X8852380Y34473809D01*
X8852380Y34378571D01*
X8804761Y34283333D01*
X8757142Y34235714D01*
X8661904Y34188095D01*
X8471428Y34140476D01*
X8233333Y34140476D01*
X8042857Y34188095D01*
X7947619Y34235714D01*
X7900000Y34283333D01*
X7852380Y34378571D01*
X7171428Y35539047D02*
X7171428Y36300952D01*
X7552380Y35920000D02*
X6790476Y35920000D01*
X42357142Y15692857D02*
X42309523Y15645238D01*
X42166666Y15597619D01*
X42071428Y15597619D01*
X41928571Y15645238D01*
X41833333Y15740476D01*
X41785714Y15835714D01*
X41738095Y16026190D01*
X41738095Y16169047D01*
X41785714Y16359523D01*
X41833333Y16454761D01*
X41928571Y16550000D01*
X42071428Y16597619D01*
X42166666Y16597619D01*
X42309523Y16550000D01*
X42357142Y16502380D01*
X43309523Y15597619D02*
X42738095Y15597619D01*
X43023809Y15597619D02*
X43023809Y16597619D01*
X42928571Y16454761D01*
X42833333Y16359523D01*
X42738095Y16311904D01*
X44261904Y15597619D02*
X43690476Y15597619D01*
X43976190Y15597619D02*
X43976190Y16597619D01*
X43880952Y16454761D01*
X43785714Y16359523D01*
X43690476Y16311904D01*
X35899047Y9128571D02*
X36660952Y9128571D01*
X36280000Y8747619D02*
X36280000Y9509523D01*
X36157142Y26092857D02*
X36109523Y26045238D01*
X35966666Y25997619D01*
X35871428Y25997619D01*
X35728571Y26045238D01*
X35633333Y26140476D01*
X35585714Y26235714D01*
X35538095Y26426190D01*
X35538095Y26569047D01*
X35585714Y26759523D01*
X35633333Y26854761D01*
X35728571Y26950000D01*
X35871428Y26997619D01*
X35966666Y26997619D01*
X36109523Y26950000D01*
X36157142Y26902380D01*
X37109523Y25997619D02*
X36538095Y25997619D01*
X36823809Y25997619D02*
X36823809Y26997619D01*
X36728571Y26854761D01*
X36633333Y26759523D01*
X36538095Y26711904D01*
X37490476Y26902380D02*
X37538095Y26950000D01*
X37633333Y26997619D01*
X37871428Y26997619D01*
X37966666Y26950000D01*
X38014285Y26902380D01*
X38061904Y26807142D01*
X38061904Y26711904D01*
X38014285Y26569047D01*
X37442857Y25997619D01*
X38061904Y25997619D01*
X41476190Y23442857D02*
X41428571Y23395238D01*
X41285714Y23347619D01*
X41190476Y23347619D01*
X41047619Y23395238D01*
X40952380Y23490476D01*
X40904761Y23585714D01*
X40857142Y23776190D01*
X40857142Y23919047D01*
X40904761Y24109523D01*
X40952380Y24204761D01*
X41047619Y24300000D01*
X41190476Y24347619D01*
X41285714Y24347619D01*
X41428571Y24300000D01*
X41476190Y24252380D01*
X41904761Y23347619D02*
X41904761Y24347619D01*
X42285714Y24347619D01*
X42380952Y24300000D01*
X42428571Y24252380D01*
X42476190Y24157142D01*
X42476190Y24014285D01*
X42428571Y23919047D01*
X42380952Y23871428D01*
X42285714Y23823809D01*
X41904761Y23823809D01*
X43333333Y23395238D02*
X43238095Y23347619D01*
X43047619Y23347619D01*
X42952380Y23395238D01*
X42904761Y23442857D01*
X42857142Y23538095D01*
X42857142Y23823809D01*
X42904761Y23919047D01*
X42952380Y23966666D01*
X43047619Y24014285D01*
X43238095Y24014285D01*
X43333333Y23966666D01*
X44190476Y23347619D02*
X44190476Y23871428D01*
X44142857Y23966666D01*
X44047619Y24014285D01*
X43857142Y24014285D01*
X43761904Y23966666D01*
X44190476Y23395238D02*
X44095238Y23347619D01*
X43857142Y23347619D01*
X43761904Y23395238D01*
X43714285Y23490476D01*
X43714285Y23585714D01*
X43761904Y23680952D01*
X43857142Y23728571D01*
X44095238Y23728571D01*
X44190476Y23776190D01*
X44666666Y24014285D02*
X44666666Y23014285D01*
X44666666Y23966666D02*
X44761904Y24014285D01*
X44952380Y24014285D01*
X45047619Y23966666D01*
X45095238Y23919047D01*
X45142857Y23823809D01*
X45142857Y23538095D01*
X45095238Y23442857D01*
X45047619Y23395238D01*
X44952380Y23347619D01*
X44761904Y23347619D01*
X44666666Y23395238D01*
X5052380Y52511904D02*
X4052380Y52511904D01*
X4052380Y52750000D01*
X4100000Y52892857D01*
X4195238Y52988095D01*
X4290476Y53035714D01*
X4480952Y53083333D01*
X4623809Y53083333D01*
X4814285Y53035714D01*
X4909523Y52988095D01*
X5004761Y52892857D01*
X5052380Y52750000D01*
X5052380Y52511904D01*
X5052380Y54035714D02*
X5052380Y53464285D01*
X5052380Y53750000D02*
X4052380Y53750000D01*
X4195238Y53654761D01*
X4290476Y53559523D01*
X4338095Y53464285D01*
X52742380Y53186904D02*
X51742380Y53186904D01*
X51742380Y53425000D01*
X51790000Y53567857D01*
X51885238Y53663095D01*
X51980476Y53710714D01*
X52170952Y53758333D01*
X52313809Y53758333D01*
X52504285Y53710714D01*
X52599523Y53663095D01*
X52694761Y53567857D01*
X52742380Y53425000D01*
X52742380Y53186904D01*
X51742380Y54091666D02*
X51742380Y54710714D01*
X52123333Y54377380D01*
X52123333Y54520238D01*
X52170952Y54615476D01*
X52218571Y54663095D01*
X52313809Y54710714D01*
X52551904Y54710714D01*
X52647142Y54663095D01*
X52694761Y54615476D01*
X52742380Y54520238D01*
X52742380Y54234523D01*
X52694761Y54139285D01*
X52647142Y54091666D01*
X52542380Y67646904D02*
X51542380Y67646904D01*
X51542380Y67885000D01*
X51590000Y68027857D01*
X51685238Y68123095D01*
X51780476Y68170714D01*
X51970952Y68218333D01*
X52113809Y68218333D01*
X52304285Y68170714D01*
X52399523Y68123095D01*
X52494761Y68027857D01*
X52542380Y67885000D01*
X52542380Y67646904D01*
X51875714Y69075476D02*
X52542380Y69075476D01*
X51494761Y68837380D02*
X52209047Y68599285D01*
X52209047Y69218333D01*
X30661904Y26197619D02*
X30661904Y27197619D01*
X30900000Y27197619D01*
X31042857Y27150000D01*
X31138095Y27054761D01*
X31185714Y26959523D01*
X31233333Y26769047D01*
X31233333Y26626190D01*
X31185714Y26435714D01*
X31138095Y26340476D01*
X31042857Y26245238D01*
X30900000Y26197619D01*
X30661904Y26197619D01*
X32138095Y27197619D02*
X31661904Y27197619D01*
X31614285Y26721428D01*
X31661904Y26769047D01*
X31757142Y26816666D01*
X31995238Y26816666D01*
X32090476Y26769047D01*
X32138095Y26721428D01*
X32185714Y26626190D01*
X32185714Y26388095D01*
X32138095Y26292857D01*
X32090476Y26245238D01*
X31995238Y26197619D01*
X31757142Y26197619D01*
X31661904Y26245238D01*
X31614285Y26292857D01*
X36307142Y18997619D02*
X35830952Y18997619D01*
X35830952Y19997619D01*
X36640476Y19521428D02*
X36973809Y19521428D01*
X37116666Y18997619D02*
X36640476Y18997619D01*
X36640476Y19997619D01*
X37116666Y19997619D01*
X37545238Y18997619D02*
X37545238Y19997619D01*
X37783333Y19997619D01*
X37926190Y19950000D01*
X38021428Y19854761D01*
X38069047Y19759523D01*
X38116666Y19569047D01*
X38116666Y19426190D01*
X38069047Y19235714D01*
X38021428Y19140476D01*
X37926190Y19045238D01*
X37783333Y18997619D01*
X37545238Y18997619D01*
X28357142Y2273428D02*
X28857142Y773428D01*
X29357142Y2273428D01*
X30357142Y1559142D02*
X30571428Y1487714D01*
X30642857Y1416285D01*
X30714285Y1273428D01*
X30714285Y1059142D01*
X30642857Y916285D01*
X30571428Y844857D01*
X30428571Y773428D01*
X29857142Y773428D01*
X29857142Y2273428D01*
X30357142Y2273428D01*
X30500000Y2202000D01*
X30571428Y2130571D01*
X30642857Y1987714D01*
X30642857Y1844857D01*
X30571428Y1702000D01*
X30500000Y1630571D01*
X30357142Y1559142D01*
X29857142Y1559142D01*
X31285714Y2130571D02*
X31357142Y2202000D01*
X31500000Y2273428D01*
X31857142Y2273428D01*
X32000000Y2202000D01*
X32071428Y2130571D01*
X32142857Y1987714D01*
X32142857Y1844857D01*
X32071428Y1630571D01*
X31214285Y773428D01*
X32142857Y773428D01*
X33714285Y2273428D02*
X34214285Y773428D01*
X34714285Y2273428D01*
X35714285Y1559142D02*
X35928571Y1487714D01*
X36000000Y1416285D01*
X36071428Y1273428D01*
X36071428Y1059142D01*
X36000000Y916285D01*
X35928571Y844857D01*
X35785714Y773428D01*
X35214285Y773428D01*
X35214285Y2273428D01*
X35714285Y2273428D01*
X35857142Y2202000D01*
X35928571Y2130571D01*
X36000000Y1987714D01*
X36000000Y1844857D01*
X35928571Y1702000D01*
X35857142Y1630571D01*
X35714285Y1559142D01*
X35214285Y1559142D01*
X37500000Y773428D02*
X36642857Y773428D01*
X37071428Y773428D02*
X37071428Y2273428D01*
X36928571Y2059142D01*
X36785714Y1916285D01*
X36642857Y1844857D01*
X19642857Y1898428D02*
X19642857Y684142D01*
X19571428Y541285D01*
X19500000Y469857D01*
X19357142Y398428D01*
X19142857Y398428D01*
X19000000Y469857D01*
X19642857Y969857D02*
X19500000Y898428D01*
X19214285Y898428D01*
X19071428Y969857D01*
X19000000Y1041285D01*
X18928571Y1184142D01*
X18928571Y1612714D01*
X19000000Y1755571D01*
X19071428Y1827000D01*
X19214285Y1898428D01*
X19500000Y1898428D01*
X19642857Y1827000D01*
X20357142Y898428D02*
X20357142Y1898428D01*
X20357142Y1612714D02*
X20428571Y1755571D01*
X20500000Y1827000D01*
X20642857Y1898428D01*
X20785714Y1898428D01*
X21500000Y898428D02*
X21357142Y969857D01*
X21285714Y1041285D01*
X21214285Y1184142D01*
X21214285Y1612714D01*
X21285714Y1755571D01*
X21357142Y1827000D01*
X21500000Y1898428D01*
X21714285Y1898428D01*
X21857142Y1827000D01*
X21928571Y1755571D01*
X22000000Y1612714D01*
X22000000Y1184142D01*
X21928571Y1041285D01*
X21857142Y969857D01*
X21714285Y898428D01*
X21500000Y898428D01*
X23285714Y1898428D02*
X23285714Y898428D01*
X22642857Y1898428D02*
X22642857Y1112714D01*
X22714285Y969857D01*
X22857142Y898428D01*
X23071428Y898428D01*
X23214285Y969857D01*
X23285714Y1041285D01*
X24000000Y1898428D02*
X24000000Y898428D01*
X24000000Y1755571D02*
X24071428Y1827000D01*
X24214285Y1898428D01*
X24428571Y1898428D01*
X24571428Y1827000D01*
X24642857Y1684142D01*
X24642857Y898428D01*
X26000000Y898428D02*
X26000000Y2398428D01*
X26000000Y969857D02*
X25857142Y898428D01*
X25571428Y898428D01*
X25428571Y969857D01*
X25357142Y1041285D01*
X25285714Y1184142D01*
X25285714Y1612714D01*
X25357142Y1755571D01*
X25428571Y1827000D01*
X25571428Y1898428D01*
X25857142Y1898428D01*
X26000000Y1827000D01*
X32883333Y16397619D02*
X32550000Y16873809D01*
X32311904Y16397619D02*
X32311904Y17397619D01*
X32692857Y17397619D01*
X32788095Y17350000D01*
X32835714Y17302380D01*
X32883333Y17207142D01*
X32883333Y17064285D01*
X32835714Y16969047D01*
X32788095Y16921428D01*
X32692857Y16873809D01*
X32311904Y16873809D01*
X33835714Y16397619D02*
X33264285Y16397619D01*
X33550000Y16397619D02*
X33550000Y17397619D01*
X33454761Y17254761D01*
X33359523Y17159523D01*
X33264285Y17111904D01*
X26202380Y37808333D02*
X25726190Y37475000D01*
X26202380Y37236904D02*
X25202380Y37236904D01*
X25202380Y37617857D01*
X25250000Y37713095D01*
X25297619Y37760714D01*
X25392857Y37808333D01*
X25535714Y37808333D01*
X25630952Y37760714D01*
X25678571Y37713095D01*
X25726190Y37617857D01*
X25726190Y37236904D01*
X25297619Y38189285D02*
X25250000Y38236904D01*
X25202380Y38332142D01*
X25202380Y38570238D01*
X25250000Y38665476D01*
X25297619Y38713095D01*
X25392857Y38760714D01*
X25488095Y38760714D01*
X25630952Y38713095D01*
X26202380Y38141666D01*
X26202380Y38760714D01*
X28677380Y37883333D02*
X28201190Y37550000D01*
X28677380Y37311904D02*
X27677380Y37311904D01*
X27677380Y37692857D01*
X27725000Y37788095D01*
X27772619Y37835714D01*
X27867857Y37883333D01*
X28010714Y37883333D01*
X28105952Y37835714D01*
X28153571Y37788095D01*
X28201190Y37692857D01*
X28201190Y37311904D01*
X27677380Y38216666D02*
X27677380Y38835714D01*
X28058333Y38502380D01*
X28058333Y38645238D01*
X28105952Y38740476D01*
X28153571Y38788095D01*
X28248809Y38835714D01*
X28486904Y38835714D01*
X28582142Y38788095D01*
X28629761Y38740476D01*
X28677380Y38645238D01*
X28677380Y38359523D01*
X28629761Y38264285D01*
X28582142Y38216666D01*
X33402380Y37858333D02*
X32926190Y37525000D01*
X33402380Y37286904D02*
X32402380Y37286904D01*
X32402380Y37667857D01*
X32450000Y37763095D01*
X32497619Y37810714D01*
X32592857Y37858333D01*
X32735714Y37858333D01*
X32830952Y37810714D01*
X32878571Y37763095D01*
X32926190Y37667857D01*
X32926190Y37286904D01*
X32735714Y38715476D02*
X33402380Y38715476D01*
X32354761Y38477380D02*
X33069047Y38239285D01*
X33069047Y38858333D01*
X31202380Y37908333D02*
X30726190Y37575000D01*
X31202380Y37336904D02*
X30202380Y37336904D01*
X30202380Y37717857D01*
X30250000Y37813095D01*
X30297619Y37860714D01*
X30392857Y37908333D01*
X30535714Y37908333D01*
X30630952Y37860714D01*
X30678571Y37813095D01*
X30726190Y37717857D01*
X30726190Y37336904D01*
X30202380Y38813095D02*
X30202380Y38336904D01*
X30678571Y38289285D01*
X30630952Y38336904D01*
X30583333Y38432142D01*
X30583333Y38670238D01*
X30630952Y38765476D01*
X30678571Y38813095D01*
X30773809Y38860714D01*
X31011904Y38860714D01*
X31107142Y38813095D01*
X31154761Y38765476D01*
X31202380Y38670238D01*
X31202380Y38432142D01*
X31154761Y38336904D01*
X31107142Y38289285D01*
X41033333Y41697619D02*
X40700000Y42173809D01*
X40461904Y41697619D02*
X40461904Y42697619D01*
X40842857Y42697619D01*
X40938095Y42650000D01*
X40985714Y42602380D01*
X41033333Y42507142D01*
X41033333Y42364285D01*
X40985714Y42269047D01*
X40938095Y42221428D01*
X40842857Y42173809D01*
X40461904Y42173809D01*
X41890476Y42697619D02*
X41700000Y42697619D01*
X41604761Y42650000D01*
X41557142Y42602380D01*
X41461904Y42459523D01*
X41414285Y42269047D01*
X41414285Y41888095D01*
X41461904Y41792857D01*
X41509523Y41745238D01*
X41604761Y41697619D01*
X41795238Y41697619D01*
X41890476Y41745238D01*
X41938095Y41792857D01*
X41985714Y41888095D01*
X41985714Y42126190D01*
X41938095Y42221428D01*
X41890476Y42269047D01*
X41795238Y42316666D01*
X41604761Y42316666D01*
X41509523Y42269047D01*
X41461904Y42221428D01*
X41414285Y42126190D01*
X33083333Y14197619D02*
X32750000Y14673809D01*
X32511904Y14197619D02*
X32511904Y15197619D01*
X32892857Y15197619D01*
X32988095Y15150000D01*
X33035714Y15102380D01*
X33083333Y15007142D01*
X33083333Y14864285D01*
X33035714Y14769047D01*
X32988095Y14721428D01*
X32892857Y14673809D01*
X32511904Y14673809D01*
X33416666Y15197619D02*
X34083333Y15197619D01*
X33654761Y14197619D01*
X6833333Y16597619D02*
X6500000Y17073809D01*
X6261904Y16597619D02*
X6261904Y17597619D01*
X6642857Y17597619D01*
X6738095Y17550000D01*
X6785714Y17502380D01*
X6833333Y17407142D01*
X6833333Y17264285D01*
X6785714Y17169047D01*
X6738095Y17121428D01*
X6642857Y17073809D01*
X6261904Y17073809D01*
X7404761Y17169047D02*
X7309523Y17216666D01*
X7261904Y17264285D01*
X7214285Y17359523D01*
X7214285Y17407142D01*
X7261904Y17502380D01*
X7309523Y17550000D01*
X7404761Y17597619D01*
X7595238Y17597619D01*
X7690476Y17550000D01*
X7738095Y17502380D01*
X7785714Y17407142D01*
X7785714Y17359523D01*
X7738095Y17264285D01*
X7690476Y17216666D01*
X7595238Y17169047D01*
X7404761Y17169047D01*
X7309523Y17121428D01*
X7261904Y17073809D01*
X7214285Y16978571D01*
X7214285Y16788095D01*
X7261904Y16692857D01*
X7309523Y16645238D01*
X7404761Y16597619D01*
X7595238Y16597619D01*
X7690476Y16645238D01*
X7738095Y16692857D01*
X7785714Y16788095D01*
X7785714Y16978571D01*
X7738095Y17073809D01*
X7690476Y17121428D01*
X7595238Y17169047D01*
X6833333Y13597619D02*
X6500000Y14073809D01*
X6261904Y13597619D02*
X6261904Y14597619D01*
X6642857Y14597619D01*
X6738095Y14550000D01*
X6785714Y14502380D01*
X6833333Y14407142D01*
X6833333Y14264285D01*
X6785714Y14169047D01*
X6738095Y14121428D01*
X6642857Y14073809D01*
X6261904Y14073809D01*
X7309523Y13597619D02*
X7500000Y13597619D01*
X7595238Y13645238D01*
X7642857Y13692857D01*
X7738095Y13835714D01*
X7785714Y14026190D01*
X7785714Y14407142D01*
X7738095Y14502380D01*
X7690476Y14550000D01*
X7595238Y14597619D01*
X7404761Y14597619D01*
X7309523Y14550000D01*
X7261904Y14502380D01*
X7214285Y14407142D01*
X7214285Y14169047D01*
X7261904Y14073809D01*
X7309523Y14026190D01*
X7404761Y13978571D01*
X7595238Y13978571D01*
X7690476Y14026190D01*
X7738095Y14073809D01*
X7785714Y14169047D01*
X40607142Y18597619D02*
X40273809Y19073809D01*
X40035714Y18597619D02*
X40035714Y19597619D01*
X40416666Y19597619D01*
X40511904Y19550000D01*
X40559523Y19502380D01*
X40607142Y19407142D01*
X40607142Y19264285D01*
X40559523Y19169047D01*
X40511904Y19121428D01*
X40416666Y19073809D01*
X40035714Y19073809D01*
X41559523Y18597619D02*
X40988095Y18597619D01*
X41273809Y18597619D02*
X41273809Y19597619D01*
X41178571Y19454761D01*
X41083333Y19359523D01*
X40988095Y19311904D01*
X42178571Y19597619D02*
X42273809Y19597619D01*
X42369047Y19550000D01*
X42416666Y19502380D01*
X42464285Y19407142D01*
X42511904Y19216666D01*
X42511904Y18978571D01*
X42464285Y18788095D01*
X42416666Y18692857D01*
X42369047Y18645238D01*
X42273809Y18597619D01*
X42178571Y18597619D01*
X42083333Y18645238D01*
X42035714Y18692857D01*
X41988095Y18788095D01*
X41940476Y18978571D01*
X41940476Y19216666D01*
X41988095Y19407142D01*
X42035714Y19502380D01*
X42083333Y19550000D01*
X42178571Y19597619D01*
X53107142Y39147619D02*
X52773809Y39623809D01*
X52535714Y39147619D02*
X52535714Y40147619D01*
X52916666Y40147619D01*
X53011904Y40100000D01*
X53059523Y40052380D01*
X53107142Y39957142D01*
X53107142Y39814285D01*
X53059523Y39719047D01*
X53011904Y39671428D01*
X52916666Y39623809D01*
X52535714Y39623809D01*
X54059523Y39147619D02*
X53488095Y39147619D01*
X53773809Y39147619D02*
X53773809Y40147619D01*
X53678571Y40004761D01*
X53583333Y39909523D01*
X53488095Y39861904D01*
X54440476Y40052380D02*
X54488095Y40100000D01*
X54583333Y40147619D01*
X54821428Y40147619D01*
X54916666Y40100000D01*
X54964285Y40052380D01*
X55011904Y39957142D01*
X55011904Y39861904D01*
X54964285Y39719047D01*
X54392857Y39147619D01*
X55011904Y39147619D01*
D19*
X20915714Y9976571D02*
X21278571Y8960571D01*
X21641428Y9976571D01*
X22222000Y8960571D02*
X22222000Y10484571D01*
X22222000Y9904000D02*
X22367142Y9976571D01*
X22657428Y9976571D01*
X22802571Y9904000D01*
X22875142Y9831428D01*
X22947714Y9686285D01*
X22947714Y9250857D01*
X22875142Y9105714D01*
X22802571Y9033142D01*
X22657428Y8960571D01*
X22367142Y8960571D01*
X22222000Y9033142D01*
X24254000Y9976571D02*
X24254000Y8960571D01*
X23600857Y9976571D02*
X23600857Y9178285D01*
X23673428Y9033142D01*
X23818571Y8960571D01*
X24036285Y8960571D01*
X24181428Y9033142D01*
X24254000Y9105714D01*
X24907142Y9033142D02*
X25052285Y8960571D01*
X25342571Y8960571D01*
X25487714Y9033142D01*
X25560285Y9178285D01*
X25560285Y9250857D01*
X25487714Y9396000D01*
X25342571Y9468571D01*
X25124857Y9468571D01*
X24979714Y9541142D01*
X24907142Y9686285D01*
X24907142Y9758857D01*
X24979714Y9904000D01*
X25124857Y9976571D01*
X25342571Y9976571D01*
X25487714Y9904000D01*
X27011714Y8960571D02*
X26140857Y8960571D01*
X26576285Y8960571D02*
X26576285Y10484571D01*
X26431142Y10266857D01*
X26286000Y10121714D01*
X26140857Y10049142D01*
X11915714Y9976571D02*
X12278571Y8960571D01*
X12641428Y9976571D01*
X13222000Y8960571D02*
X13222000Y10484571D01*
X13222000Y9904000D02*
X13367142Y9976571D01*
X13657428Y9976571D01*
X13802571Y9904000D01*
X13875142Y9831428D01*
X13947714Y9686285D01*
X13947714Y9250857D01*
X13875142Y9105714D01*
X13802571Y9033142D01*
X13657428Y8960571D01*
X13367142Y8960571D01*
X13222000Y9033142D01*
X15254000Y9976571D02*
X15254000Y8960571D01*
X14600857Y9976571D02*
X14600857Y9178285D01*
X14673428Y9033142D01*
X14818571Y8960571D01*
X15036285Y8960571D01*
X15181428Y9033142D01*
X15254000Y9105714D01*
X15907142Y9033142D02*
X16052285Y8960571D01*
X16342571Y8960571D01*
X16487714Y9033142D01*
X16560285Y9178285D01*
X16560285Y9250857D01*
X16487714Y9396000D01*
X16342571Y9468571D01*
X16124857Y9468571D01*
X15979714Y9541142D01*
X15907142Y9686285D01*
X15907142Y9758857D01*
X15979714Y9904000D01*
X16124857Y9976571D01*
X16342571Y9976571D01*
X16487714Y9904000D01*
X17140857Y10339428D02*
X17213428Y10412000D01*
X17358571Y10484571D01*
X17721428Y10484571D01*
X17866571Y10412000D01*
X17939142Y10339428D01*
X18011714Y10194285D01*
X18011714Y10049142D01*
X17939142Y9831428D01*
X17068285Y8960571D01*
X18011714Y8960571D01*
X17423714Y6360571D02*
X16698000Y6360571D01*
X16698000Y7884571D01*
X17931714Y6360571D02*
X17931714Y7884571D01*
X18439714Y6796000D01*
X18947714Y7884571D01*
X18947714Y6360571D01*
X19528285Y7884571D02*
X20471714Y7884571D01*
X19963714Y7304000D01*
X20181428Y7304000D01*
X20326571Y7231428D01*
X20399142Y7158857D01*
X20471714Y7013714D01*
X20471714Y6650857D01*
X20399142Y6505714D01*
X20326571Y6433142D01*
X20181428Y6360571D01*
X19746000Y6360571D01*
X19600857Y6433142D01*
X19528285Y6505714D01*
X21923142Y6360571D02*
X21052285Y6360571D01*
X21487714Y6360571D02*
X21487714Y7884571D01*
X21342571Y7666857D01*
X21197428Y7521714D01*
X21052285Y7449142D01*
X22431142Y7884571D02*
X23447142Y7884571D01*
X22794000Y6360571D01*
D12*
D19*
X9688857Y55284571D02*
X9688857Y54050857D01*
X9761428Y53905714D01*
X9834000Y53833142D01*
X9979142Y53760571D01*
X10269428Y53760571D01*
X10414571Y53833142D01*
X10487142Y53905714D01*
X10559714Y54050857D01*
X10559714Y55284571D01*
X11212857Y55139428D02*
X11285428Y55212000D01*
X11430571Y55284571D01*
X11793428Y55284571D01*
X11938571Y55212000D01*
X12011142Y55139428D01*
X12083714Y54994285D01*
X12083714Y54849142D01*
X12011142Y54631428D01*
X11140285Y53760571D01*
X12083714Y53760571D01*
X11338857Y69884571D02*
X11338857Y68650857D01*
X11411428Y68505714D01*
X11484000Y68433142D01*
X11629142Y68360571D01*
X11919428Y68360571D01*
X12064571Y68433142D01*
X12137142Y68505714D01*
X12209714Y68650857D01*
X12209714Y69884571D01*
X12790285Y69884571D02*
X13733714Y69884571D01*
X13225714Y69304000D01*
X13443428Y69304000D01*
X13588571Y69231428D01*
X13661142Y69158857D01*
X13733714Y69013714D01*
X13733714Y68650857D01*
X13661142Y68505714D01*
X13588571Y68433142D01*
X13443428Y68360571D01*
X13008000Y68360571D01*
X12862857Y68433142D01*
X12790285Y68505714D01*
X47088857Y55134571D02*
X47088857Y53900857D01*
X47161428Y53755714D01*
X47234000Y53683142D01*
X47379142Y53610571D01*
X47669428Y53610571D01*
X47814571Y53683142D01*
X47887142Y53755714D01*
X47959714Y53900857D01*
X47959714Y55134571D01*
X49338571Y54626571D02*
X49338571Y53610571D01*
X48975714Y55207142D02*
X48612857Y54118571D01*
X49556285Y54118571D01*
X44738857Y69784571D02*
X44738857Y68550857D01*
X44811428Y68405714D01*
X44884000Y68333142D01*
X45029142Y68260571D01*
X45319428Y68260571D01*
X45464571Y68333142D01*
X45537142Y68405714D01*
X45609714Y68550857D01*
X45609714Y69784571D01*
X47061142Y69784571D02*
X46335428Y69784571D01*
X46262857Y69058857D01*
X46335428Y69131428D01*
X46480571Y69204000D01*
X46843428Y69204000D01*
X46988571Y69131428D01*
X47061142Y69058857D01*
X47133714Y68913714D01*
X47133714Y68550857D01*
X47061142Y68405714D01*
X46988571Y68333142D01*
X46843428Y68260571D01*
X46480571Y68260571D01*
X46335428Y68333142D01*
X46262857Y68405714D01*
D12*
M02*
