G04 #@! TF.GenerationSoftware,KiCad,Pcbnew,5.0.0-rc2-dev-unknown-648803d~64~ubuntu16.04.1*
G04 #@! TF.CreationDate,2018-04-28T23:37:59-07:00*
G04 #@! TF.ProjectId,HICURRNT_Bridge,4849435552524E545F4272696467652E,rev?*
G04 #@! TF.SameCoordinates,Original*
G04 #@! TF.FileFunction,Copper,L1,Top,Signal*
G04 #@! TF.FilePolarity,Positive*
%FSLAX46Y46*%
G04 Gerber Fmt 4.6, Leading zero omitted, Abs format (unit mm)*
G04 Created by KiCad (PCBNEW 5.0.0-rc2-dev-unknown-648803d~64~ubuntu16.04.1) date Sat Apr 28 23:37:59 2018*
%MOMM*%
%LPD*%
G01*
G04 APERTURE LIST*
%ADD10C,4.500000*%
%ADD11R,1.470000X1.270000*%
%ADD12R,2.500000X2.000000*%
%ADD13R,0.500000X0.900000*%
%ADD14C,5.000000*%
%ADD15C,4.000000*%
%ADD16R,2.400000X2.400000*%
%ADD17C,2.400000*%
%ADD18R,2.500000X4.000000*%
%ADD19R,0.750000X0.800000*%
%ADD20R,4.000000X2.500000*%
%ADD21R,0.800000X0.750000*%
%ADD22R,1.000000X2.500000*%
%ADD23R,1.000000X1.600000*%
%ADD24R,0.800000X0.900000*%
%ADD25C,1.524000*%
%ADD26R,1.524000X1.524000*%
%ADD27R,4.000000X4.000000*%
%ADD28C,2.000000*%
%ADD29R,2.000000X2.000000*%
%ADD30R,0.900000X0.500000*%
%ADD31R,1.550000X2.780000*%
%ADD32R,6.740000X6.730000*%
%ADD33R,0.890000X1.100000*%
%ADD34R,1.100000X0.400000*%
%ADD35R,1.500000X2.032000*%
%ADD36C,0.800000*%
%ADD37C,4.000000*%
%ADD38C,2.000000*%
%ADD39C,3.000000*%
%ADD40C,1.000000*%
%ADD41C,0.300000*%
%ADD42C,0.500000*%
%ADD43C,5.000000*%
%ADD44C,2.500000*%
%ADD45C,1.500000*%
%ADD46C,0.254000*%
G04 APERTURE END LIST*
D10*
X44950000Y56850000D03*
X14350000Y56850000D03*
D11*
X4615000Y62580000D03*
X4615000Y66450000D03*
D12*
X1600000Y47300000D03*
X1600000Y51300000D03*
X1600000Y62450000D03*
X1600000Y66450000D03*
X54800000Y62800000D03*
X54800000Y66800000D03*
X55200000Y48000000D03*
X55200000Y52000000D03*
D13*
X54500000Y38050000D03*
X53000000Y38050000D03*
D14*
X57750000Y4250000D03*
X4000000Y4050000D03*
D10*
X36200000Y56850000D03*
X21750000Y56850000D03*
D14*
X4000000Y112050000D03*
X57750000Y112850000D03*
D15*
X45735000Y40540000D03*
X13735000Y40540000D03*
X13735000Y72540000D03*
D16*
X15290000Y86710000D03*
D17*
X7790000Y86710000D03*
D18*
X21400000Y28010000D03*
X21400000Y34110000D03*
D19*
X32200000Y31150000D03*
X32200000Y29650000D03*
X32000000Y35050000D03*
X32000000Y33550000D03*
X36000000Y40750000D03*
X36000000Y39250000D03*
D20*
X56450000Y13050000D03*
X50350000Y13050000D03*
D18*
X10950000Y34250000D03*
X10950000Y28150000D03*
D20*
X37950000Y13050000D03*
X44050000Y13050000D03*
D21*
X36200000Y25050000D03*
X37700000Y25050000D03*
D22*
X41500000Y26050000D03*
X44500000Y26050000D03*
D11*
X4615000Y47340000D03*
X4615000Y51210000D03*
X52200000Y51920000D03*
X52200000Y48050000D03*
X52000000Y62515000D03*
X52000000Y66385000D03*
D23*
X33000000Y24850000D03*
X30000000Y24850000D03*
D24*
X35900000Y21050000D03*
X38000000Y21050000D03*
D25*
X57400000Y39410000D03*
X57400000Y36870000D03*
D26*
X57400000Y34330000D03*
X57400000Y31790000D03*
D25*
X57400000Y29250000D03*
X57400000Y26710000D03*
X57400000Y24170000D03*
X57400000Y21630000D03*
D27*
X43620000Y100760000D03*
D15*
X34120000Y100760000D03*
X24620000Y100760000D03*
X15120000Y100760000D03*
D28*
X29460000Y3652000D03*
X32000000Y3652000D03*
X34540000Y3652000D03*
X37080000Y3652000D03*
D29*
X26840000Y3652000D03*
X24300000Y3652000D03*
X21760000Y3652000D03*
X19220000Y3652000D03*
D28*
X4000000Y29230000D03*
X4000000Y26690000D03*
X4000000Y24150000D03*
X4000000Y21610000D03*
X4070000Y11370000D03*
X4070000Y13910000D03*
X4070000Y16450000D03*
X4070000Y18990000D03*
D16*
X50850000Y86710000D03*
D17*
X43350000Y86710000D03*
X25570000Y86710000D03*
D16*
X33070000Y86710000D03*
D13*
X31150000Y17050000D03*
X29650000Y17050000D03*
D30*
X25800000Y41150000D03*
X25800000Y39650000D03*
X28250000Y39675000D03*
X28250000Y41175000D03*
X33000000Y41200000D03*
X33000000Y39700000D03*
X30750000Y41225000D03*
X30750000Y39725000D03*
X41200000Y39350000D03*
X41200000Y40850000D03*
D13*
X31200000Y14650000D03*
X29700000Y14650000D03*
X8500000Y17050000D03*
X10000000Y17050000D03*
X10000000Y14250000D03*
X8500000Y14250000D03*
X40500000Y21050000D03*
X42000000Y21050000D03*
X53000000Y41050000D03*
X54500000Y41050000D03*
D31*
X21820000Y21285000D03*
D32*
X24000000Y14650000D03*
D31*
X26180000Y21285000D03*
X17180000Y21350000D03*
D32*
X15000000Y14715000D03*
D31*
X12820000Y21350000D03*
D33*
X37725000Y36387500D03*
X38575000Y36387500D03*
X40275000Y36387500D03*
X39425000Y36387500D03*
X39425000Y35331250D03*
X40275000Y35331250D03*
X38575000Y35331250D03*
X37725000Y35331250D03*
X37725000Y34275000D03*
X38575000Y34275000D03*
X40275000Y34275000D03*
X39425000Y34275000D03*
X39425000Y33218750D03*
X40275000Y33218750D03*
X38575000Y33218750D03*
X37725000Y33218750D03*
X37725000Y32162500D03*
X38575000Y32162500D03*
X40275000Y32162500D03*
X39425000Y32162500D03*
X39425000Y31106250D03*
X40275000Y31106250D03*
X38575000Y31106250D03*
X37725000Y31106250D03*
D34*
X42150000Y37443750D03*
X42150000Y36793750D03*
X42150000Y36143750D03*
X42150000Y35493750D03*
X42150000Y34843750D03*
X42150000Y34193750D03*
X42150000Y33543750D03*
X42150000Y32893750D03*
X42150000Y32243750D03*
X42150000Y31593750D03*
X42150000Y30943750D03*
X42150000Y30293750D03*
X35850000Y30293750D03*
X35850000Y30943750D03*
X35850000Y31593750D03*
X35850000Y32243750D03*
X35850000Y32893750D03*
X35850000Y33543750D03*
X35850000Y34193750D03*
X35850000Y34843750D03*
X35850000Y35493750D03*
X35850000Y36143750D03*
X35850000Y36793750D03*
X35850000Y37443750D03*
D25*
X23030000Y46959000D03*
X23030000Y49245000D03*
X23030000Y51531000D03*
X12616000Y46959000D03*
X12616000Y49245000D03*
X12616000Y51531000D03*
X16116000Y46959000D03*
X16116000Y49245000D03*
X16116000Y51531000D03*
X19616000Y46959000D03*
X19616000Y49245000D03*
X19616000Y51531000D03*
D26*
X19616000Y66136000D03*
D25*
X19616000Y63850000D03*
X19616000Y61564000D03*
D26*
X16116000Y66136000D03*
D25*
X16116000Y63850000D03*
X16116000Y61564000D03*
D26*
X12616000Y66136000D03*
D25*
X12616000Y63850000D03*
X12616000Y61564000D03*
D26*
X23030000Y66136000D03*
D25*
X23030000Y63850000D03*
X23030000Y61564000D03*
X42476000Y51531000D03*
X42476000Y49245000D03*
X42476000Y46959000D03*
X38976000Y51531000D03*
X38976000Y49245000D03*
X38976000Y46959000D03*
X35476000Y51531000D03*
X35476000Y49245000D03*
X35476000Y46959000D03*
X45890000Y51531000D03*
X45890000Y49245000D03*
X45890000Y46959000D03*
X45890000Y61564000D03*
X45890000Y63850000D03*
D26*
X45890000Y66136000D03*
D25*
X35476000Y61564000D03*
X35476000Y63850000D03*
D26*
X35476000Y66136000D03*
D25*
X38976000Y61564000D03*
X38976000Y63850000D03*
D26*
X38976000Y66136000D03*
D25*
X42476000Y61564000D03*
X42476000Y63850000D03*
D26*
X42476000Y66136000D03*
D35*
X48660000Y27860000D03*
X48660000Y30250000D03*
X51200000Y30250000D03*
X51200000Y27860000D03*
D15*
X45735000Y72540000D03*
D36*
X14400000Y66136000D03*
X21200000Y66136000D03*
X37200000Y66136000D03*
X44200000Y66136000D03*
X7200000Y27850000D03*
X25200000Y27850000D03*
X8000000Y28450000D03*
X8200000Y27450000D03*
X7400000Y26850000D03*
X25200000Y26850000D03*
X24200000Y27450000D03*
X26200000Y27650000D03*
X28000000Y27050000D03*
X28000000Y21550000D03*
X40950000Y10350000D03*
X34850000Y17100000D03*
X16000000Y97682800D03*
X15000000Y97682800D03*
X14000000Y97682800D03*
X15000000Y96682800D03*
X14000000Y96682800D03*
X16000000Y96682800D03*
X14200000Y49650000D03*
X17800000Y49650000D03*
X21200000Y49650000D03*
X37200000Y49650000D03*
X40800000Y49650000D03*
X44000000Y49650000D03*
X44000000Y48850000D03*
X40800000Y48850000D03*
X37200000Y48850000D03*
X21200000Y48850000D03*
X17800000Y48850000D03*
X14200000Y48850000D03*
X8000000Y88850000D03*
X9000000Y88850000D03*
X10000000Y88850000D03*
X10600000Y89650000D03*
X11000000Y88850000D03*
X9800000Y87850000D03*
X10800000Y87850000D03*
X9600000Y86850000D03*
X10600000Y86850000D03*
X9600000Y85850000D03*
X10600000Y85850000D03*
X9000000Y85050000D03*
X10000000Y85050000D03*
X7000000Y84650000D03*
X8000000Y84650000D03*
X8600000Y83650000D03*
X9600000Y84050000D03*
X9600000Y89850000D03*
X25800000Y50080000D03*
X25800000Y49050000D03*
X25800000Y48050000D03*
X26600000Y48450000D03*
X26600000Y49480000D03*
X26600000Y47450000D03*
X32400000Y50280000D03*
X32400000Y49250000D03*
X32400000Y48250000D03*
X33400000Y48450000D03*
X33400000Y49450000D03*
X32400000Y47250000D03*
X20000000Y102300000D03*
X21000000Y102300000D03*
X20000000Y101300000D03*
X21000000Y101300000D03*
X20000000Y100300000D03*
X21000000Y100300000D03*
X20000000Y99300000D03*
X21000000Y99300000D03*
X20000000Y98300000D03*
X21000000Y98300000D03*
X19000000Y101300000D03*
X19000000Y99300000D03*
X19000000Y102300000D03*
X19000000Y100300000D03*
X19000000Y98300000D03*
X22000000Y99300000D03*
X22000000Y98300000D03*
X25000000Y98300000D03*
X24000000Y98300000D03*
X23000000Y98300000D03*
X22000000Y97300000D03*
X25000000Y97300000D03*
X21000000Y97300000D03*
X24000000Y97300000D03*
X23000000Y97300000D03*
X19000000Y97300000D03*
X20000000Y97300000D03*
X14400000Y64250000D03*
X17800000Y64250000D03*
X21200000Y64250000D03*
X14400000Y63450000D03*
X17800000Y63450000D03*
X21200000Y63450000D03*
X30400000Y30250000D03*
X31000000Y102050000D03*
X32000000Y102050000D03*
X30000000Y102050000D03*
X31000000Y101050000D03*
X30000000Y101050000D03*
X32000000Y101050000D03*
X31000000Y100050000D03*
X30000000Y100050000D03*
X30000000Y99050000D03*
X31000000Y99050000D03*
X31000000Y98050000D03*
X30000000Y98050000D03*
X32000000Y99050000D03*
X32000000Y98050000D03*
X32000000Y100050000D03*
X33000000Y98050000D03*
X34000000Y98050000D03*
X35000000Y98050000D03*
X34000000Y97050000D03*
X35000000Y97050000D03*
X30000000Y97050000D03*
X32000000Y97050000D03*
X33000000Y97050000D03*
X31000000Y97050000D03*
X44200000Y64250000D03*
X40800000Y64250000D03*
X37200000Y64250000D03*
X37200000Y63450000D03*
X40800000Y63450000D03*
X44200000Y63450000D03*
X33793924Y36751404D03*
X33800000Y33650000D03*
X32000000Y40450000D03*
X48000000Y19050000D03*
X48000000Y25050000D03*
X54000000Y16050000D03*
X29000000Y9050000D03*
X15050000Y7675000D03*
X19825000Y9550000D03*
X42400000Y38650000D03*
X34800000Y38250000D03*
X25800000Y38050000D03*
X33980733Y32149988D03*
X25750000Y42550000D03*
X28250000Y42300000D03*
X33000000Y42550000D03*
X33000000Y38250000D03*
X34462847Y35086151D03*
X30750000Y42550000D03*
X15000000Y21050000D03*
X9000000Y21050000D03*
X50000000Y35050000D03*
X50000000Y32050000D03*
X48000000Y34743740D03*
D37*
X15290000Y86710000D02*
X15410000Y86710000D01*
X15410000Y86710000D02*
X21100000Y81020000D01*
X33070000Y81510000D02*
X33070000Y86710000D01*
X32580000Y81020000D02*
X33070000Y81510000D01*
X21100000Y81020000D02*
X32580000Y81020000D01*
D38*
X12616000Y66136000D02*
X14400000Y66136000D01*
X35476000Y66136000D02*
X37200000Y66136000D01*
X23354000Y81020000D02*
X21100000Y81020000D01*
X35476000Y68898000D02*
X23354000Y81020000D01*
X35476000Y66136000D02*
X35476000Y68898000D01*
X46204000Y66450000D02*
X45890000Y66136000D01*
X53510000Y66450000D02*
X46204000Y66450000D01*
X53510000Y84050000D02*
X50850000Y86710000D01*
D37*
X50850000Y81510000D02*
X50850000Y86710000D01*
X50360000Y81020000D02*
X50850000Y81510000D01*
X32580000Y81020000D02*
X50360000Y81020000D01*
X50850000Y93530000D02*
X43620000Y100760000D01*
X50850000Y86710000D02*
X50850000Y93530000D01*
D38*
X12616000Y66136000D02*
X12616000Y66684000D01*
X12616000Y66684000D02*
X12000000Y67300000D01*
X12000000Y67300000D02*
X7500000Y67300000D01*
X7350000Y66450000D02*
X4615000Y66450000D01*
X7500000Y66600000D02*
X7350000Y66450000D01*
X7500000Y67300000D02*
X7500000Y66600000D01*
X53510000Y68250000D02*
X53510000Y84050000D01*
X53510000Y66450000D02*
X53510000Y68250000D01*
D39*
X53790001Y44240001D02*
X39790001Y44240001D01*
X38575000Y43025000D02*
X39790001Y44240001D01*
D40*
X36875000Y43025000D02*
X38575000Y43025000D01*
X36000000Y42150000D02*
X36875000Y43025000D01*
X36000000Y40750000D02*
X36000000Y42150000D01*
D38*
X14400000Y66136000D02*
X23030000Y66136000D01*
X37200000Y66136000D02*
X45890000Y66136000D01*
D41*
X39575000Y43025000D02*
X38575000Y43025000D01*
D42*
X41200000Y41400000D02*
X39575000Y43025000D01*
D41*
X41200000Y40850000D02*
X41200000Y41400000D01*
X37318750Y36793750D02*
X37725000Y36387500D01*
X35850000Y36793750D02*
X37318750Y36793750D01*
X39668750Y36143750D02*
X39425000Y36387500D01*
X42150000Y36143750D02*
X39668750Y36143750D01*
X39506250Y32243750D02*
X39425000Y32162500D01*
X42150000Y32243750D02*
X39506250Y32243750D01*
X40762500Y31593750D02*
X40275000Y31106250D01*
X42150000Y31593750D02*
X40762500Y31593750D01*
X42150000Y31593750D02*
X42150000Y32243750D01*
D39*
X38575000Y31106250D02*
X38575000Y43025000D01*
X7500000Y28150000D02*
X7200000Y27850000D01*
X10950000Y28150000D02*
X7500000Y28150000D01*
X25040000Y28010000D02*
X25200000Y27850000D01*
X21400000Y28010000D02*
X25040000Y28010000D01*
D40*
X57400000Y31790000D02*
X57400000Y34330000D01*
X53000000Y43450000D02*
X53790001Y44240001D01*
X44050000Y10800000D02*
X44800000Y10050000D01*
X44050000Y13050000D02*
X44050000Y10800000D01*
X52700000Y10050000D02*
X55700000Y13050000D01*
X55700000Y13050000D02*
X56450000Y13050000D01*
X37700000Y22850000D02*
X37700000Y25050000D01*
X35900000Y21050000D02*
X37700000Y22850000D01*
X10950000Y24311282D02*
X10950000Y28150000D01*
X10619992Y23981274D02*
X10950000Y24311282D01*
X10619992Y19119992D02*
X10619992Y23981274D01*
X10000000Y18500000D02*
X10619992Y19119992D01*
X10000000Y17050000D02*
X10000000Y18500000D01*
X56322370Y34330000D02*
X57400000Y34330000D01*
X53000000Y41050000D02*
X53000000Y38050000D01*
X53000000Y38050000D02*
X53000000Y36600000D01*
X55270000Y34330000D02*
X56322370Y34330000D01*
X53000000Y36600000D02*
X55270000Y34330000D01*
D38*
X38575000Y31106250D02*
X38575000Y25625000D01*
D40*
X47000000Y7050000D02*
X47000000Y10050000D01*
X47000000Y10050000D02*
X52700000Y10050000D01*
X44800000Y10050000D02*
X47000000Y10050000D01*
X31150000Y17250000D02*
X33000000Y19100000D01*
X31150000Y17050000D02*
X31150000Y17250000D01*
X35900000Y21000000D02*
X35900000Y21050000D01*
X34000000Y19100000D02*
X35900000Y21000000D01*
X33000000Y19100000D02*
X34000000Y19100000D01*
X38000000Y25050000D02*
X38575000Y25625000D01*
X37700000Y25050000D02*
X38000000Y25050000D01*
X27400000Y27650000D02*
X28000000Y27050000D01*
X26200000Y27650000D02*
X27400000Y27650000D01*
X30550000Y21550000D02*
X33000000Y19100000D01*
X28000000Y21550000D02*
X30550000Y21550000D01*
X26840000Y3652000D02*
X19220000Y3652000D01*
X40500000Y1550000D02*
X42500000Y3550000D01*
X21862000Y1550000D02*
X40500000Y1550000D01*
X42500000Y7050000D02*
X47000000Y7050000D01*
X21760000Y3652000D02*
X21760000Y1652000D01*
X42500000Y3550000D02*
X42500000Y7050000D01*
X21760000Y1652000D02*
X21862000Y1550000D01*
X42500000Y8800000D02*
X40950000Y10350000D01*
X42500000Y7050000D02*
X42500000Y8800000D01*
X34450001Y17649999D02*
X33000000Y19100000D01*
X34450001Y17499999D02*
X34450001Y17649999D01*
X34850000Y17100000D02*
X34450001Y17499999D01*
D39*
X59050000Y66800000D02*
X54800000Y66800000D01*
X57040001Y44240001D02*
X59100000Y46300000D01*
X59100000Y46300000D02*
X59100000Y66750000D01*
X53790001Y44240001D02*
X57040001Y44240001D01*
X59100000Y66750000D02*
X59050000Y66800000D01*
D38*
X4615000Y66450000D02*
X1600000Y66450000D01*
X12616000Y49245000D02*
X14200000Y49245000D01*
X35476000Y49245000D02*
X37200000Y49245000D01*
X53510000Y47975000D02*
X50985000Y47975000D01*
X49715000Y49245000D02*
X47800000Y49245000D01*
X50985000Y47975000D02*
X49715000Y49245000D01*
D43*
X43350000Y88407056D02*
X38447056Y93310000D01*
X43350000Y86710000D02*
X43350000Y88407056D01*
X14390000Y93310000D02*
X10130000Y89050000D01*
X15120000Y94040000D02*
X15120000Y97500000D01*
X14390000Y93310000D02*
X15120000Y94040000D01*
X25540000Y88437056D02*
X25540000Y93310000D01*
X25570000Y86710000D02*
X25570000Y88407056D01*
X38447056Y93310000D02*
X25540000Y93310000D01*
X25570000Y88407056D02*
X25540000Y88437056D01*
X25540000Y93310000D02*
X14390000Y93310000D01*
X7790000Y86710000D02*
X24700000Y69800000D01*
X25750002Y69800000D02*
X29410000Y66140002D01*
X24700000Y69800000D02*
X25750002Y69800000D01*
X29410000Y66140002D02*
X29410000Y50080000D01*
D38*
X24942630Y50080000D02*
X25800000Y50080000D01*
X24107630Y49245000D02*
X24942630Y50080000D01*
X23030000Y49245000D02*
X24107630Y49245000D01*
X33563370Y50080000D02*
X29410000Y50080000D01*
X34398370Y49245000D02*
X33563370Y50080000D01*
X35476000Y49245000D02*
X34398370Y49245000D01*
X7350000Y47340000D02*
X7390000Y47300000D01*
X4615000Y47340000D02*
X7350000Y47340000D01*
X7390000Y47300000D02*
X8250000Y47300000D01*
X10195000Y49245000D02*
X10800000Y49245000D01*
X8250000Y47300000D02*
X10195000Y49245000D01*
D43*
X15120000Y97500000D02*
X15120000Y100760000D01*
D39*
X10950000Y35000000D02*
X10950000Y34250000D01*
X6700000Y39250000D02*
X10950000Y35000000D01*
X6700000Y45750000D02*
X6700000Y39250000D01*
X8250000Y47300000D02*
X6700000Y45750000D01*
X21260000Y34250000D02*
X21400000Y34110000D01*
X10950000Y34250000D02*
X16000000Y34250000D01*
X16000000Y34250000D02*
X21260000Y34250000D01*
D40*
X51060000Y48050000D02*
X50985000Y47975000D01*
X52200000Y48050000D02*
X51060000Y48050000D01*
D38*
X14200000Y49245000D02*
X17800000Y49245000D01*
X10800000Y49245000D02*
X12616000Y49245000D01*
X17800000Y49245000D02*
X21200000Y49245000D01*
X21200000Y49245000D02*
X23030000Y49245000D01*
X37200000Y49245000D02*
X40800000Y49245000D01*
X40800000Y49245000D02*
X44000000Y49245000D01*
X44000000Y49245000D02*
X45890000Y49245000D01*
X47800000Y49245000D02*
X45890000Y49245000D01*
D43*
X10130000Y89050000D02*
X7790000Y86710000D01*
D38*
X25800000Y50080000D02*
X29410000Y50080000D01*
D39*
X16000000Y26250000D02*
X16000000Y34250000D01*
D44*
X12820000Y23070000D02*
X16000000Y26250000D01*
X21820000Y21900000D02*
X17470000Y26250000D01*
D38*
X21820000Y21285000D02*
X21820000Y22670000D01*
X24000000Y24850000D02*
X30000000Y24850000D01*
X21820000Y22670000D02*
X24000000Y24850000D01*
X52250000Y48000000D02*
X52200000Y48050000D01*
X55200000Y48000000D02*
X52250000Y48000000D01*
X1640000Y47340000D02*
X1600000Y47300000D01*
X4615000Y47340000D02*
X1640000Y47340000D01*
D41*
X33249998Y32899998D02*
X32200000Y31850000D01*
X32200000Y31850000D02*
X32200000Y31150000D01*
X34993752Y32899998D02*
X33249998Y32899998D01*
X35850000Y32893750D02*
X35000000Y32893750D01*
X35000000Y32893750D02*
X34993752Y32899998D01*
D38*
X12616000Y63850000D02*
X14400000Y63850000D01*
X12616000Y51531000D02*
X23030000Y51531000D01*
X4615000Y62580000D02*
X5530000Y62580000D01*
X6800000Y63850000D02*
X12616000Y63850000D01*
X5530000Y62580000D02*
X6800000Y63850000D01*
X4615000Y51210000D02*
X4615000Y51665000D01*
X4615000Y51665000D02*
X6250000Y53300000D01*
X10847000Y53300000D02*
X12616000Y51531000D01*
X6250000Y53300000D02*
X10847000Y53300000D01*
X4615000Y54935000D02*
X4615000Y62580000D01*
X6250000Y53300000D02*
X4615000Y54935000D01*
X14400000Y63850000D02*
X17800000Y63850000D01*
X17800000Y63850000D02*
X21200000Y63850000D01*
X21200000Y63850000D02*
X23030000Y63850000D01*
D41*
X31600000Y30250000D02*
X32200000Y29650000D01*
X30400000Y30250000D02*
X31600000Y30250000D01*
X35850000Y31593750D02*
X34534497Y31593750D01*
X32200000Y29675000D02*
X32200000Y29650000D01*
X33290747Y30350000D02*
X32875000Y30350000D01*
X32875000Y30350000D02*
X32200000Y29675000D01*
X34534497Y31593750D02*
X33290747Y30350000D01*
D38*
X1730000Y62580000D02*
X1600000Y62450000D01*
X4615000Y62580000D02*
X1730000Y62580000D01*
X1690000Y51210000D02*
X1600000Y51300000D01*
X4615000Y51210000D02*
X1690000Y51210000D01*
D41*
X32825002Y34400002D02*
X34160002Y34400002D01*
X34366254Y34193750D02*
X35000000Y34193750D01*
X32000000Y33575000D02*
X32825002Y34400002D01*
X34160002Y34400002D02*
X34366254Y34193750D01*
X32000000Y33550000D02*
X32000000Y33575000D01*
X35000000Y34193750D02*
X35850000Y34193750D01*
D38*
X35476000Y63850000D02*
X37200000Y63850000D01*
X35476000Y51531000D02*
X45890000Y51531000D01*
X46204000Y51845000D02*
X45890000Y51531000D01*
X53510000Y51845000D02*
X46204000Y51845000D01*
X50775000Y62580000D02*
X50395000Y62960000D01*
X53510000Y62580000D02*
X50775000Y62580000D01*
X46967630Y63850000D02*
X46987630Y63830000D01*
X45890000Y63850000D02*
X46967630Y63850000D01*
X49525000Y63830000D02*
X50775000Y62580000D01*
X46987630Y63830000D02*
X49525000Y63830000D01*
X53510000Y51845000D02*
X53510000Y62580000D01*
X44200000Y63850000D02*
X45890000Y63850000D01*
X40800000Y63850000D02*
X44200000Y63850000D01*
X37200000Y63850000D02*
X40800000Y63850000D01*
D41*
X33676404Y36751404D02*
X33793924Y36751404D01*
X32000000Y35075000D02*
X33676404Y36751404D01*
X32000000Y35050000D02*
X32000000Y35075000D01*
X35850000Y35493750D02*
X35165250Y35493750D01*
X34822848Y35836152D02*
X33461152Y35836152D01*
X33461152Y35836152D02*
X32675000Y35050000D01*
X32675000Y35050000D02*
X32000000Y35050000D01*
X35165250Y35493750D02*
X34822848Y35836152D01*
D38*
X54899990Y51920000D02*
X54899990Y52000000D01*
X52200000Y51920000D02*
X54899990Y51920000D01*
D41*
X33906250Y33543750D02*
X33800000Y33650000D01*
X35850000Y33543750D02*
X33906250Y33543750D01*
X35325000Y39250000D02*
X36000000Y39250000D01*
X32715684Y40300001D02*
X34274999Y40300001D01*
X34274999Y40300001D02*
X35325000Y39250000D01*
X32565685Y40450000D02*
X32715684Y40300001D01*
X32000000Y40450000D02*
X32565685Y40450000D01*
D40*
X50350000Y16700000D02*
X48000000Y19050000D01*
X48000000Y27200000D02*
X48660000Y27860000D01*
X48000000Y25050000D02*
X48000000Y27200000D01*
X54000000Y16050000D02*
X50350000Y16050000D01*
X50350000Y16050000D02*
X50350000Y16700000D01*
X50350000Y13050000D02*
X50350000Y16050000D01*
X24000000Y14650000D02*
X25400000Y14650000D01*
X25400000Y14650000D02*
X29000000Y11050000D01*
X29000000Y11050000D02*
X31000000Y11050000D01*
X31200000Y11250000D02*
X31200000Y14650000D01*
X31000000Y11050000D02*
X31200000Y11250000D01*
X29000000Y11050000D02*
X29000000Y9050000D01*
X4070000Y18990000D02*
X4070000Y11370000D01*
X5069999Y10370001D02*
X8929999Y10370001D01*
X4070000Y11370000D02*
X5069999Y10370001D01*
X11625000Y7675000D02*
X15050000Y7675000D01*
X8929999Y10370001D02*
X11625000Y7675000D01*
X19825000Y10475000D02*
X24000000Y14650000D01*
X19825000Y9550000D02*
X19825000Y10475000D01*
X34540000Y3652000D02*
X37080000Y3652000D01*
X51200000Y25844000D02*
X51200000Y27860000D01*
X37950000Y13050000D02*
X37950000Y15300000D01*
X37950000Y15300000D02*
X41700000Y19050000D01*
X41700000Y19050000D02*
X44406000Y19050000D01*
X44406000Y19050000D02*
X51200000Y25844000D01*
X31000000Y8050000D02*
X34000000Y11050000D01*
X34000000Y11050000D02*
X38000000Y11050000D01*
X38000000Y13000000D02*
X37950000Y13050000D01*
X38000000Y11050000D02*
X38000000Y13000000D01*
X15000000Y10350000D02*
X18300000Y7050000D01*
X15000000Y14715000D02*
X15000000Y10350000D01*
X18300000Y7050000D02*
X31000000Y7050000D01*
X31000000Y7050000D02*
X31000000Y8050000D01*
X4000000Y21610000D02*
X4000000Y29230000D01*
X5414213Y21610000D02*
X6975000Y20049213D01*
X4000000Y21610000D02*
X5414213Y21610000D01*
X6975000Y20049213D02*
X6975000Y12700000D01*
X6975000Y12700000D02*
X7300000Y12375000D01*
X7300000Y12375000D02*
X9575000Y12375000D01*
X10000000Y12800000D02*
X10000000Y14250000D01*
X9575000Y12375000D02*
X10000000Y12800000D01*
X11600000Y10350000D02*
X9575000Y12375000D01*
X15000000Y10350000D02*
X11600000Y10350000D01*
X31000000Y6066213D02*
X31000000Y7050000D01*
X32000000Y5066213D02*
X31000000Y6066213D01*
X32000000Y3652000D02*
X32000000Y5066213D01*
X29460000Y3652000D02*
X32000000Y3652000D01*
X36000000Y24850000D02*
X36200000Y25050000D01*
X33000000Y24850000D02*
X36000000Y24850000D01*
X36200000Y25050000D02*
X36200000Y29850000D01*
D41*
X41500000Y29643750D02*
X42150000Y30293750D01*
X41500000Y26050000D02*
X41500000Y29643750D01*
X42150000Y30943750D02*
X43906250Y30943750D01*
X44500000Y30350000D02*
X44500000Y26050000D01*
X43906250Y30943750D02*
X44500000Y30350000D01*
D40*
X38000000Y21050000D02*
X40500000Y21050000D01*
D41*
X42400000Y37693750D02*
X42150000Y37443750D01*
X42400000Y38650000D02*
X42400000Y37693750D01*
D40*
X56040000Y38050000D02*
X57400000Y39410000D01*
X54500000Y38050000D02*
X56040000Y38050000D01*
D41*
X35850000Y37943750D02*
X35543750Y38250000D01*
X35850000Y37443750D02*
X35850000Y37943750D01*
X35543750Y38250000D02*
X34800000Y38250000D01*
D40*
X57923762Y41050000D02*
X59000000Y39973762D01*
X54500000Y41050000D02*
X57923762Y41050000D01*
X59000000Y38470000D02*
X57400000Y36870000D01*
X59000000Y39973762D02*
X59000000Y38470000D01*
X29700000Y17000000D02*
X29650000Y17050000D01*
X29700000Y14650000D02*
X29700000Y17000000D01*
X29650000Y17815000D02*
X26180000Y21285000D01*
X29650000Y17050000D02*
X29650000Y17815000D01*
D41*
X25800000Y38050000D02*
X25800000Y39650000D01*
X35850000Y32243750D02*
X34074495Y32243750D01*
X34074495Y32243750D02*
X33980733Y32149988D01*
D45*
X12616000Y46959000D02*
X23030000Y46959000D01*
D40*
X25800000Y42500000D02*
X25750000Y42550000D01*
X25800000Y41150000D02*
X25800000Y42500000D01*
D41*
X28250000Y38400000D02*
X30400000Y36250000D01*
X33600000Y28650000D02*
X34000000Y29050000D01*
X34000000Y29943750D02*
X35000000Y30943750D01*
X28250000Y39675000D02*
X28250000Y38400000D01*
X34000000Y29050000D02*
X34000000Y29943750D01*
X35000000Y30943750D02*
X35850000Y30943750D01*
X30889998Y28650000D02*
X33600000Y28650000D01*
X29649999Y30610001D02*
X29649999Y29889999D01*
X30400000Y31360002D02*
X29649999Y30610001D01*
X30400000Y36250000D02*
X30400000Y31360002D01*
X29649999Y29889999D02*
X30889998Y28650000D01*
D45*
X12616000Y61564000D02*
X23030000Y61564000D01*
D40*
X28250000Y41175000D02*
X28250000Y42300000D01*
D45*
X35476000Y46959000D02*
X45890000Y46959000D01*
D40*
X33000000Y42550000D02*
X33000000Y41200000D01*
D41*
X33000000Y38250000D02*
X33000000Y39700000D01*
X34705248Y34843750D02*
X34462847Y35086151D01*
X35850000Y34843750D02*
X34705248Y34843750D01*
D45*
X35476000Y61564000D02*
X45890000Y61564000D01*
D40*
X30750000Y41225000D02*
X30750000Y42550000D01*
D41*
X34550002Y36816120D02*
X34550002Y37210002D01*
X35850000Y36143750D02*
X35222372Y36143750D01*
X34160002Y37600002D02*
X33439998Y37600002D01*
X33049998Y37210002D02*
X32714998Y37210002D01*
X30750000Y39175000D02*
X30750000Y39725000D01*
X32714998Y37210002D02*
X30750000Y39175000D01*
X33439998Y37600002D02*
X33049998Y37210002D01*
X34550002Y37210002D02*
X34160002Y37600002D01*
X35222372Y36143750D02*
X34550002Y36816120D01*
X41200000Y38800000D02*
X41200000Y39350000D01*
X41200000Y37013748D02*
X41200000Y38800000D01*
X41419998Y36793750D02*
X41200000Y37013748D01*
X42150000Y36793750D02*
X41419998Y36793750D01*
D40*
X15300000Y21350000D02*
X15000000Y21050000D01*
X17180000Y21350000D02*
X15300000Y21350000D01*
X8500000Y14250000D02*
X8500000Y17050000D01*
X8500000Y20550000D02*
X9000000Y21050000D01*
X8500000Y17050000D02*
X8500000Y20550000D01*
X43250000Y21050000D02*
X46000000Y23800000D01*
X42000000Y21050000D02*
X43250000Y21050000D01*
X46910000Y30250000D02*
X48660000Y30250000D01*
X46000000Y29340000D02*
X46910000Y30250000D01*
X46000000Y23800000D02*
X46000000Y29340000D01*
D41*
X42150000Y35493750D02*
X49556250Y35493750D01*
X49556250Y35493750D02*
X50000000Y35050000D01*
X50000000Y32050000D02*
X50000000Y30250000D01*
D40*
X50000000Y30250000D02*
X51200000Y30250000D01*
X48660000Y30250000D02*
X50000000Y30250000D01*
D41*
X47639999Y33993739D02*
X52656261Y33993739D01*
X56638001Y30011999D02*
X57400000Y29250000D01*
X42150000Y34193750D02*
X47439988Y34193750D01*
X47439988Y34193750D02*
X47639999Y33993739D01*
X52656261Y33993739D02*
X56638001Y30011999D01*
X47432888Y33493728D02*
X47382866Y33543750D01*
X56638001Y27471999D02*
X56638001Y28411999D01*
X57400000Y26710000D02*
X56638001Y27471999D01*
X47382866Y33543750D02*
X42493750Y33543750D01*
X56638001Y28411999D02*
X51556272Y33493728D01*
X51556272Y33493728D02*
X47432888Y33493728D01*
X51156250Y32893750D02*
X53499990Y30550010D01*
X56322370Y24170000D02*
X57400000Y24170000D01*
X53499990Y30550010D02*
X53499990Y26992380D01*
X53499990Y26992380D02*
X56322370Y24170000D01*
X42150000Y32893750D02*
X51156250Y32893750D01*
X42150000Y34843750D02*
X47899990Y34843750D01*
X47899990Y34843750D02*
X48000000Y34743740D01*
D46*
G36*
X55092276Y114625835D02*
X54615000Y113473590D01*
X54615000Y112226410D01*
X55092276Y111074165D01*
X55974165Y110192276D01*
X57126410Y109715000D01*
X58373590Y109715000D01*
X59525835Y110192276D01*
X60407724Y111074165D01*
X60885000Y112226410D01*
X60885000Y113473590D01*
X60407724Y114625835D01*
X59693559Y115340000D01*
X61290000Y115340000D01*
X61290000Y66177000D01*
X51067675Y66177000D01*
X49170416Y69000827D01*
X49135288Y69035776D01*
X49065000Y69057000D01*
X37635372Y69057000D01*
X31200265Y69086769D01*
X26933914Y73064134D01*
X43100000Y73064134D01*
X43100000Y72015866D01*
X43501155Y71047392D01*
X44242392Y70306155D01*
X45210866Y69905000D01*
X46259134Y69905000D01*
X47227608Y70306155D01*
X47968845Y71047392D01*
X48370000Y72015866D01*
X48370000Y73064134D01*
X47968845Y74032608D01*
X47227608Y74773845D01*
X46259134Y75175000D01*
X45210866Y75175000D01*
X44242392Y74773845D01*
X43501155Y74032608D01*
X43100000Y73064134D01*
X26933914Y73064134D01*
X25626971Y74282549D01*
X19149092Y80420510D01*
X31787455Y82174205D01*
X31846419Y82198565D01*
X35108577Y84656221D01*
X38848204Y82786408D01*
X38905000Y82773000D01*
X45255000Y82773000D01*
X45303601Y82782667D01*
X45344803Y82810197D01*
X47884803Y85350197D01*
X47912333Y85391399D01*
X47922000Y85440000D01*
X47922000Y91155000D01*
X47912333Y91203601D01*
X47884803Y91244803D01*
X42804803Y96324803D01*
X42763601Y96352333D01*
X42715000Y96362000D01*
X40862606Y96362000D01*
X38397000Y98827606D01*
X38397000Y103855000D01*
X38387333Y103903601D01*
X38359803Y103944803D01*
X38318601Y103972333D01*
X38270000Y103982000D01*
X11600000Y103982000D01*
X11551399Y103972333D01*
X11510197Y103944803D01*
X11482667Y103903601D01*
X11473000Y103855000D01*
X11473000Y94826559D01*
X11103441Y94457000D01*
X10965000Y94457000D01*
X10916399Y94447333D01*
X10882955Y94426942D01*
X710000Y85817273D01*
X710000Y112673590D01*
X865000Y112673590D01*
X865000Y111426410D01*
X1342276Y110274165D01*
X2224165Y109392276D01*
X3376410Y108915000D01*
X4623590Y108915000D01*
X5775835Y109392276D01*
X6657724Y110274165D01*
X7135000Y111426410D01*
X7135000Y112673590D01*
X6657724Y113825835D01*
X5775835Y114707724D01*
X4623590Y115185000D01*
X3376410Y115185000D01*
X2224165Y114707724D01*
X1342276Y113825835D01*
X865000Y112673590D01*
X710000Y112673590D01*
X710000Y115340000D01*
X55806441Y115340000D01*
X55092276Y114625835D01*
X55092276Y114625835D01*
G37*
X55092276Y114625835D02*
X54615000Y113473590D01*
X54615000Y112226410D01*
X55092276Y111074165D01*
X55974165Y110192276D01*
X57126410Y109715000D01*
X58373590Y109715000D01*
X59525835Y110192276D01*
X60407724Y111074165D01*
X60885000Y112226410D01*
X60885000Y113473590D01*
X60407724Y114625835D01*
X59693559Y115340000D01*
X61290000Y115340000D01*
X61290000Y66177000D01*
X51067675Y66177000D01*
X49170416Y69000827D01*
X49135288Y69035776D01*
X49065000Y69057000D01*
X37635372Y69057000D01*
X31200265Y69086769D01*
X26933914Y73064134D01*
X43100000Y73064134D01*
X43100000Y72015866D01*
X43501155Y71047392D01*
X44242392Y70306155D01*
X45210866Y69905000D01*
X46259134Y69905000D01*
X47227608Y70306155D01*
X47968845Y71047392D01*
X48370000Y72015866D01*
X48370000Y73064134D01*
X47968845Y74032608D01*
X47227608Y74773845D01*
X46259134Y75175000D01*
X45210866Y75175000D01*
X44242392Y74773845D01*
X43501155Y74032608D01*
X43100000Y73064134D01*
X26933914Y73064134D01*
X25626971Y74282549D01*
X19149092Y80420510D01*
X31787455Y82174205D01*
X31846419Y82198565D01*
X35108577Y84656221D01*
X38848204Y82786408D01*
X38905000Y82773000D01*
X45255000Y82773000D01*
X45303601Y82782667D01*
X45344803Y82810197D01*
X47884803Y85350197D01*
X47912333Y85391399D01*
X47922000Y85440000D01*
X47922000Y91155000D01*
X47912333Y91203601D01*
X47884803Y91244803D01*
X42804803Y96324803D01*
X42763601Y96352333D01*
X42715000Y96362000D01*
X40862606Y96362000D01*
X38397000Y98827606D01*
X38397000Y103855000D01*
X38387333Y103903601D01*
X38359803Y103944803D01*
X38318601Y103972333D01*
X38270000Y103982000D01*
X11600000Y103982000D01*
X11551399Y103972333D01*
X11510197Y103944803D01*
X11482667Y103903601D01*
X11473000Y103855000D01*
X11473000Y94826559D01*
X11103441Y94457000D01*
X10965000Y94457000D01*
X10916399Y94447333D01*
X10882955Y94426942D01*
X710000Y85817273D01*
X710000Y112673590D01*
X865000Y112673590D01*
X865000Y111426410D01*
X1342276Y110274165D01*
X2224165Y109392276D01*
X3376410Y108915000D01*
X4623590Y108915000D01*
X5775835Y109392276D01*
X6657724Y110274165D01*
X7135000Y111426410D01*
X7135000Y112673590D01*
X6657724Y113825835D01*
X5775835Y114707724D01*
X4623590Y115185000D01*
X3376410Y115185000D01*
X2224165Y114707724D01*
X1342276Y113825835D01*
X865000Y112673590D01*
X710000Y112673590D01*
X710000Y115340000D01*
X55806441Y115340000D01*
X55092276Y114625835D01*
G36*
X27804736Y96445000D02*
X25848769Y96445000D01*
X25540000Y96506418D01*
X25231231Y96445000D01*
X18502713Y96445000D01*
X18379350Y103173000D01*
X27871729Y103173000D01*
X27804736Y96445000D01*
X27804736Y96445000D01*
G37*
X27804736Y96445000D02*
X25848769Y96445000D01*
X25540000Y96506418D01*
X25231231Y96445000D01*
X18502713Y96445000D01*
X18379350Y103173000D01*
X27871729Y103173000D01*
X27804736Y96445000D01*
G36*
X53129000Y62280982D02*
X53129000Y51023000D01*
X34932608Y51023000D01*
X34833358Y51122250D01*
X34742139Y51258769D01*
X34201315Y51620136D01*
X33724401Y51715000D01*
X33724400Y51715000D01*
X33563370Y51747031D01*
X33402340Y51715000D01*
X32562710Y51715000D01*
X32626339Y58479197D01*
X34537540Y59673698D01*
X47502442Y59923023D01*
X47550848Y59933623D01*
X47591513Y59961941D01*
X47618245Y60003664D01*
X47627000Y60050000D01*
X47627000Y64673000D01*
X51189473Y64673000D01*
X53129000Y62280982D01*
X53129000Y62280982D01*
G37*
X53129000Y62280982D02*
X53129000Y51023000D01*
X34932608Y51023000D01*
X34833358Y51122250D01*
X34742139Y51258769D01*
X34201315Y51620136D01*
X33724401Y51715000D01*
X33724400Y51715000D01*
X33563370Y51747031D01*
X33402340Y51715000D01*
X32562710Y51715000D01*
X32626339Y58479197D01*
X34537540Y59673698D01*
X47502442Y59923023D01*
X47550848Y59933623D01*
X47591513Y59961941D01*
X47618245Y60003664D01*
X47627000Y60050000D01*
X47627000Y64673000D01*
X51189473Y64673000D01*
X53129000Y62280982D01*
G36*
X4873000Y87987250D02*
X4836896Y87933216D01*
X4593582Y86710000D01*
X4836896Y85486784D01*
X4873000Y85432750D01*
X4873000Y84050000D01*
X4882667Y84001399D01*
X4911548Y83958867D01*
X13961593Y75175000D01*
X13210866Y75175000D01*
X12242392Y74773845D01*
X11501155Y74032608D01*
X11100000Y73064134D01*
X11100000Y72015866D01*
X11501155Y71047392D01*
X12242392Y70306155D01*
X13210866Y69905000D01*
X14259134Y69905000D01*
X15227608Y70306155D01*
X15968845Y71047392D01*
X16370000Y72015866D01*
X16370000Y72837428D01*
X21873000Y67496281D01*
X21873000Y66177000D01*
X710000Y66177000D01*
X710000Y89923000D01*
X4873000Y89923000D01*
X4873000Y87987250D01*
X4873000Y87987250D01*
G37*
X4873000Y87987250D02*
X4836896Y87933216D01*
X4593582Y86710000D01*
X4836896Y85486784D01*
X4873000Y85432750D01*
X4873000Y84050000D01*
X4882667Y84001399D01*
X4911548Y83958867D01*
X13961593Y75175000D01*
X13210866Y75175000D01*
X12242392Y74773845D01*
X11501155Y74032608D01*
X11100000Y73064134D01*
X11100000Y72015866D01*
X11501155Y71047392D01*
X12242392Y70306155D01*
X13210866Y69905000D01*
X14259134Y69905000D01*
X15227608Y70306155D01*
X15968845Y71047392D01*
X16370000Y72015866D01*
X16370000Y72837428D01*
X21873000Y67496281D01*
X21873000Y66177000D01*
X710000Y66177000D01*
X710000Y89923000D01*
X4873000Y89923000D01*
X4873000Y87987250D01*
G36*
X43501155Y71047392D02*
X44242392Y70306155D01*
X45210866Y69905000D01*
X46259134Y69905000D01*
X47227608Y70306155D01*
X47968845Y71047392D01*
X48331534Y71923000D01*
X50892415Y71923000D01*
X51850081Y66177000D01*
X34052606Y66177000D01*
X28306606Y71923000D01*
X43138466Y71923000D01*
X43501155Y71047392D01*
X43501155Y71047392D01*
G37*
X43501155Y71047392D02*
X44242392Y70306155D01*
X45210866Y69905000D01*
X46259134Y69905000D01*
X47227608Y70306155D01*
X47968845Y71047392D01*
X48331534Y71923000D01*
X50892415Y71923000D01*
X51850081Y66177000D01*
X34052606Y66177000D01*
X28306606Y71923000D01*
X43138466Y71923000D01*
X43501155Y71047392D01*
G36*
X11978055Y64595864D02*
X12616000Y64468969D01*
X12777031Y64501000D01*
X15094205Y64501000D01*
X15074588Y62951247D01*
X14701584Y62949000D01*
X12922852Y62949000D01*
X12893881Y62961000D01*
X12338119Y62961000D01*
X12273840Y62934375D01*
X11049235Y62926998D01*
X11000693Y62917038D01*
X10959658Y62889260D01*
X10932377Y62847893D01*
X10923023Y62797558D01*
X10973023Y60197558D01*
X10983623Y60149152D01*
X11011941Y60108487D01*
X11053664Y60081755D01*
X11100683Y60073002D01*
X24993004Y60147692D01*
X26247699Y58727282D01*
X26203872Y51715000D01*
X25103655Y51715000D01*
X24942629Y51747030D01*
X24781603Y51715000D01*
X24781599Y51715000D01*
X24304685Y51620136D01*
X23763861Y51258769D01*
X23672642Y51122250D01*
X23452392Y50902000D01*
X10245423Y50902000D01*
X10194999Y50912030D01*
X10144575Y50902000D01*
X3752277Y50902000D01*
X3776871Y62190409D01*
X6696383Y64623336D01*
X11880105Y64661312D01*
X11978055Y64595864D01*
X11978055Y64595864D01*
G37*
X11978055Y64595864D02*
X12616000Y64468969D01*
X12777031Y64501000D01*
X15094205Y64501000D01*
X15074588Y62951247D01*
X14701584Y62949000D01*
X12922852Y62949000D01*
X12893881Y62961000D01*
X12338119Y62961000D01*
X12273840Y62934375D01*
X11049235Y62926998D01*
X11000693Y62917038D01*
X10959658Y62889260D01*
X10932377Y62847893D01*
X10923023Y62797558D01*
X10973023Y60197558D01*
X10983623Y60149152D01*
X11011941Y60108487D01*
X11053664Y60081755D01*
X11100683Y60073002D01*
X24993004Y60147692D01*
X26247699Y58727282D01*
X26203872Y51715000D01*
X25103655Y51715000D01*
X24942629Y51747030D01*
X24781603Y51715000D01*
X24781599Y51715000D01*
X24304685Y51620136D01*
X23763861Y51258769D01*
X23672642Y51122250D01*
X23452392Y50902000D01*
X10245423Y50902000D01*
X10194999Y50912030D01*
X10144575Y50902000D01*
X3752277Y50902000D01*
X3776871Y62190409D01*
X6696383Y64623336D01*
X11880105Y64661312D01*
X11978055Y64595864D01*
G36*
X37373729Y103173152D02*
X37412266Y96487000D01*
X29385908Y96487000D01*
X29328102Y103182845D01*
X37373729Y103173152D01*
X37373729Y103173152D01*
G37*
X37373729Y103173152D02*
X37412266Y96487000D01*
X29385908Y96487000D01*
X29328102Y103182845D01*
X37373729Y103173152D01*
G36*
X46350685Y90768119D02*
X46595418Y85873467D01*
X44795189Y84001230D01*
X41351852Y83952039D01*
X39080206Y84050807D01*
X36093325Y85412825D01*
X42232430Y85412825D01*
X42355565Y85125212D01*
X43037734Y84865293D01*
X43767443Y84886214D01*
X44344435Y85125212D01*
X44467570Y85412825D01*
X43350000Y86530395D01*
X42232430Y85412825D01*
X36093325Y85412825D01*
X36053197Y85431123D01*
X36076425Y87022266D01*
X41505293Y87022266D01*
X41526214Y86292557D01*
X41765212Y85715565D01*
X42052825Y85592430D01*
X43170395Y86710000D01*
X43529605Y86710000D01*
X44647175Y85592430D01*
X44934788Y85715565D01*
X45194707Y86397734D01*
X45173786Y87127443D01*
X44934788Y87704435D01*
X44647175Y87827570D01*
X43529605Y86710000D01*
X43170395Y86710000D01*
X42052825Y87827570D01*
X41765212Y87704435D01*
X41505293Y87022266D01*
X36076425Y87022266D01*
X36090803Y88007175D01*
X42232430Y88007175D01*
X43350000Y86889605D01*
X44467570Y88007175D01*
X44344435Y88294788D01*
X43662266Y88554707D01*
X42932557Y88533786D01*
X42355565Y88294788D01*
X42232430Y88007175D01*
X36090803Y88007175D01*
X36101986Y88773146D01*
X36093030Y88821883D01*
X36057870Y88871237D01*
X35157870Y89646237D01*
X35114734Y89670624D01*
X35079231Y89676930D01*
X31329231Y89801930D01*
X31280335Y89793887D01*
X31222709Y89750270D01*
X30247709Y88425270D01*
X30226691Y88380396D01*
X30223018Y88352116D01*
X30150085Y83976162D01*
X22896766Y83927318D01*
X20058914Y86370338D01*
X17084915Y89044438D01*
X17081899Y89047065D01*
X16281899Y89722065D01*
X16238519Y89746018D01*
X16198295Y89751989D01*
X12602000Y89703717D01*
X12602000Y93574339D01*
X43074657Y93897459D01*
X46350685Y90768119D01*
X46350685Y90768119D01*
G37*
X46350685Y90768119D02*
X46595418Y85873467D01*
X44795189Y84001230D01*
X41351852Y83952039D01*
X39080206Y84050807D01*
X36093325Y85412825D01*
X42232430Y85412825D01*
X42355565Y85125212D01*
X43037734Y84865293D01*
X43767443Y84886214D01*
X44344435Y85125212D01*
X44467570Y85412825D01*
X43350000Y86530395D01*
X42232430Y85412825D01*
X36093325Y85412825D01*
X36053197Y85431123D01*
X36076425Y87022266D01*
X41505293Y87022266D01*
X41526214Y86292557D01*
X41765212Y85715565D01*
X42052825Y85592430D01*
X43170395Y86710000D01*
X43529605Y86710000D01*
X44647175Y85592430D01*
X44934788Y85715565D01*
X45194707Y86397734D01*
X45173786Y87127443D01*
X44934788Y87704435D01*
X44647175Y87827570D01*
X43529605Y86710000D01*
X43170395Y86710000D01*
X42052825Y87827570D01*
X41765212Y87704435D01*
X41505293Y87022266D01*
X36076425Y87022266D01*
X36090803Y88007175D01*
X42232430Y88007175D01*
X43350000Y86889605D01*
X44467570Y88007175D01*
X44344435Y88294788D01*
X43662266Y88554707D01*
X42932557Y88533786D01*
X42355565Y88294788D01*
X42232430Y88007175D01*
X36090803Y88007175D01*
X36101986Y88773146D01*
X36093030Y88821883D01*
X36057870Y88871237D01*
X35157870Y89646237D01*
X35114734Y89670624D01*
X35079231Y89676930D01*
X31329231Y89801930D01*
X31280335Y89793887D01*
X31222709Y89750270D01*
X30247709Y88425270D01*
X30226691Y88380396D01*
X30223018Y88352116D01*
X30150085Y83976162D01*
X22896766Y83927318D01*
X20058914Y86370338D01*
X17084915Y89044438D01*
X17081899Y89047065D01*
X16281899Y89722065D01*
X16238519Y89746018D01*
X16198295Y89751989D01*
X12602000Y89703717D01*
X12602000Y93574339D01*
X43074657Y93897459D01*
X46350685Y90768119D01*
G36*
X33873000Y49804020D02*
X33873000Y47281751D01*
X32323800Y44377000D01*
X26858413Y44377000D01*
X25705105Y45722526D01*
X24527000Y47882385D01*
X24527000Y49788961D01*
X25457691Y50533514D01*
X27015634Y50923000D01*
X32940517Y50923000D01*
X33873000Y49804020D01*
X33873000Y49804020D01*
G37*
X33873000Y49804020D02*
X33873000Y47281751D01*
X32323800Y44377000D01*
X26858413Y44377000D01*
X25705105Y45722526D01*
X24527000Y47882385D01*
X24527000Y49788961D01*
X25457691Y50533514D01*
X27015634Y50923000D01*
X32940517Y50923000D01*
X33873000Y49804020D01*
G36*
X53430854Y37607145D02*
X53681711Y37231711D01*
X53773240Y37170554D01*
X53792191Y37142191D01*
X54002235Y37001843D01*
X54035693Y36995188D01*
X54057145Y36980854D01*
X54388217Y36915000D01*
X55928217Y36915000D01*
X56003000Y36900125D01*
X56003000Y36592119D01*
X56215680Y36078663D01*
X56608663Y35685680D01*
X57122119Y35473000D01*
X57677881Y35473000D01*
X58191337Y35685680D01*
X58584320Y36078663D01*
X58797000Y36592119D01*
X58797000Y36661869D01*
X59723521Y37588389D01*
X59818289Y37651711D01*
X59999559Y37923000D01*
X61290001Y37923000D01*
X61290001Y760000D01*
X710000Y760000D01*
X710000Y4673590D01*
X865000Y4673590D01*
X865000Y3426410D01*
X1342276Y2274165D01*
X2224165Y1392276D01*
X3376410Y915000D01*
X4623590Y915000D01*
X5775835Y1392276D01*
X6657724Y2274165D01*
X7135000Y3426410D01*
X7135000Y4673590D01*
X6657724Y5825835D01*
X5775835Y6707724D01*
X4623590Y7185000D01*
X3376410Y7185000D01*
X2224165Y6707724D01*
X1342276Y5825835D01*
X865000Y4673590D01*
X710000Y4673590D01*
X710000Y30420370D01*
X2870130Y30412369D01*
X2613914Y30156153D01*
X2365000Y29555222D01*
X2365000Y28904778D01*
X2613914Y28303847D01*
X2865001Y28052760D01*
X2865001Y27867240D01*
X2613914Y27616153D01*
X2365000Y27015222D01*
X2365000Y26364778D01*
X2613914Y25763847D01*
X2865001Y25512760D01*
X2865000Y25327239D01*
X2613914Y25076153D01*
X2365000Y24475222D01*
X2365000Y23824778D01*
X2613914Y23223847D01*
X2865000Y22972761D01*
X2865000Y22787239D01*
X2613914Y22536153D01*
X2365000Y21935222D01*
X2365000Y21284778D01*
X2613914Y20683847D01*
X3032761Y20265000D01*
X2683914Y19916153D01*
X2435000Y19315222D01*
X2435000Y18664778D01*
X2683914Y18063847D01*
X2935000Y17812761D01*
X2935000Y17627239D01*
X2683914Y17376153D01*
X2435000Y16775222D01*
X2435000Y16124778D01*
X2683914Y15523847D01*
X2935000Y15272761D01*
X2935001Y15087240D01*
X2683914Y14836153D01*
X2435000Y14235222D01*
X2435000Y13584778D01*
X2683914Y12983847D01*
X2935001Y12732760D01*
X2935001Y12547240D01*
X2683914Y12296153D01*
X2435000Y11695222D01*
X2435000Y11044778D01*
X2683914Y10443847D01*
X3143847Y9983914D01*
X3744778Y9735000D01*
X4099868Y9735000D01*
X4188388Y9646480D01*
X4251710Y9551712D01*
X4627144Y9300855D01*
X5069998Y9212766D01*
X5181781Y9235001D01*
X8459868Y9235001D01*
X10743389Y6951479D01*
X10806711Y6856711D01*
X11131042Y6640000D01*
X11182145Y6605854D01*
X11625000Y6517765D01*
X11736783Y6540000D01*
X15161783Y6540000D01*
X15492855Y6605854D01*
X15868289Y6856711D01*
X16119146Y7232145D01*
X16184444Y7560424D01*
X17418389Y6326479D01*
X17481711Y6231711D01*
X17857145Y5980854D01*
X18300000Y5892765D01*
X18411783Y5915000D01*
X29872843Y5915000D01*
X29930854Y5623359D01*
X30181711Y5247924D01*
X30276481Y5184601D01*
X30674081Y4787000D01*
X30637239Y4787000D01*
X30386153Y5038086D01*
X29785222Y5287000D01*
X29134778Y5287000D01*
X28533847Y5038086D01*
X28073914Y4578153D01*
X27825000Y3977222D01*
X27825000Y3326778D01*
X28073914Y2725847D01*
X28533847Y2265914D01*
X29134778Y2017000D01*
X29785222Y2017000D01*
X30386153Y2265914D01*
X30637239Y2517000D01*
X30822761Y2517000D01*
X31073847Y2265914D01*
X31674778Y2017000D01*
X32325222Y2017000D01*
X32926153Y2265914D01*
X33270000Y2609761D01*
X33613847Y2265914D01*
X34214778Y2017000D01*
X34865222Y2017000D01*
X35466153Y2265914D01*
X35717239Y2517000D01*
X35902761Y2517000D01*
X36153847Y2265914D01*
X36754778Y2017000D01*
X37405222Y2017000D01*
X38006153Y2265914D01*
X38466086Y2725847D01*
X38715000Y3326778D01*
X38715000Y3977222D01*
X38466086Y4578153D01*
X38170649Y4873590D01*
X54615000Y4873590D01*
X54615000Y3626410D01*
X55092276Y2474165D01*
X55974165Y1592276D01*
X57126410Y1115000D01*
X58373590Y1115000D01*
X59525835Y1592276D01*
X60407724Y2474165D01*
X60885000Y3626410D01*
X60885000Y4873590D01*
X60407724Y6025835D01*
X59525835Y6907724D01*
X58373590Y7385000D01*
X57126410Y7385000D01*
X55974165Y6907724D01*
X55092276Y6025835D01*
X54615000Y4873590D01*
X38170649Y4873590D01*
X38006153Y5038086D01*
X37405222Y5287000D01*
X36754778Y5287000D01*
X36153847Y5038086D01*
X35902761Y4787000D01*
X35717239Y4787000D01*
X35466153Y5038086D01*
X34865222Y5287000D01*
X34214778Y5287000D01*
X33613847Y5038086D01*
X33270000Y4694239D01*
X33135000Y4829239D01*
X33135000Y4954430D01*
X33157235Y5066213D01*
X33069146Y5509068D01*
X32881609Y5789737D01*
X32818289Y5884502D01*
X32723523Y5947822D01*
X32135000Y6536345D01*
X32135000Y6938218D01*
X32157235Y7050000D01*
X32135000Y7161783D01*
X32135000Y7579869D01*
X34470132Y9915000D01*
X37888217Y9915000D01*
X38000000Y9892765D01*
X38111783Y9915000D01*
X38442855Y9980854D01*
X38818289Y10231711D01*
X39069146Y10607145D01*
X39157235Y11050000D01*
X39136835Y11152560D01*
X39950000Y11152560D01*
X40197765Y11201843D01*
X40407809Y11342191D01*
X40548157Y11552235D01*
X40597440Y11800000D01*
X40597440Y14300000D01*
X40548157Y14547765D01*
X40407809Y14757809D01*
X40197765Y14898157D01*
X39950000Y14947440D01*
X39202571Y14947440D01*
X42170132Y17915000D01*
X44294217Y17915000D01*
X44406000Y17892765D01*
X44517783Y17915000D01*
X44848855Y17980854D01*
X45224289Y18231711D01*
X45287613Y18326482D01*
X46011131Y19050000D01*
X46842765Y19050000D01*
X46930854Y18607146D01*
X47118392Y18326477D01*
X49215000Y16229868D01*
X49215000Y16161783D01*
X49192765Y16050000D01*
X49215001Y15938212D01*
X49215001Y14947440D01*
X48350000Y14947440D01*
X48102235Y14898157D01*
X47892191Y14757809D01*
X47751843Y14547765D01*
X47702560Y14300000D01*
X47702560Y11800000D01*
X47751843Y11552235D01*
X47892191Y11342191D01*
X48102235Y11201843D01*
X48350000Y11152560D01*
X52350000Y11152560D01*
X52597765Y11201843D01*
X52807809Y11342191D01*
X52948157Y11552235D01*
X52997440Y11800000D01*
X52997440Y14300000D01*
X52948157Y14547765D01*
X52807809Y14757809D01*
X52597765Y14898157D01*
X52513089Y14915000D01*
X54111783Y14915000D01*
X54442855Y14980854D01*
X54818289Y15231711D01*
X55069146Y15607145D01*
X55157235Y16050000D01*
X55069146Y16492855D01*
X54818289Y16868289D01*
X54442855Y17119146D01*
X54111783Y17185000D01*
X51390986Y17185000D01*
X51168289Y17518289D01*
X51073521Y17581611D01*
X48723523Y19931608D01*
X48442854Y20119146D01*
X48000000Y20207235D01*
X47557146Y20119146D01*
X47181712Y19868288D01*
X46930854Y19492854D01*
X46842765Y19050000D01*
X46011131Y19050000D01*
X51923522Y24962390D01*
X52018289Y25025711D01*
X52269146Y25401145D01*
X52335000Y25732217D01*
X52335000Y25732218D01*
X52357235Y25844000D01*
X52335000Y25955783D01*
X52335000Y26337541D01*
X52407809Y26386191D01*
X52548157Y26596235D01*
X52597440Y26844000D01*
X52597440Y28876000D01*
X52561835Y29055000D01*
X52597440Y29234000D01*
X52597440Y30342402D01*
X52714990Y30224852D01*
X52714991Y27069697D01*
X52699612Y26992380D01*
X52760536Y26686089D01*
X52890241Y26491972D01*
X52890244Y26491969D01*
X52934038Y26426427D01*
X52999580Y26382633D01*
X55712623Y23669589D01*
X55756417Y23604047D01*
X55821959Y23560253D01*
X55821961Y23560251D01*
X55984205Y23451843D01*
X56016078Y23430546D01*
X56210182Y23391936D01*
X56215680Y23378663D01*
X56608663Y22985680D01*
X56815513Y22900000D01*
X56608663Y22814320D01*
X56215680Y22421337D01*
X56003000Y21907881D01*
X56003000Y21352119D01*
X56215680Y20838663D01*
X56608663Y20445680D01*
X57122119Y20233000D01*
X57677881Y20233000D01*
X58191337Y20445680D01*
X58584320Y20838663D01*
X58797000Y21352119D01*
X58797000Y21907881D01*
X58584320Y22421337D01*
X58191337Y22814320D01*
X57984487Y22900000D01*
X58191337Y22985680D01*
X58584320Y23378663D01*
X58797000Y23892119D01*
X58797000Y24447881D01*
X58584320Y24961337D01*
X58191337Y25354320D01*
X57984487Y25440000D01*
X58191337Y25525680D01*
X58584320Y25918663D01*
X58797000Y26432119D01*
X58797000Y26987881D01*
X58584320Y27501337D01*
X58191337Y27894320D01*
X57984487Y27980000D01*
X58191337Y28065680D01*
X58584320Y28458663D01*
X58797000Y28972119D01*
X58797000Y29527881D01*
X58584320Y30041337D01*
X58191337Y30434320D01*
X57677881Y30647000D01*
X57122119Y30647000D01*
X57115782Y30644375D01*
X53266010Y34494147D01*
X53222214Y34559692D01*
X52962553Y34733193D01*
X52733577Y34778739D01*
X52733573Y34778739D01*
X52656261Y34794117D01*
X52578949Y34778739D01*
X51007916Y34778739D01*
X51035000Y34844126D01*
X51035000Y35255874D01*
X50961917Y35432311D01*
X51689803Y36160197D01*
X51717333Y36201399D01*
X51727000Y36250000D01*
X51727000Y37923000D01*
X53368027Y37923000D01*
X53430854Y37607145D01*
X53430854Y37607145D01*
G37*
X53430854Y37607145D02*
X53681711Y37231711D01*
X53773240Y37170554D01*
X53792191Y37142191D01*
X54002235Y37001843D01*
X54035693Y36995188D01*
X54057145Y36980854D01*
X54388217Y36915000D01*
X55928217Y36915000D01*
X56003000Y36900125D01*
X56003000Y36592119D01*
X56215680Y36078663D01*
X56608663Y35685680D01*
X57122119Y35473000D01*
X57677881Y35473000D01*
X58191337Y35685680D01*
X58584320Y36078663D01*
X58797000Y36592119D01*
X58797000Y36661869D01*
X59723521Y37588389D01*
X59818289Y37651711D01*
X59999559Y37923000D01*
X61290001Y37923000D01*
X61290001Y760000D01*
X710000Y760000D01*
X710000Y4673590D01*
X865000Y4673590D01*
X865000Y3426410D01*
X1342276Y2274165D01*
X2224165Y1392276D01*
X3376410Y915000D01*
X4623590Y915000D01*
X5775835Y1392276D01*
X6657724Y2274165D01*
X7135000Y3426410D01*
X7135000Y4673590D01*
X6657724Y5825835D01*
X5775835Y6707724D01*
X4623590Y7185000D01*
X3376410Y7185000D01*
X2224165Y6707724D01*
X1342276Y5825835D01*
X865000Y4673590D01*
X710000Y4673590D01*
X710000Y30420370D01*
X2870130Y30412369D01*
X2613914Y30156153D01*
X2365000Y29555222D01*
X2365000Y28904778D01*
X2613914Y28303847D01*
X2865001Y28052760D01*
X2865001Y27867240D01*
X2613914Y27616153D01*
X2365000Y27015222D01*
X2365000Y26364778D01*
X2613914Y25763847D01*
X2865001Y25512760D01*
X2865000Y25327239D01*
X2613914Y25076153D01*
X2365000Y24475222D01*
X2365000Y23824778D01*
X2613914Y23223847D01*
X2865000Y22972761D01*
X2865000Y22787239D01*
X2613914Y22536153D01*
X2365000Y21935222D01*
X2365000Y21284778D01*
X2613914Y20683847D01*
X3032761Y20265000D01*
X2683914Y19916153D01*
X2435000Y19315222D01*
X2435000Y18664778D01*
X2683914Y18063847D01*
X2935000Y17812761D01*
X2935000Y17627239D01*
X2683914Y17376153D01*
X2435000Y16775222D01*
X2435000Y16124778D01*
X2683914Y15523847D01*
X2935000Y15272761D01*
X2935001Y15087240D01*
X2683914Y14836153D01*
X2435000Y14235222D01*
X2435000Y13584778D01*
X2683914Y12983847D01*
X2935001Y12732760D01*
X2935001Y12547240D01*
X2683914Y12296153D01*
X2435000Y11695222D01*
X2435000Y11044778D01*
X2683914Y10443847D01*
X3143847Y9983914D01*
X3744778Y9735000D01*
X4099868Y9735000D01*
X4188388Y9646480D01*
X4251710Y9551712D01*
X4627144Y9300855D01*
X5069998Y9212766D01*
X5181781Y9235001D01*
X8459868Y9235001D01*
X10743389Y6951479D01*
X10806711Y6856711D01*
X11131042Y6640000D01*
X11182145Y6605854D01*
X11625000Y6517765D01*
X11736783Y6540000D01*
X15161783Y6540000D01*
X15492855Y6605854D01*
X15868289Y6856711D01*
X16119146Y7232145D01*
X16184444Y7560424D01*
X17418389Y6326479D01*
X17481711Y6231711D01*
X17857145Y5980854D01*
X18300000Y5892765D01*
X18411783Y5915000D01*
X29872843Y5915000D01*
X29930854Y5623359D01*
X30181711Y5247924D01*
X30276481Y5184601D01*
X30674081Y4787000D01*
X30637239Y4787000D01*
X30386153Y5038086D01*
X29785222Y5287000D01*
X29134778Y5287000D01*
X28533847Y5038086D01*
X28073914Y4578153D01*
X27825000Y3977222D01*
X27825000Y3326778D01*
X28073914Y2725847D01*
X28533847Y2265914D01*
X29134778Y2017000D01*
X29785222Y2017000D01*
X30386153Y2265914D01*
X30637239Y2517000D01*
X30822761Y2517000D01*
X31073847Y2265914D01*
X31674778Y2017000D01*
X32325222Y2017000D01*
X32926153Y2265914D01*
X33270000Y2609761D01*
X33613847Y2265914D01*
X34214778Y2017000D01*
X34865222Y2017000D01*
X35466153Y2265914D01*
X35717239Y2517000D01*
X35902761Y2517000D01*
X36153847Y2265914D01*
X36754778Y2017000D01*
X37405222Y2017000D01*
X38006153Y2265914D01*
X38466086Y2725847D01*
X38715000Y3326778D01*
X38715000Y3977222D01*
X38466086Y4578153D01*
X38170649Y4873590D01*
X54615000Y4873590D01*
X54615000Y3626410D01*
X55092276Y2474165D01*
X55974165Y1592276D01*
X57126410Y1115000D01*
X58373590Y1115000D01*
X59525835Y1592276D01*
X60407724Y2474165D01*
X60885000Y3626410D01*
X60885000Y4873590D01*
X60407724Y6025835D01*
X59525835Y6907724D01*
X58373590Y7385000D01*
X57126410Y7385000D01*
X55974165Y6907724D01*
X55092276Y6025835D01*
X54615000Y4873590D01*
X38170649Y4873590D01*
X38006153Y5038086D01*
X37405222Y5287000D01*
X36754778Y5287000D01*
X36153847Y5038086D01*
X35902761Y4787000D01*
X35717239Y4787000D01*
X35466153Y5038086D01*
X34865222Y5287000D01*
X34214778Y5287000D01*
X33613847Y5038086D01*
X33270000Y4694239D01*
X33135000Y4829239D01*
X33135000Y4954430D01*
X33157235Y5066213D01*
X33069146Y5509068D01*
X32881609Y5789737D01*
X32818289Y5884502D01*
X32723523Y5947822D01*
X32135000Y6536345D01*
X32135000Y6938218D01*
X32157235Y7050000D01*
X32135000Y7161783D01*
X32135000Y7579869D01*
X34470132Y9915000D01*
X37888217Y9915000D01*
X38000000Y9892765D01*
X38111783Y9915000D01*
X38442855Y9980854D01*
X38818289Y10231711D01*
X39069146Y10607145D01*
X39157235Y11050000D01*
X39136835Y11152560D01*
X39950000Y11152560D01*
X40197765Y11201843D01*
X40407809Y11342191D01*
X40548157Y11552235D01*
X40597440Y11800000D01*
X40597440Y14300000D01*
X40548157Y14547765D01*
X40407809Y14757809D01*
X40197765Y14898157D01*
X39950000Y14947440D01*
X39202571Y14947440D01*
X42170132Y17915000D01*
X44294217Y17915000D01*
X44406000Y17892765D01*
X44517783Y17915000D01*
X44848855Y17980854D01*
X45224289Y18231711D01*
X45287613Y18326482D01*
X46011131Y19050000D01*
X46842765Y19050000D01*
X46930854Y18607146D01*
X47118392Y18326477D01*
X49215000Y16229868D01*
X49215000Y16161783D01*
X49192765Y16050000D01*
X49215001Y15938212D01*
X49215001Y14947440D01*
X48350000Y14947440D01*
X48102235Y14898157D01*
X47892191Y14757809D01*
X47751843Y14547765D01*
X47702560Y14300000D01*
X47702560Y11800000D01*
X47751843Y11552235D01*
X47892191Y11342191D01*
X48102235Y11201843D01*
X48350000Y11152560D01*
X52350000Y11152560D01*
X52597765Y11201843D01*
X52807809Y11342191D01*
X52948157Y11552235D01*
X52997440Y11800000D01*
X52997440Y14300000D01*
X52948157Y14547765D01*
X52807809Y14757809D01*
X52597765Y14898157D01*
X52513089Y14915000D01*
X54111783Y14915000D01*
X54442855Y14980854D01*
X54818289Y15231711D01*
X55069146Y15607145D01*
X55157235Y16050000D01*
X55069146Y16492855D01*
X54818289Y16868289D01*
X54442855Y17119146D01*
X54111783Y17185000D01*
X51390986Y17185000D01*
X51168289Y17518289D01*
X51073521Y17581611D01*
X48723523Y19931608D01*
X48442854Y20119146D01*
X48000000Y20207235D01*
X47557146Y20119146D01*
X47181712Y19868288D01*
X46930854Y19492854D01*
X46842765Y19050000D01*
X46011131Y19050000D01*
X51923522Y24962390D01*
X52018289Y25025711D01*
X52269146Y25401145D01*
X52335000Y25732217D01*
X52335000Y25732218D01*
X52357235Y25844000D01*
X52335000Y25955783D01*
X52335000Y26337541D01*
X52407809Y26386191D01*
X52548157Y26596235D01*
X52597440Y26844000D01*
X52597440Y28876000D01*
X52561835Y29055000D01*
X52597440Y29234000D01*
X52597440Y30342402D01*
X52714990Y30224852D01*
X52714991Y27069697D01*
X52699612Y26992380D01*
X52760536Y26686089D01*
X52890241Y26491972D01*
X52890244Y26491969D01*
X52934038Y26426427D01*
X52999580Y26382633D01*
X55712623Y23669589D01*
X55756417Y23604047D01*
X55821959Y23560253D01*
X55821961Y23560251D01*
X55984205Y23451843D01*
X56016078Y23430546D01*
X56210182Y23391936D01*
X56215680Y23378663D01*
X56608663Y22985680D01*
X56815513Y22900000D01*
X56608663Y22814320D01*
X56215680Y22421337D01*
X56003000Y21907881D01*
X56003000Y21352119D01*
X56215680Y20838663D01*
X56608663Y20445680D01*
X57122119Y20233000D01*
X57677881Y20233000D01*
X58191337Y20445680D01*
X58584320Y20838663D01*
X58797000Y21352119D01*
X58797000Y21907881D01*
X58584320Y22421337D01*
X58191337Y22814320D01*
X57984487Y22900000D01*
X58191337Y22985680D01*
X58584320Y23378663D01*
X58797000Y23892119D01*
X58797000Y24447881D01*
X58584320Y24961337D01*
X58191337Y25354320D01*
X57984487Y25440000D01*
X58191337Y25525680D01*
X58584320Y25918663D01*
X58797000Y26432119D01*
X58797000Y26987881D01*
X58584320Y27501337D01*
X58191337Y27894320D01*
X57984487Y27980000D01*
X58191337Y28065680D01*
X58584320Y28458663D01*
X58797000Y28972119D01*
X58797000Y29527881D01*
X58584320Y30041337D01*
X58191337Y30434320D01*
X57677881Y30647000D01*
X57122119Y30647000D01*
X57115782Y30644375D01*
X53266010Y34494147D01*
X53222214Y34559692D01*
X52962553Y34733193D01*
X52733577Y34778739D01*
X52733573Y34778739D01*
X52656261Y34794117D01*
X52578949Y34778739D01*
X51007916Y34778739D01*
X51035000Y34844126D01*
X51035000Y35255874D01*
X50961917Y35432311D01*
X51689803Y36160197D01*
X51717333Y36201399D01*
X51727000Y36250000D01*
X51727000Y37923000D01*
X53368027Y37923000D01*
X53430854Y37607145D01*
G36*
X26938780Y30323226D02*
X29300830Y27370664D01*
X29338739Y27338752D01*
X29400000Y27323000D01*
X35065000Y27323000D01*
X35065000Y25985000D01*
X34039868Y25985000D01*
X33957809Y26107809D01*
X33747765Y26248157D01*
X33500000Y26297440D01*
X32500000Y26297440D01*
X32252235Y26248157D01*
X32042191Y26107809D01*
X31901843Y25897765D01*
X31852560Y25650000D01*
X31852560Y24899243D01*
X31842765Y24850000D01*
X31852560Y24800757D01*
X31852560Y24050000D01*
X31901843Y23802235D01*
X32042191Y23592191D01*
X32252235Y23451843D01*
X32500000Y23402560D01*
X33500000Y23402560D01*
X33747765Y23451843D01*
X33957809Y23592191D01*
X34039868Y23715000D01*
X35888217Y23715000D01*
X36000000Y23692765D01*
X36111783Y23715000D01*
X36442855Y23780854D01*
X36818289Y24031711D01*
X36848994Y24077664D01*
X37057809Y24217191D01*
X37198157Y24427235D01*
X37219021Y24532128D01*
X37269146Y24607145D01*
X37335000Y24938217D01*
X37335000Y24938218D01*
X37357235Y25050000D01*
X37335000Y25161783D01*
X37335000Y27323000D01*
X40357135Y27323000D01*
X40352560Y27300000D01*
X40352560Y24800000D01*
X40401843Y24552235D01*
X40542191Y24342191D01*
X40752235Y24201843D01*
X41000000Y24152560D01*
X42000000Y24152560D01*
X42247765Y24201843D01*
X42457809Y24342191D01*
X42598157Y24552235D01*
X42647440Y24800000D01*
X42647440Y27300000D01*
X42642865Y27323000D01*
X43357135Y27323000D01*
X43352560Y27300000D01*
X43352560Y24800000D01*
X43401843Y24552235D01*
X43542191Y24342191D01*
X43752235Y24201843D01*
X44000000Y24152560D01*
X44747428Y24152560D01*
X42779869Y22185000D01*
X41888217Y22185000D01*
X41557145Y22119146D01*
X41535693Y22104812D01*
X41502235Y22098157D01*
X41292191Y21957809D01*
X41273240Y21929446D01*
X41250000Y21913918D01*
X41226760Y21929446D01*
X41207809Y21957809D01*
X40997765Y22098157D01*
X40964307Y22104812D01*
X40942855Y22119146D01*
X40611783Y22185000D01*
X37888217Y22185000D01*
X37699389Y22147440D01*
X37600000Y22147440D01*
X37352235Y22098157D01*
X37142191Y21957809D01*
X37001843Y21747765D01*
X36959737Y21536081D01*
X36930854Y21492855D01*
X36842765Y21050000D01*
X36930854Y20607145D01*
X36959737Y20563919D01*
X37001843Y20352235D01*
X37142191Y20142191D01*
X37352235Y20001843D01*
X37600000Y19952560D01*
X37699389Y19952560D01*
X37888217Y19915000D01*
X40611783Y19915000D01*
X40942855Y19980854D01*
X40964307Y19995188D01*
X40997765Y20001843D01*
X41207809Y20142191D01*
X41226760Y20170554D01*
X41250000Y20186082D01*
X41273240Y20170554D01*
X41292191Y20142191D01*
X41310729Y20129804D01*
X41283408Y20124370D01*
X41257145Y20119146D01*
X40881711Y19868289D01*
X40818389Y19773521D01*
X37226480Y16181611D01*
X37131712Y16118289D01*
X37011392Y15938217D01*
X36880854Y15742854D01*
X36792765Y15300000D01*
X36815001Y15188212D01*
X36815001Y14947440D01*
X35950000Y14947440D01*
X35702235Y14898157D01*
X35492191Y14757809D01*
X35351843Y14547765D01*
X35302560Y14300000D01*
X35302560Y12185000D01*
X34111783Y12185000D01*
X34000000Y12207235D01*
X33888217Y12185000D01*
X33557145Y12119146D01*
X33181711Y11868289D01*
X33118389Y11773521D01*
X32298230Y10953362D01*
X32335000Y11138217D01*
X32335000Y11138218D01*
X32357235Y11250000D01*
X32335000Y11361783D01*
X32335000Y14761783D01*
X32269146Y15092855D01*
X32018289Y15468289D01*
X31926760Y15529446D01*
X31907809Y15557809D01*
X31697765Y15698157D01*
X31664307Y15704812D01*
X31642855Y15719146D01*
X31200000Y15807235D01*
X30835000Y15734632D01*
X30835000Y15965000D01*
X30866250Y15965000D01*
X31025000Y16123750D01*
X31025000Y16923000D01*
X31275000Y16923000D01*
X31275000Y16123750D01*
X31433750Y15965000D01*
X31526309Y15965000D01*
X31759698Y16061673D01*
X31938327Y16240301D01*
X32035000Y16473690D01*
X32035000Y16764250D01*
X31876250Y16923000D01*
X31275000Y16923000D01*
X31025000Y16923000D01*
X31003000Y16923000D01*
X31003000Y17177000D01*
X31025000Y17177000D01*
X31025000Y17976250D01*
X31275000Y17976250D01*
X31275000Y17177000D01*
X31876250Y17177000D01*
X32035000Y17335750D01*
X32035000Y17626310D01*
X31938327Y17859699D01*
X31759698Y18038327D01*
X31526309Y18135000D01*
X31433750Y18135000D01*
X31275000Y17976250D01*
X31025000Y17976250D01*
X30866250Y18135000D01*
X30773691Y18135000D01*
X30745875Y18123478D01*
X30719146Y18257855D01*
X30673294Y18326477D01*
X30468289Y18633289D01*
X30373521Y18696611D01*
X27602440Y21467691D01*
X27602440Y22675000D01*
X27553157Y22922765D01*
X27412809Y23132809D01*
X27289802Y23215000D01*
X30161031Y23215000D01*
X30637945Y23309864D01*
X31178769Y23671231D01*
X31540136Y24212055D01*
X31667031Y24850000D01*
X31540136Y25487945D01*
X31178769Y26028769D01*
X30637945Y26390136D01*
X30161031Y26485000D01*
X24574869Y26485000D01*
X24786280Y26572569D01*
X25077431Y26863720D01*
X25235000Y27244126D01*
X25235000Y27655874D01*
X25077431Y28036280D01*
X24786280Y28327431D01*
X24405874Y28485000D01*
X23994126Y28485000D01*
X23613720Y28327431D01*
X23322569Y28036280D01*
X23165000Y27655874D01*
X23165000Y27244126D01*
X23322569Y26863720D01*
X23613720Y26572569D01*
X23829620Y26483140D01*
X23362054Y26390136D01*
X22957746Y26119986D01*
X22957744Y26119984D01*
X22821231Y26028769D01*
X22730015Y25892255D01*
X21611777Y24774016D01*
X18671618Y27714174D01*
X18205490Y28025630D01*
X18135000Y28039651D01*
X18135000Y30355833D01*
X26938780Y30323226D01*
X26938780Y30323226D01*
G37*
X26938780Y30323226D02*
X29300830Y27370664D01*
X29338739Y27338752D01*
X29400000Y27323000D01*
X35065000Y27323000D01*
X35065000Y25985000D01*
X34039868Y25985000D01*
X33957809Y26107809D01*
X33747765Y26248157D01*
X33500000Y26297440D01*
X32500000Y26297440D01*
X32252235Y26248157D01*
X32042191Y26107809D01*
X31901843Y25897765D01*
X31852560Y25650000D01*
X31852560Y24899243D01*
X31842765Y24850000D01*
X31852560Y24800757D01*
X31852560Y24050000D01*
X31901843Y23802235D01*
X32042191Y23592191D01*
X32252235Y23451843D01*
X32500000Y23402560D01*
X33500000Y23402560D01*
X33747765Y23451843D01*
X33957809Y23592191D01*
X34039868Y23715000D01*
X35888217Y23715000D01*
X36000000Y23692765D01*
X36111783Y23715000D01*
X36442855Y23780854D01*
X36818289Y24031711D01*
X36848994Y24077664D01*
X37057809Y24217191D01*
X37198157Y24427235D01*
X37219021Y24532128D01*
X37269146Y24607145D01*
X37335000Y24938217D01*
X37335000Y24938218D01*
X37357235Y25050000D01*
X37335000Y25161783D01*
X37335000Y27323000D01*
X40357135Y27323000D01*
X40352560Y27300000D01*
X40352560Y24800000D01*
X40401843Y24552235D01*
X40542191Y24342191D01*
X40752235Y24201843D01*
X41000000Y24152560D01*
X42000000Y24152560D01*
X42247765Y24201843D01*
X42457809Y24342191D01*
X42598157Y24552235D01*
X42647440Y24800000D01*
X42647440Y27300000D01*
X42642865Y27323000D01*
X43357135Y27323000D01*
X43352560Y27300000D01*
X43352560Y24800000D01*
X43401843Y24552235D01*
X43542191Y24342191D01*
X43752235Y24201843D01*
X44000000Y24152560D01*
X44747428Y24152560D01*
X42779869Y22185000D01*
X41888217Y22185000D01*
X41557145Y22119146D01*
X41535693Y22104812D01*
X41502235Y22098157D01*
X41292191Y21957809D01*
X41273240Y21929446D01*
X41250000Y21913918D01*
X41226760Y21929446D01*
X41207809Y21957809D01*
X40997765Y22098157D01*
X40964307Y22104812D01*
X40942855Y22119146D01*
X40611783Y22185000D01*
X37888217Y22185000D01*
X37699389Y22147440D01*
X37600000Y22147440D01*
X37352235Y22098157D01*
X37142191Y21957809D01*
X37001843Y21747765D01*
X36959737Y21536081D01*
X36930854Y21492855D01*
X36842765Y21050000D01*
X36930854Y20607145D01*
X36959737Y20563919D01*
X37001843Y20352235D01*
X37142191Y20142191D01*
X37352235Y20001843D01*
X37600000Y19952560D01*
X37699389Y19952560D01*
X37888217Y19915000D01*
X40611783Y19915000D01*
X40942855Y19980854D01*
X40964307Y19995188D01*
X40997765Y20001843D01*
X41207809Y20142191D01*
X41226760Y20170554D01*
X41250000Y20186082D01*
X41273240Y20170554D01*
X41292191Y20142191D01*
X41310729Y20129804D01*
X41283408Y20124370D01*
X41257145Y20119146D01*
X40881711Y19868289D01*
X40818389Y19773521D01*
X37226480Y16181611D01*
X37131712Y16118289D01*
X37011392Y15938217D01*
X36880854Y15742854D01*
X36792765Y15300000D01*
X36815001Y15188212D01*
X36815001Y14947440D01*
X35950000Y14947440D01*
X35702235Y14898157D01*
X35492191Y14757809D01*
X35351843Y14547765D01*
X35302560Y14300000D01*
X35302560Y12185000D01*
X34111783Y12185000D01*
X34000000Y12207235D01*
X33888217Y12185000D01*
X33557145Y12119146D01*
X33181711Y11868289D01*
X33118389Y11773521D01*
X32298230Y10953362D01*
X32335000Y11138217D01*
X32335000Y11138218D01*
X32357235Y11250000D01*
X32335000Y11361783D01*
X32335000Y14761783D01*
X32269146Y15092855D01*
X32018289Y15468289D01*
X31926760Y15529446D01*
X31907809Y15557809D01*
X31697765Y15698157D01*
X31664307Y15704812D01*
X31642855Y15719146D01*
X31200000Y15807235D01*
X30835000Y15734632D01*
X30835000Y15965000D01*
X30866250Y15965000D01*
X31025000Y16123750D01*
X31025000Y16923000D01*
X31275000Y16923000D01*
X31275000Y16123750D01*
X31433750Y15965000D01*
X31526309Y15965000D01*
X31759698Y16061673D01*
X31938327Y16240301D01*
X32035000Y16473690D01*
X32035000Y16764250D01*
X31876250Y16923000D01*
X31275000Y16923000D01*
X31025000Y16923000D01*
X31003000Y16923000D01*
X31003000Y17177000D01*
X31025000Y17177000D01*
X31025000Y17976250D01*
X31275000Y17976250D01*
X31275000Y17177000D01*
X31876250Y17177000D01*
X32035000Y17335750D01*
X32035000Y17626310D01*
X31938327Y17859699D01*
X31759698Y18038327D01*
X31526309Y18135000D01*
X31433750Y18135000D01*
X31275000Y17976250D01*
X31025000Y17976250D01*
X30866250Y18135000D01*
X30773691Y18135000D01*
X30745875Y18123478D01*
X30719146Y18257855D01*
X30673294Y18326477D01*
X30468289Y18633289D01*
X30373521Y18696611D01*
X27602440Y21467691D01*
X27602440Y22675000D01*
X27553157Y22922765D01*
X27412809Y23132809D01*
X27289802Y23215000D01*
X30161031Y23215000D01*
X30637945Y23309864D01*
X31178769Y23671231D01*
X31540136Y24212055D01*
X31667031Y24850000D01*
X31540136Y25487945D01*
X31178769Y26028769D01*
X30637945Y26390136D01*
X30161031Y26485000D01*
X24574869Y26485000D01*
X24786280Y26572569D01*
X25077431Y26863720D01*
X25235000Y27244126D01*
X25235000Y27655874D01*
X25077431Y28036280D01*
X24786280Y28327431D01*
X24405874Y28485000D01*
X23994126Y28485000D01*
X23613720Y28327431D01*
X23322569Y28036280D01*
X23165000Y27655874D01*
X23165000Y27244126D01*
X23322569Y26863720D01*
X23613720Y26572569D01*
X23829620Y26483140D01*
X23362054Y26390136D01*
X22957746Y26119986D01*
X22957744Y26119984D01*
X22821231Y26028769D01*
X22730015Y25892255D01*
X21611777Y24774016D01*
X18671618Y27714174D01*
X18205490Y28025630D01*
X18135000Y28039651D01*
X18135000Y30355833D01*
X26938780Y30323226D01*
G36*
X13865001Y30371647D02*
X13865000Y26780793D01*
X11355826Y24271618D01*
X11044370Y23805490D01*
X10898072Y23070000D01*
X11044370Y22334510D01*
X11397560Y21805922D01*
X11397560Y19960000D01*
X11446843Y19712235D01*
X11587191Y19502191D01*
X11797235Y19361843D01*
X12045000Y19312560D01*
X13595000Y19312560D01*
X13842765Y19361843D01*
X14052809Y19502191D01*
X14193157Y19712235D01*
X14242440Y19960000D01*
X14242440Y20191135D01*
X14557146Y19980854D01*
X15000000Y19892765D01*
X15442854Y19980854D01*
X15723523Y20168392D01*
X15757560Y20202429D01*
X15757560Y19960000D01*
X15806843Y19712235D01*
X15947191Y19502191D01*
X16157235Y19361843D01*
X16405000Y19312560D01*
X17955000Y19312560D01*
X18202765Y19361843D01*
X18412809Y19502191D01*
X18553157Y19712235D01*
X18602440Y19960000D01*
X18602440Y22451767D01*
X20248258Y20805949D01*
X20279864Y20647056D01*
X20397560Y20470911D01*
X20397560Y19895000D01*
X20446843Y19647235D01*
X20587191Y19437191D01*
X20797235Y19296843D01*
X21045000Y19247560D01*
X22595000Y19247560D01*
X22842765Y19296843D01*
X23052809Y19437191D01*
X23193157Y19647235D01*
X23242440Y19895000D01*
X23242440Y20470910D01*
X23360136Y20647055D01*
X23406872Y20882013D01*
X23595630Y21164510D01*
X23741928Y21900000D01*
X23678934Y22216695D01*
X24677240Y23215000D01*
X25070198Y23215000D01*
X24947191Y23132809D01*
X24806843Y22922765D01*
X24757560Y22675000D01*
X24757560Y19895000D01*
X24806843Y19647235D01*
X24947191Y19437191D01*
X25157235Y19296843D01*
X25405000Y19247560D01*
X26612309Y19247560D01*
X27197428Y18662440D01*
X20630000Y18662440D01*
X20382235Y18613157D01*
X20172191Y18472809D01*
X20031843Y18262765D01*
X19982560Y18015000D01*
X19982560Y12237691D01*
X19101480Y11356611D01*
X19006712Y11293289D01*
X19005925Y11292112D01*
X19017440Y11350000D01*
X19017440Y18080000D01*
X18968157Y18327765D01*
X18827809Y18537809D01*
X18617765Y18678157D01*
X18370000Y18727440D01*
X11630000Y18727440D01*
X11382235Y18678157D01*
X11172191Y18537809D01*
X11031843Y18327765D01*
X10982560Y18080000D01*
X10982560Y14822440D01*
X10818289Y15068289D01*
X10726760Y15129446D01*
X10707809Y15157809D01*
X10497765Y15298157D01*
X10464307Y15304812D01*
X10442855Y15319146D01*
X10000000Y15407235D01*
X9635000Y15334632D01*
X9635000Y15965000D01*
X9716250Y15965000D01*
X9875000Y16123750D01*
X9875000Y16923000D01*
X10125000Y16923000D01*
X10125000Y16123750D01*
X10283750Y15965000D01*
X10376309Y15965000D01*
X10609698Y16061673D01*
X10788327Y16240301D01*
X10885000Y16473690D01*
X10885000Y16764250D01*
X10726250Y16923000D01*
X10125000Y16923000D01*
X9875000Y16923000D01*
X9853000Y16923000D01*
X9853000Y17177000D01*
X9875000Y17177000D01*
X9875000Y17976250D01*
X10125000Y17976250D01*
X10125000Y17177000D01*
X10726250Y17177000D01*
X10885000Y17335750D01*
X10885000Y17626310D01*
X10788327Y17859699D01*
X10609698Y18038327D01*
X10376309Y18135000D01*
X10283750Y18135000D01*
X10125000Y17976250D01*
X9875000Y17976250D01*
X9716250Y18135000D01*
X9635000Y18135000D01*
X9635000Y20079869D01*
X9881608Y20326477D01*
X10069146Y20607145D01*
X10157235Y21050000D01*
X10069146Y21492854D01*
X9818288Y21868288D01*
X9442854Y22119146D01*
X9000000Y22207235D01*
X8557145Y22119146D01*
X8276477Y21931608D01*
X7776480Y21431611D01*
X7681712Y21368289D01*
X7547313Y21167146D01*
X7513221Y21116124D01*
X6295826Y22333518D01*
X6232502Y22428289D01*
X5857068Y22679146D01*
X5525996Y22745000D01*
X5414213Y22767235D01*
X5302430Y22745000D01*
X5177239Y22745000D01*
X5135000Y22787239D01*
X5135000Y22972761D01*
X5386086Y23223847D01*
X5635000Y23824778D01*
X5635000Y24475222D01*
X5386086Y25076153D01*
X5135000Y25327239D01*
X5135000Y25512761D01*
X5386086Y25763847D01*
X5635000Y26364778D01*
X5635000Y27015222D01*
X5386086Y27616153D01*
X5135000Y27867239D01*
X5135000Y28052761D01*
X5386086Y28303847D01*
X5635000Y28904778D01*
X5635000Y29555222D01*
X5386086Y30156153D01*
X5138270Y30403969D01*
X13865001Y30371647D01*
X13865001Y30371647D01*
G37*
X13865001Y30371647D02*
X13865000Y26780793D01*
X11355826Y24271618D01*
X11044370Y23805490D01*
X10898072Y23070000D01*
X11044370Y22334510D01*
X11397560Y21805922D01*
X11397560Y19960000D01*
X11446843Y19712235D01*
X11587191Y19502191D01*
X11797235Y19361843D01*
X12045000Y19312560D01*
X13595000Y19312560D01*
X13842765Y19361843D01*
X14052809Y19502191D01*
X14193157Y19712235D01*
X14242440Y19960000D01*
X14242440Y20191135D01*
X14557146Y19980854D01*
X15000000Y19892765D01*
X15442854Y19980854D01*
X15723523Y20168392D01*
X15757560Y20202429D01*
X15757560Y19960000D01*
X15806843Y19712235D01*
X15947191Y19502191D01*
X16157235Y19361843D01*
X16405000Y19312560D01*
X17955000Y19312560D01*
X18202765Y19361843D01*
X18412809Y19502191D01*
X18553157Y19712235D01*
X18602440Y19960000D01*
X18602440Y22451767D01*
X20248258Y20805949D01*
X20279864Y20647056D01*
X20397560Y20470911D01*
X20397560Y19895000D01*
X20446843Y19647235D01*
X20587191Y19437191D01*
X20797235Y19296843D01*
X21045000Y19247560D01*
X22595000Y19247560D01*
X22842765Y19296843D01*
X23052809Y19437191D01*
X23193157Y19647235D01*
X23242440Y19895000D01*
X23242440Y20470910D01*
X23360136Y20647055D01*
X23406872Y20882013D01*
X23595630Y21164510D01*
X23741928Y21900000D01*
X23678934Y22216695D01*
X24677240Y23215000D01*
X25070198Y23215000D01*
X24947191Y23132809D01*
X24806843Y22922765D01*
X24757560Y22675000D01*
X24757560Y19895000D01*
X24806843Y19647235D01*
X24947191Y19437191D01*
X25157235Y19296843D01*
X25405000Y19247560D01*
X26612309Y19247560D01*
X27197428Y18662440D01*
X20630000Y18662440D01*
X20382235Y18613157D01*
X20172191Y18472809D01*
X20031843Y18262765D01*
X19982560Y18015000D01*
X19982560Y12237691D01*
X19101480Y11356611D01*
X19006712Y11293289D01*
X19005925Y11292112D01*
X19017440Y11350000D01*
X19017440Y18080000D01*
X18968157Y18327765D01*
X18827809Y18537809D01*
X18617765Y18678157D01*
X18370000Y18727440D01*
X11630000Y18727440D01*
X11382235Y18678157D01*
X11172191Y18537809D01*
X11031843Y18327765D01*
X10982560Y18080000D01*
X10982560Y14822440D01*
X10818289Y15068289D01*
X10726760Y15129446D01*
X10707809Y15157809D01*
X10497765Y15298157D01*
X10464307Y15304812D01*
X10442855Y15319146D01*
X10000000Y15407235D01*
X9635000Y15334632D01*
X9635000Y15965000D01*
X9716250Y15965000D01*
X9875000Y16123750D01*
X9875000Y16923000D01*
X10125000Y16923000D01*
X10125000Y16123750D01*
X10283750Y15965000D01*
X10376309Y15965000D01*
X10609698Y16061673D01*
X10788327Y16240301D01*
X10885000Y16473690D01*
X10885000Y16764250D01*
X10726250Y16923000D01*
X10125000Y16923000D01*
X9875000Y16923000D01*
X9853000Y16923000D01*
X9853000Y17177000D01*
X9875000Y17177000D01*
X9875000Y17976250D01*
X10125000Y17976250D01*
X10125000Y17177000D01*
X10726250Y17177000D01*
X10885000Y17335750D01*
X10885000Y17626310D01*
X10788327Y17859699D01*
X10609698Y18038327D01*
X10376309Y18135000D01*
X10283750Y18135000D01*
X10125000Y17976250D01*
X9875000Y17976250D01*
X9716250Y18135000D01*
X9635000Y18135000D01*
X9635000Y20079869D01*
X9881608Y20326477D01*
X10069146Y20607145D01*
X10157235Y21050000D01*
X10069146Y21492854D01*
X9818288Y21868288D01*
X9442854Y22119146D01*
X9000000Y22207235D01*
X8557145Y22119146D01*
X8276477Y21931608D01*
X7776480Y21431611D01*
X7681712Y21368289D01*
X7547313Y21167146D01*
X7513221Y21116124D01*
X6295826Y22333518D01*
X6232502Y22428289D01*
X5857068Y22679146D01*
X5525996Y22745000D01*
X5414213Y22767235D01*
X5302430Y22745000D01*
X5177239Y22745000D01*
X5135000Y22787239D01*
X5135000Y22972761D01*
X5386086Y23223847D01*
X5635000Y23824778D01*
X5635000Y24475222D01*
X5386086Y25076153D01*
X5135000Y25327239D01*
X5135000Y25512761D01*
X5386086Y25763847D01*
X5635000Y26364778D01*
X5635000Y27015222D01*
X5386086Y27616153D01*
X5135000Y27867239D01*
X5135000Y28052761D01*
X5386086Y28303847D01*
X5635000Y28904778D01*
X5635000Y29555222D01*
X5386086Y30156153D01*
X5138270Y30403969D01*
X13865001Y30371647D01*
M02*
