G04 #@! TF.GenerationSoftware,KiCad,Pcbnew,5.0.0-rc2-dev-unknown-648803d~64~ubuntu16.04.1*
G04 #@! TF.CreationDate,2018-04-28T23:38:00-07:00*
G04 #@! TF.ProjectId,HICURRNT_Bridge,4849435552524E545F4272696467652E,rev?*
G04 #@! TF.SameCoordinates,Original*
G04 #@! TF.FileFunction,Soldermask,Top*
G04 #@! TF.FilePolarity,Negative*
%FSLAX46Y46*%
G04 Gerber Fmt 4.6, Leading zero omitted, Abs format (unit mm)*
G04 Created by KiCad (PCBNEW 5.0.0-rc2-dev-unknown-648803d~64~ubuntu16.04.1) date Sat Apr 28 23:38:00 2018*
%MOMM*%
%LPD*%
G01*
G04 APERTURE LIST*
%ADD10C,0.150000*%
%ADD11C,4.900000*%
%ADD12R,1.870000X1.670000*%
%ADD13R,2.900000X2.400000*%
%ADD14R,0.900000X1.300000*%
%ADD15C,5.400000*%
%ADD16C,4.400000*%
%ADD17R,2.800000X2.800000*%
%ADD18C,2.800000*%
%ADD19R,2.900000X4.400000*%
%ADD20R,1.150000X1.200000*%
%ADD21R,4.400000X2.900000*%
%ADD22R,1.200000X1.150000*%
%ADD23R,1.400000X2.900000*%
%ADD24R,1.400000X2.000000*%
%ADD25R,1.200000X1.300000*%
%ADD26C,1.924000*%
%ADD27R,1.924000X1.924000*%
%ADD28R,4.400000X4.400000*%
%ADD29C,2.400000*%
%ADD30R,2.400000X2.400000*%
%ADD31R,1.300000X0.900000*%
%ADD32R,1.950000X3.180000*%
%ADD33R,7.140000X7.130000*%
%ADD34R,1.290000X1.500000*%
%ADD35R,1.500000X0.800000*%
G04 APERTURE END LIST*
D10*
G36*
X47730000Y26630000D02*
X49630000Y26630000D01*
X49630000Y31430000D01*
X47730000Y31430000D01*
X47730000Y28930000D01*
X47730000Y26630000D01*
G37*
X47730000Y26630000D02*
X49630000Y26630000D01*
X49630000Y31430000D01*
X47730000Y31430000D01*
X47730000Y28930000D01*
X47730000Y26630000D01*
G36*
X50230000Y26630000D02*
X50230000Y31430000D01*
X52180000Y31430000D01*
X52180000Y26630000D01*
X50230000Y26630000D01*
G37*
X50230000Y26630000D02*
X50230000Y31430000D01*
X52180000Y31430000D01*
X52180000Y26630000D01*
X50230000Y26630000D01*
D11*
X44950000Y56850000D03*
X14350000Y56850000D03*
D12*
X4615000Y62580000D03*
X4615000Y66450000D03*
D13*
X1600000Y47300000D03*
X1600000Y51300000D03*
X1600000Y62450000D03*
X1600000Y66450000D03*
X54800000Y62800000D03*
X54800000Y66800000D03*
X55200000Y48000000D03*
X55200000Y52000000D03*
D14*
X54500000Y38050000D03*
X53000000Y38050000D03*
D15*
X57750000Y4250000D03*
X4000000Y4050000D03*
D11*
X36200000Y56850000D03*
X21750000Y56850000D03*
D15*
X4000000Y112050000D03*
X57750000Y112850000D03*
D16*
X45735000Y40540000D03*
X13735000Y40540000D03*
X13735000Y72540000D03*
D17*
X15290000Y86710000D03*
D18*
X7790000Y86710000D03*
D19*
X21400000Y28010000D03*
X21400000Y34110000D03*
D20*
X32200000Y31150000D03*
X32200000Y29650000D03*
X32000000Y35050000D03*
X32000000Y33550000D03*
X36000000Y40750000D03*
X36000000Y39250000D03*
D21*
X56450000Y13050000D03*
X50350000Y13050000D03*
D19*
X10950000Y34250000D03*
X10950000Y28150000D03*
D21*
X37950000Y13050000D03*
X44050000Y13050000D03*
D22*
X36200000Y25050000D03*
X37700000Y25050000D03*
D23*
X41500000Y26050000D03*
X44500000Y26050000D03*
D12*
X4615000Y47340000D03*
X4615000Y51210000D03*
X52200000Y51920000D03*
X52200000Y48050000D03*
X52000000Y62515000D03*
X52000000Y66385000D03*
D24*
X33000000Y24850000D03*
X30000000Y24850000D03*
D25*
X35900000Y21050000D03*
X38000000Y21050000D03*
D26*
X57400000Y39410000D03*
X57400000Y36870000D03*
D27*
X57400000Y34330000D03*
X57400000Y31790000D03*
D26*
X57400000Y29250000D03*
X57400000Y26710000D03*
X57400000Y24170000D03*
X57400000Y21630000D03*
D28*
X43620000Y100760000D03*
D16*
X34120000Y100760000D03*
X24620000Y100760000D03*
X15120000Y100760000D03*
D29*
X29460000Y3652000D03*
X32000000Y3652000D03*
X34540000Y3652000D03*
X37080000Y3652000D03*
D30*
X26840000Y3652000D03*
X24300000Y3652000D03*
X21760000Y3652000D03*
X19220000Y3652000D03*
D29*
X4000000Y29230000D03*
X4000000Y26690000D03*
X4000000Y24150000D03*
X4000000Y21610000D03*
X4070000Y11370000D03*
X4070000Y13910000D03*
X4070000Y16450000D03*
X4070000Y18990000D03*
D17*
X50850000Y86710000D03*
D18*
X43350000Y86710000D03*
X25570000Y86710000D03*
D17*
X33070000Y86710000D03*
D14*
X31150000Y17050000D03*
X29650000Y17050000D03*
D31*
X25800000Y41150000D03*
X25800000Y39650000D03*
X28250000Y39675000D03*
X28250000Y41175000D03*
X33000000Y41200000D03*
X33000000Y39700000D03*
X30750000Y41225000D03*
X30750000Y39725000D03*
X41200000Y39350000D03*
X41200000Y40850000D03*
D14*
X31200000Y14650000D03*
X29700000Y14650000D03*
X8500000Y17050000D03*
X10000000Y17050000D03*
X10000000Y14250000D03*
X8500000Y14250000D03*
X40500000Y21050000D03*
X42000000Y21050000D03*
X53000000Y41050000D03*
X54500000Y41050000D03*
D32*
X21820000Y21285000D03*
D33*
X24000000Y14650000D03*
D32*
X26180000Y21285000D03*
X17180000Y21350000D03*
D33*
X15000000Y14715000D03*
D32*
X12820000Y21350000D03*
D34*
X37725000Y36387500D03*
X38575000Y36387500D03*
X40275000Y36387500D03*
X39425000Y36387500D03*
X39425000Y35331250D03*
X40275000Y35331250D03*
X38575000Y35331250D03*
X37725000Y35331250D03*
X37725000Y34275000D03*
X38575000Y34275000D03*
X40275000Y34275000D03*
X39425000Y34275000D03*
X39425000Y33218750D03*
X40275000Y33218750D03*
X38575000Y33218750D03*
X37725000Y33218750D03*
X37725000Y32162500D03*
X38575000Y32162500D03*
X40275000Y32162500D03*
X39425000Y32162500D03*
X39425000Y31106250D03*
X40275000Y31106250D03*
X38575000Y31106250D03*
X37725000Y31106250D03*
D35*
X42150000Y37443750D03*
X42150000Y36793750D03*
X42150000Y36143750D03*
X42150000Y35493750D03*
X42150000Y34843750D03*
X42150000Y34193750D03*
X42150000Y33543750D03*
X42150000Y32893750D03*
X42150000Y32243750D03*
X42150000Y31593750D03*
X42150000Y30943750D03*
X42150000Y30293750D03*
X35850000Y30293750D03*
X35850000Y30943750D03*
X35850000Y31593750D03*
X35850000Y32243750D03*
X35850000Y32893750D03*
X35850000Y33543750D03*
X35850000Y34193750D03*
X35850000Y34843750D03*
X35850000Y35493750D03*
X35850000Y36143750D03*
X35850000Y36793750D03*
X35850000Y37443750D03*
D26*
X23030000Y46959000D03*
X23030000Y49245000D03*
X23030000Y51531000D03*
X12616000Y46959000D03*
X12616000Y49245000D03*
X12616000Y51531000D03*
X16116000Y46959000D03*
X16116000Y49245000D03*
X16116000Y51531000D03*
X19616000Y46959000D03*
X19616000Y49245000D03*
X19616000Y51531000D03*
D27*
X19616000Y66136000D03*
D26*
X19616000Y63850000D03*
X19616000Y61564000D03*
D27*
X16116000Y66136000D03*
D26*
X16116000Y63850000D03*
X16116000Y61564000D03*
D27*
X12616000Y66136000D03*
D26*
X12616000Y63850000D03*
X12616000Y61564000D03*
D27*
X23030000Y66136000D03*
D26*
X23030000Y63850000D03*
X23030000Y61564000D03*
X42476000Y51531000D03*
X42476000Y49245000D03*
X42476000Y46959000D03*
X38976000Y51531000D03*
X38976000Y49245000D03*
X38976000Y46959000D03*
X35476000Y51531000D03*
X35476000Y49245000D03*
X35476000Y46959000D03*
X45890000Y51531000D03*
X45890000Y49245000D03*
X45890000Y46959000D03*
X45890000Y61564000D03*
X45890000Y63850000D03*
D27*
X45890000Y66136000D03*
D26*
X35476000Y61564000D03*
X35476000Y63850000D03*
D27*
X35476000Y66136000D03*
D26*
X38976000Y61564000D03*
X38976000Y63850000D03*
D27*
X38976000Y66136000D03*
D26*
X42476000Y61564000D03*
X42476000Y63850000D03*
D27*
X42476000Y66136000D03*
D16*
X45735000Y72540000D03*
M02*
