G04 #@! TF.GenerationSoftware,KiCad,Pcbnew,5.0.0-rc2-dev-unknown-648803d~64~ubuntu16.04.1*
G04 #@! TF.CreationDate,2018-04-28T23:38:00-07:00*
G04 #@! TF.ProjectId,HICURRNT_Bridge,4849435552524E545F4272696467652E,rev?*
G04 #@! TF.SameCoordinates,Original*
G04 #@! TF.FileFunction,Paste,Top*
G04 #@! TF.FilePolarity,Positive*
%FSLAX46Y46*%
G04 Gerber Fmt 4.6, Leading zero omitted, Abs format (unit mm)*
G04 Created by KiCad (PCBNEW 5.0.0-rc2-dev-unknown-648803d~64~ubuntu16.04.1) date Sat Apr 28 23:38:00 2018*
%MOMM*%
%LPD*%
G01*
G04 APERTURE LIST*
%ADD10R,1.470000X1.270000*%
%ADD11R,2.500000X2.000000*%
%ADD12R,0.500000X0.900000*%
%ADD13R,2.500000X4.000000*%
%ADD14R,0.750000X0.800000*%
%ADD15R,4.000000X2.500000*%
%ADD16R,0.800000X0.750000*%
%ADD17R,1.000000X2.500000*%
%ADD18R,1.000000X1.600000*%
%ADD19R,0.800000X0.900000*%
%ADD20R,0.900000X0.500000*%
%ADD21R,1.550000X2.780000*%
%ADD22R,6.740000X6.730000*%
%ADD23R,1.100000X0.400000*%
G04 APERTURE END LIST*
D10*
X4615000Y62580000D03*
X4615000Y66450000D03*
D11*
X1600000Y47300000D03*
X1600000Y51300000D03*
X1600000Y62450000D03*
X1600000Y66450000D03*
X54800000Y62800000D03*
X54800000Y66800000D03*
X55200000Y48000000D03*
X55200000Y52000000D03*
D12*
X54500000Y38050000D03*
X53000000Y38050000D03*
D13*
X21400000Y28010000D03*
X21400000Y34110000D03*
D14*
X32200000Y31150000D03*
X32200000Y29650000D03*
X32000000Y35050000D03*
X32000000Y33550000D03*
X36000000Y40750000D03*
X36000000Y39250000D03*
D15*
X56450000Y13050000D03*
X50350000Y13050000D03*
D13*
X10950000Y34250000D03*
X10950000Y28150000D03*
D15*
X37950000Y13050000D03*
X44050000Y13050000D03*
D16*
X36200000Y25050000D03*
X37700000Y25050000D03*
D17*
X41500000Y26050000D03*
X44500000Y26050000D03*
D10*
X4615000Y47340000D03*
X4615000Y51210000D03*
X52200000Y51920000D03*
X52200000Y48050000D03*
X52000000Y62515000D03*
X52000000Y66385000D03*
D18*
X33000000Y24850000D03*
X30000000Y24850000D03*
D19*
X35900000Y21050000D03*
X38000000Y21050000D03*
D12*
X31150000Y17050000D03*
X29650000Y17050000D03*
D20*
X25800000Y41150000D03*
X25800000Y39650000D03*
X28250000Y39675000D03*
X28250000Y41175000D03*
X33000000Y41200000D03*
X33000000Y39700000D03*
X30750000Y41225000D03*
X30750000Y39725000D03*
X41200000Y39350000D03*
X41200000Y40850000D03*
D12*
X31200000Y14650000D03*
X29700000Y14650000D03*
X8500000Y17050000D03*
X10000000Y17050000D03*
X10000000Y14250000D03*
X8500000Y14250000D03*
X40500000Y21050000D03*
X42000000Y21050000D03*
X53000000Y41050000D03*
X54500000Y41050000D03*
D21*
X21820000Y21285000D03*
D22*
X24000000Y14650000D03*
D21*
X26180000Y21285000D03*
X17180000Y21350000D03*
D22*
X15000000Y14715000D03*
D21*
X12820000Y21350000D03*
D23*
X42150000Y37443750D03*
X42150000Y36793750D03*
X42150000Y36143750D03*
X42150000Y35493750D03*
X42150000Y34843750D03*
X42150000Y34193750D03*
X42150000Y33543750D03*
X42150000Y32893750D03*
X42150000Y32243750D03*
X42150000Y31593750D03*
X42150000Y30943750D03*
X42150000Y30293750D03*
X35850000Y30293750D03*
X35850000Y30943750D03*
X35850000Y31593750D03*
X35850000Y32243750D03*
X35850000Y32893750D03*
X35850000Y33543750D03*
X35850000Y34193750D03*
X35850000Y34843750D03*
X35850000Y35493750D03*
X35850000Y36143750D03*
X35850000Y36793750D03*
X35850000Y37443750D03*
M02*
